<?xml version="1.0" encoding="UTF-8" standalone="no"?>
<svg width="133.35mm" height="87.4889mm"
 viewBox="0 0 378 248"
 xmlns="http://www.w3.org/2000/svg" xmlns:xlink="http://www.w3.org/1999/xlink"  version="1.2" baseProfile="tiny">
<title>Qt SVG Document</title>
<desc>MATLAB, The MathWorks, Inc. Version 25.1.0.2973910 R2025a Update 1</desc>
<defs>
</defs>
<g fill="none" stroke="black" stroke-width="1" fill-rule="evenodd" stroke-linecap="square" stroke-linejoin="bevel" >

<g fill="#ffffff" fill-opacity="1" stroke="none" transform="matrix(0.6,0,0,0.6,-9.3,-5.85)"
font-family="MS Shell Dlg 2" font-size="7.8" font-weight="400" font-style="normal" 
>
<path vector-effect="none" fill-rule="evenodd" d="M15,9 L645,9 L645,424 L15,424 L15,9"/>
</g>

<g fill="#ffffff" fill-opacity="1" stroke="none" transform="matrix(6e-05,0,0,6e-05,-9.3,-5.85)"
font-family="MS Shell Dlg 2" font-size="7.8" font-weight="400" font-style="normal" 
>
<path vector-effect="none" fill-rule="evenodd" d="M910000,320000 L910000,3.72e+06 L6.34e+06,3.72e+06 L6.34e+06,320000 L910000,320000"/>
</g>

<g fill="#212121" fill-opacity="0.14902" stroke="#212121" stroke-opacity="0.14902" stroke-width="0.833333" stroke-linecap="butt" stroke-linejoin="round" transform="matrix(0.6,0,0,0.6,-9.3,-5.85)"
font-family="MS Shell Dlg 2" font-size="7.8" font-weight="400" font-style="normal" 
>
<polyline fill="none" vector-effect="none" points="91,32 91,372 " />
<polyline fill="none" vector-effect="none" points="168.571,32 168.571,372 " />
<polyline fill="none" vector-effect="none" points="246.143,32 246.143,372 " />
<polyline fill="none" vector-effect="none" points="323.714,32 323.714,372 " />
<polyline fill="none" vector-effect="none" points="401.286,32 401.286,372 " />
<polyline fill="none" vector-effect="none" points="478.857,32 478.857,372 " />
<polyline fill="none" vector-effect="none" points="556.429,32 556.429,372 " />
<polyline fill="none" vector-effect="none" points="634,32 634,372 " />
<polyline fill="none" vector-effect="none" points="91,372 634,372 " />
<polyline fill="none" vector-effect="none" points="91,323.429 634,323.429 " />
<polyline fill="none" vector-effect="none" points="91,274.857 634,274.857 " />
<polyline fill="none" vector-effect="none" points="91,226.286 634,226.286 " />
<polyline fill="none" vector-effect="none" points="91,177.714 634,177.714 " />
<polyline fill="none" vector-effect="none" points="91,129.143 634,129.143 " />
<polyline fill="none" vector-effect="none" points="91,80.5714 634,80.5714 " />
<polyline fill="none" vector-effect="none" points="91,32 634,32 " />
</g>

<g fill="#212121" fill-opacity="1" stroke="#212121" stroke-opacity="1" stroke-width="1" stroke-linecap="square" stroke-linejoin="bevel" transform="matrix(0.6,0,0,0.6,192,243.95)"
font-family="Helvetica" font-size="18" font-weight="400" font-style="normal" 
>
<text fill="#212121" fill-opacity="1" stroke="none" xml:space="preserve" x="0" y="0" font-family="Helvetica" font-size="18" font-weight="400" font-style="normal" 
 >Zeit [s]</text>
</g>

<g fill="#212121" fill-opacity="1" stroke="#212121" stroke-opacity="1" stroke-width="0.833333" stroke-linecap="square" stroke-linejoin="round" transform="matrix(0.6,0,0,0.6,-9.3,-5.85)"
font-family="Helvetica" font-size="18" font-weight="400" font-style="normal" 
>
<polyline fill="none" vector-effect="none" points="91,372 634,372 " />
<polyline fill="none" vector-effect="none" points="91,32 634,32 " />
<polyline fill="none" vector-effect="none" points="91,372 91,366.57 " />
<polyline fill="none" vector-effect="none" points="91,37.43 91,32 " />
<polyline fill="none" vector-effect="none" points="168.571,372 168.571,366.57 " />
<polyline fill="none" vector-effect="none" points="168.571,37.43 168.571,32 " />
<polyline fill="none" vector-effect="none" points="246.143,372 246.143,366.57 " />
<polyline fill="none" vector-effect="none" points="246.143,37.43 246.143,32 " />
<polyline fill="none" vector-effect="none" points="323.714,372 323.714,366.57 " />
<polyline fill="none" vector-effect="none" points="323.714,37.43 323.714,32 " />
<polyline fill="none" vector-effect="none" points="401.286,372 401.286,366.57 " />
<polyline fill="none" vector-effect="none" points="401.286,37.43 401.286,32 " />
<polyline fill="none" vector-effect="none" points="478.857,372 478.857,366.57 " />
<polyline fill="none" vector-effect="none" points="478.857,37.43 478.857,32 " />
<polyline fill="none" vector-effect="none" points="556.429,372 556.429,366.57 " />
<polyline fill="none" vector-effect="none" points="556.429,37.43 556.429,32 " />
<polyline fill="none" vector-effect="none" points="634,372 634,366.57 " />
<polyline fill="none" vector-effect="none" points="634,37.43 634,32 " />
</g>

<g fill="#212121" fill-opacity="1" stroke="#212121" stroke-opacity="1" stroke-width="1" stroke-linecap="square" stroke-linejoin="bevel" transform="matrix(0.6,0,0,0.6,42.6,230.35)"
font-family="Helvetica" font-size="16" font-weight="400" font-style="normal" 
>
<text fill="#212121" fill-opacity="1" stroke="none" xml:space="preserve" x="0" y="0" font-family="Helvetica" font-size="16" font-weight="400" font-style="normal" 
 >0</text>
</g>

<g fill="#212121" fill-opacity="1" stroke="#212121" stroke-opacity="1" stroke-width="1" stroke-linecap="square" stroke-linejoin="bevel" transform="matrix(0.6,0,0,0.6,86.4429,230.35)"
font-family="Helvetica" font-size="16" font-weight="400" font-style="normal" 
>
<text fill="#212121" fill-opacity="1" stroke="none" xml:space="preserve" x="0" y="0" font-family="Helvetica" font-size="16" font-weight="400" font-style="normal" 
 >10</text>
</g>

<g fill="#212121" fill-opacity="1" stroke="#212121" stroke-opacity="1" stroke-width="1" stroke-linecap="square" stroke-linejoin="bevel" transform="matrix(0.6,0,0,0.6,132.986,230.35)"
font-family="Helvetica" font-size="16" font-weight="400" font-style="normal" 
>
<text fill="#212121" fill-opacity="1" stroke="none" xml:space="preserve" x="0" y="0" font-family="Helvetica" font-size="16" font-weight="400" font-style="normal" 
 >20</text>
</g>

<g fill="#212121" fill-opacity="1" stroke="#212121" stroke-opacity="1" stroke-width="1" stroke-linecap="square" stroke-linejoin="bevel" transform="matrix(0.6,0,0,0.6,179.529,230.35)"
font-family="Helvetica" font-size="16" font-weight="400" font-style="normal" 
>
<text fill="#212121" fill-opacity="1" stroke="none" xml:space="preserve" x="0" y="0" font-family="Helvetica" font-size="16" font-weight="400" font-style="normal" 
 >30</text>
</g>

<g fill="#212121" fill-opacity="1" stroke="#212121" stroke-opacity="1" stroke-width="1" stroke-linecap="square" stroke-linejoin="bevel" transform="matrix(0.6,0,0,0.6,226.071,230.35)"
font-family="Helvetica" font-size="16" font-weight="400" font-style="normal" 
>
<text fill="#212121" fill-opacity="1" stroke="none" xml:space="preserve" x="0" y="0" font-family="Helvetica" font-size="16" font-weight="400" font-style="normal" 
 >40</text>
</g>

<g fill="#212121" fill-opacity="1" stroke="#212121" stroke-opacity="1" stroke-width="1" stroke-linecap="square" stroke-linejoin="bevel" transform="matrix(0.6,0,0,0.6,272.614,230.35)"
font-family="Helvetica" font-size="16" font-weight="400" font-style="normal" 
>
<text fill="#212121" fill-opacity="1" stroke="none" xml:space="preserve" x="0" y="0" font-family="Helvetica" font-size="16" font-weight="400" font-style="normal" 
 >50</text>
</g>

<g fill="#212121" fill-opacity="1" stroke="#212121" stroke-opacity="1" stroke-width="1" stroke-linecap="square" stroke-linejoin="bevel" transform="matrix(0.6,0,0,0.6,319.157,230.35)"
font-family="Helvetica" font-size="16" font-weight="400" font-style="normal" 
>
<text fill="#212121" fill-opacity="1" stroke="none" xml:space="preserve" x="0" y="0" font-family="Helvetica" font-size="16" font-weight="400" font-style="normal" 
 >60</text>
</g>

<g fill="#212121" fill-opacity="1" stroke="#212121" stroke-opacity="1" stroke-width="1" stroke-linecap="square" stroke-linejoin="bevel" transform="matrix(0.6,0,0,0.6,365.7,230.35)"
font-family="Helvetica" font-size="16" font-weight="400" font-style="normal" 
>
<text fill="#212121" fill-opacity="1" stroke="none" xml:space="preserve" x="0" y="0" font-family="Helvetica" font-size="16" font-weight="400" font-style="normal" 
 >70</text>
</g>

<g fill="#212121" fill-opacity="1" stroke="#212121" stroke-opacity="1" stroke-width="1" stroke-linecap="square" stroke-linejoin="bevel" transform="matrix(0,-0.6,0.6,0,12.9,169.35)"
font-family="Helvetica" font-size="18" font-weight="400" font-style="normal" 
>
<text fill="#212121" fill-opacity="1" stroke="none" xml:space="preserve" x="0" y="0" font-family="Helvetica" font-size="18" font-weight="400" font-style="normal" 
 >Beschleunigung [m/s</text>
</g>

<g fill="#212121" fill-opacity="1" stroke="#212121" stroke-opacity="1" stroke-width="1" stroke-linecap="square" stroke-linejoin="bevel" transform="matrix(0,-0.6,0.6,0,7.5,69.15)"
font-family="Helvetica" font-size="14" font-weight="400" font-style="normal" 
>
<text fill="#212121" fill-opacity="1" stroke="none" xml:space="preserve" x="0" y="0" font-family="Helvetica" font-size="14" font-weight="400" font-style="normal" 
 >2</text>
</g>

<g fill="#212121" fill-opacity="1" stroke="#212121" stroke-opacity="1" stroke-width="1" stroke-linecap="square" stroke-linejoin="bevel" transform="matrix(0,-0.6,0.6,0,12.9,64.35)"
font-family="Helvetica" font-size="18" font-weight="400" font-style="normal" 
>
<text fill="#212121" fill-opacity="1" stroke="none" xml:space="preserve" x="0" y="0" font-family="Helvetica" font-size="18" font-weight="400" font-style="normal" 
 >]</text>
</g>

<g fill="#212121" fill-opacity="1" stroke="#212121" stroke-opacity="1" stroke-width="0.833333" stroke-linecap="square" stroke-linejoin="round" transform="matrix(0.6,0,0,0.6,-9.3,-5.85)"
font-family="Helvetica" font-size="18" font-weight="400" font-style="normal" 
>
<polyline fill="none" vector-effect="none" points="91,372 91,32 " />
<polyline fill="none" vector-effect="none" points="634,372 634,32 " />
<polyline fill="none" vector-effect="none" points="91,372 96.43,372 " />
<polyline fill="none" vector-effect="none" points="628.57,372 634,372 " />
<polyline fill="none" vector-effect="none" points="91,323.429 96.43,323.429 " />
<polyline fill="none" vector-effect="none" points="628.57,323.429 634,323.429 " />
<polyline fill="none" vector-effect="none" points="91,274.857 96.43,274.857 " />
<polyline fill="none" vector-effect="none" points="628.57,274.857 634,274.857 " />
<polyline fill="none" vector-effect="none" points="91,226.286 96.43,226.286 " />
<polyline fill="none" vector-effect="none" points="628.57,226.286 634,226.286 " />
<polyline fill="none" vector-effect="none" points="91,177.714 96.43,177.714 " />
<polyline fill="none" vector-effect="none" points="628.57,177.714 634,177.714 " />
<polyline fill="none" vector-effect="none" points="91,129.143 96.43,129.143 " />
<polyline fill="none" vector-effect="none" points="628.57,129.143 634,129.143 " />
<polyline fill="none" vector-effect="none" points="91,80.5714 96.43,80.5714 " />
<polyline fill="none" vector-effect="none" points="628.57,80.5714 634,80.5714 " />
<polyline fill="none" vector-effect="none" points="91,32 96.43,32 " />
<polyline fill="none" vector-effect="none" points="628.57,32 634,32 " />
</g>

<g fill="#212121" fill-opacity="1" stroke="#212121" stroke-opacity="1" stroke-width="1" stroke-linecap="square" stroke-linejoin="bevel" transform="matrix(0.6,0,0,0.6,25.1,220.65)"
font-family="Helvetica" font-size="16" font-weight="400" font-style="normal" 
>
<text fill="#212121" fill-opacity="1" stroke="none" xml:space="preserve" x="0" y="0" font-family="Helvetica" font-size="16" font-weight="400" font-style="normal" 
 >-0.2</text>
</g>

<g fill="#212121" fill-opacity="1" stroke="#212121" stroke-opacity="1" stroke-width="1" stroke-linecap="square" stroke-linejoin="bevel" transform="matrix(0.6,0,0,0.6,19.7,191.507)"
font-family="Helvetica" font-size="16" font-weight="400" font-style="normal" 
>
<text fill="#212121" fill-opacity="1" stroke="none" xml:space="preserve" x="0" y="0" font-family="Helvetica" font-size="16" font-weight="400" font-style="normal" 
 >-0.15</text>
</g>

<g fill="#212121" fill-opacity="1" stroke="#212121" stroke-opacity="1" stroke-width="1" stroke-linecap="square" stroke-linejoin="bevel" transform="matrix(0.6,0,0,0.6,25.1,162.364)"
font-family="Helvetica" font-size="16" font-weight="400" font-style="normal" 
>
<text fill="#212121" fill-opacity="1" stroke="none" xml:space="preserve" x="0" y="0" font-family="Helvetica" font-size="16" font-weight="400" font-style="normal" 
 >-0.1</text>
</g>

<g fill="#212121" fill-opacity="1" stroke="#212121" stroke-opacity="1" stroke-width="1" stroke-linecap="square" stroke-linejoin="bevel" transform="matrix(0.6,0,0,0.6,19.7,133.221)"
font-family="Helvetica" font-size="16" font-weight="400" font-style="normal" 
>
<text fill="#212121" fill-opacity="1" stroke="none" xml:space="preserve" x="0" y="0" font-family="Helvetica" font-size="16" font-weight="400" font-style="normal" 
 >-0.05</text>
</g>

<g fill="#212121" fill-opacity="1" stroke="#212121" stroke-opacity="1" stroke-width="1" stroke-linecap="square" stroke-linejoin="bevel" transform="matrix(0.6,0,0,0.6,35.9,104.079)"
font-family="Helvetica" font-size="16" font-weight="400" font-style="normal" 
>
<text fill="#212121" fill-opacity="1" stroke="none" xml:space="preserve" x="0" y="0" font-family="Helvetica" font-size="16" font-weight="400" font-style="normal" 
 >0</text>
</g>

<g fill="#212121" fill-opacity="1" stroke="#212121" stroke-opacity="1" stroke-width="1" stroke-linecap="square" stroke-linejoin="bevel" transform="matrix(0.6,0,0,0.6,22.7,74.9357)"
font-family="Helvetica" font-size="16" font-weight="400" font-style="normal" 
>
<text fill="#212121" fill-opacity="1" stroke="none" xml:space="preserve" x="0" y="0" font-family="Helvetica" font-size="16" font-weight="400" font-style="normal" 
 >0.05</text>
</g>

<g fill="#212121" fill-opacity="1" stroke="#212121" stroke-opacity="1" stroke-width="1" stroke-linecap="square" stroke-linejoin="bevel" transform="matrix(0.6,0,0,0.6,28.1,45.7929)"
font-family="Helvetica" font-size="16" font-weight="400" font-style="normal" 
>
<text fill="#212121" fill-opacity="1" stroke="none" xml:space="preserve" x="0" y="0" font-family="Helvetica" font-size="16" font-weight="400" font-style="normal" 
 >0.1</text>
</g>

<g fill="#212121" fill-opacity="1" stroke="#212121" stroke-opacity="1" stroke-width="1" stroke-linecap="square" stroke-linejoin="bevel" transform="matrix(0.6,0,0,0.6,22.7,16.65)"
font-family="Helvetica" font-size="16" font-weight="400" font-style="normal" 
>
<text fill="#212121" fill-opacity="1" stroke="none" xml:space="preserve" x="0" y="0" font-family="Helvetica" font-size="16" font-weight="400" font-style="normal" 
 >0.15</text>
</g>

<g fill="#212121" fill-opacity="1" stroke="#212121" stroke-opacity="1" stroke-width="1" stroke-linecap="square" stroke-linejoin="bevel" transform="matrix(0.6,0,0,0.6,159.9,9.3)"
font-family="Helvetica" font-size="18" font-weight="700" font-style="normal" 
>
<text fill="#212121" fill-opacity="1" stroke="none" xml:space="preserve" x="0" y="0" font-family="Helvetica" font-size="18" font-weight="700" font-style="normal" 
 >Beschleunigungen</text>
</g>

<g fill="none" stroke="#1171be" stroke-opacity="1" stroke-width="0.833333" stroke-linecap="butt" stroke-linejoin="round" transform="matrix(0.6,0,0,0.6,-9.3,-5.85)"
font-family="Helvetica" font-size="18" font-weight="700" font-style="normal" 
>
<polyline fill="none" vector-effect="none" points="91,177.714 91.7757,177.714 92.5514,177.714 93.3271,177.714 94.1029,177.714 94.8786,177.714 95.6543,177.714 96.43,177.714 97.2057,177.714 97.9814,177.714 98.7571,177.714 99.5329,177.714 100.309,177.714 101.084,177.714 101.86,177.714 102.636,177.714 103.411,177.714 104.187,177.714 104.963,177.714 105.739,177.714 106.514,177.714 107.29,177.714 108.066,177.714 108.841,177.714 109.617,177.714 110.393,177.714 111.169,177.714 111.944,177.714 112.72,177.714 113.496,177.714 114.271,177.714 115.047,177.714 115.823,177.714 116.599,177.714 117.374,177.714 118.15,177.714 118.926,177.714 119.701,177.714 120.477,177.714 121.253,177.714 122.029,177.714 122.804,177.714 123.58,177.714 124.356,177.714 125.131,177.714 125.907,177.714 126.683,177.714 127.459,177.714 128.234,177.714 129.01,177.714 129.786,177.714 130.561,177.714 131.337,177.714 132.113,177.714 132.889,177.714 133.664,177.714 134.44,177.714 135.216,177.714 135.991,177.714 136.767,177.714 137.543,177.714 138.319,177.714 139.094,177.714 139.87,177.714 140.646,177.714 141.421,177.714 142.197,177.714 142.973,177.714 143.749,177.714 144.524,177.714 145.3,177.714 146.076,177.714 146.851,177.714 147.627,177.714 148.403,177.714 149.179,177.714 149.954,177.714 150.73,177.714 151.506,177.714 152.281,177.714 153.057,177.714 153.833,177.714 154.609,177.714 155.384,177.714 156.16,177.714 156.936,177.714 157.711,177.714 158.487,177.714 159.263,177.714 160.039,177.714 160.814,177.714 161.59,177.714 162.366,177.714 163.141,177.714 163.917,177.714 164.693,177.714 165.469,177.714 166.244,177.714 167.02,177.714 167.796,177.714 168.571,177.714 169.347,170.562 170.123,165.266 170.899,161.183 171.674,158.152 172.45,155.602 173.226,153.5 174.001,151.563 174.777,149.655 175.553,147.706 176.329,145.616 177.104,143.369 177.88,140.861 178.656,138.089 179.431,135.062 180.207,131.765 180.983,128.19 181.759,124.427 182.534,120.508 183.31,116.226 184.086,111.894 184.861,114.279 185.637,115.002 186.413,114.119 187.189,112.236 187.964,109.585 188.74,106.483 189.516,103.038 190.291,99.6593 191.067,96.1728 191.843,92.764 192.619,89.5627 193.394,86.4969 194.17,83.6616 194.946,81.0399 195.721,78.6373 196.497,76.5393 197.273,74.6772 198.049,72.9579 198.824,71.5413 199.6,70.2311 200.376,69.1944 201.151,68.266 201.927,67.529 202.703,66.9117 203.479,66.452 204.254,66.1092 205.03,65.8184 205.806,65.6809 206.581,65.529 207.357,65.5245 208.133,69.1341 208.909,71.7418 209.684,73.8639 210.46,75.5455 211.236,76.9379 212.011,78.448 212.787,79.4671 213.563,80.6625 214.339,81.8915 215.114,83.1727 215.89,84.8216 216.666,86.4109 217.441,88.1263 218.217,89.9764 218.993,91.9588 219.769,94.0685 220.544,96.2965 221.32,98.615 222.096,101.012 222.871,103.791 223.647,102.863 224.423,102.696 225.199,103.638 225.974,104.863 226.75,106.651 227.526,108.54 228.301,110.572 229.077,112.669 229.853,114.764 230.629,116.816 231.404,118.79 232.18,120.646 232.956,122.439 233.731,124.071 234.507,125.559 235.283,126.995 236.059,128.294 236.834,129.437 237.61,130.538 238.386,131.524 239.161,132.391 239.937,133.167 240.713,133.893 241.489,134.535 242.264,135.127 243.04,135.644 243.816,136.112 244.591,136.54 245.367,136.926 246.143,137.414 246.919,137.607 247.694,137.882 248.47,138.143 249.246,138.387 250.021,138.618 250.797,138.826 251.573,139.03 252.349,139.213 253.124,139.391 253.9,139.562 254.676,139.705 255.451,139.853 256.227,139.988 257.003,140.16 257.779,140.306 258.554,140.443 259.33,140.561 260.106,140.72 260.881,140.841 261.657,140.969 262.433,141.1 263.209,141.215 263.984,141.343 264.76,141.465 265.536,141.587 266.311,141.713 267.087,141.688 267.863,141.98 268.639,142.127 269.414,142.259 270.19,142.315 270.966,142.191 271.741,142.554 272.517,142.669 273.293,142.792 274.069,142.908 274.844,143.023 275.62,143.15 276.396,143.261 277.171,143.378 277.947,143.494 278.723,143.608 279.499,143.725 280.274,143.805 281.05,143.951 281.826,144.072 282.601,144.184 283.377,144.296 284.153,144.462 284.929,144.564 285.704,144.7 286.48,144.751 287.256,144.862 288.031,144.972 288.807,145.039 289.583,145.152 290.359,145.249 291.134,145.353 291.91,145.489 292.686,145.648 293.461,145.753 294.237,145.8 295.013,145.922 295.789,146.082 296.564,146.189 297.34,146.283 298.116,146.39 298.891,146.499 299.667,146.602 300.443,146.705 301.219,146.7 301.994,146.91 302.77,147.018 303.546,147.261 304.321,147.189 305.097,147.33 305.873,147.426 306.649,147.527 307.424,147.633 308.2,147.736 308.976,147.84 309.751,147.945 310.527,148.043 311.303,148.148 312.079,148.245 312.854,148.346 313.63,148.446 314.406,148.545 315.181,148.64 315.957,148.741 316.733,149.016 317.509,148.965 318.284,149.088 319.06,149.196 319.836,149.229 320.611,149.068 321.387,149.424 322.163,149.567 322.939,149.645 323.714,149.692 324.49,149.793 325.266,149.712 326.041,149.956 326.817,150.027 327.593,150.133 328.369,150.225 329.144,150.368 329.92,150.417 330.696,150.476 331.471,150.648 332.247,150.743 333.023,150.831 333.799,150.923 334.574,151.012 335.35,151.099 336.126,151.192 336.901,151.283 337.677,151.415 338.453,151.464 339.229,151.555 340.004,151.641 340.78,151.729 341.556,151.814 342.331,151.904 343.107,151.974 343.883,152.098 344.659,152.193 345.434,152.261 346.21,152.486 346.986,152.419 347.761,152.509 348.537,152.597 349.313,152.677 350.089,152.686 350.864,152.814 351.64,152.874 352.416,152.971 353.191,153.052 353.967,153.185 354.743,153.32 355.519,153.427 356.294,153.448 357.07,153.522 357.846,153.599 358.621,153.679 359.397,153.763 360.173,153.844 360.949,153.921 361.724,154.003 362.5,154.085 363.276,154.165 364.051,154.247 364.827,154.325 365.603,154.404 366.379,154.485 367.154,154.563 367.93,154.639 368.706,154.723 369.481,154.797 370.257,154.872 371.033,154.951 371.809,155.033 372.584,155.107 373.36,155.184 374.136,155.26 374.911,155.34 375.687,155.41 376.463,155.49 377.239,155.562 378.014,155.517 378.79,155.733 379.566,155.825 380.341,155.904 381.117,155.972 381.893,156.042 382.669,156.091 383.444,156.157 384.22,156.236 384.996,156.306 385.771,156.421 386.547,156.514 387.323,156.569 388.099,156.644 388.874,156.666 389.65,156.642 390.426,156.81 391.201,156.877 391.977,156.95 392.753,156.989 393.529,157.104 394.304,157.167 395.08,157.23 395.856,157.298 396.631,157.371 397.407,157.427 398.183,157.507 398.959,157.634 399.734,157.725 400.51,157.713 401.286,157.779 402.061,165.278 402.837,170.494 403.613,174.522 404.389,177.573 405.164,180.175 405.94,182.349 406.716,184.376 407.491,186.316 408.267,188.34 409.043,190.576 409.819,192.938 410.594,195.499 411.37,198.289 412.146,201.387 412.921,204.786 413.697,208.377 414.473,212.203 415.249,216.303 416.024,220.527 416.8,224.987 417.576,229.613 418.351,234.513 419.127,239.368 419.903,244.426 420.679,249.654 421.454,254.964 422.23,260.235 423.006,265.674 423.781,271.171 424.557,276.732 425.333,275.252 426.109,275.48 426.884,277.228 427.66,279.755 428.436,282.899 429.211,286.554 429.987,290.335 430.763,294.174 431.539,297.941 432.314,301.569 433.09,305.023 433.866,308.079 434.641,311.083 435.417,313.742 436.193,316.143 436.969,318.193 437.744,320.079 438.52,321.704 439.296,323.133 440.071,324.256 440.847,325.302 441.623,326.132 442.399,326.782 443.174,327.296 443.95,328.073 444.726,327.95 445.501,328.107 446.277,328.186 447.053,328.188 447.829,328.101 448.604,327.953 449.38,327.751 450.156,327.502 450.931,327.217 451.707,326.897 452.483,326.546 453.259,326.17 454.034,325.784 454.81,325.368 455.586,324.946 456.361,324.502 457.137,324.061 457.913,323.603 458.689,323.152 459.464,322.664 460.24,322.194 461.016,321.72 461.791,321.241 462.567,320.765 463.343,320.29 464.119,319.806 464.894,319.328 465.67,318.845 466.446,318.369 467.221,317.704 467.997,317.439 468.773,316.987 469.549,316.518 470.324,316.042 471.1,315.577 471.876,307.738 472.651,301.996 473.427,297.637 474.203,294.049 474.979,291.211 475.754,288.662 476.53,286.129 477.306,283.785 478.081,281.367 478.857,278.73 479.633,275.983 480.409,273.043 481.184,269.824 481.96,266.462 482.736,262.634 483.511,258.739 484.287,254.469 485.063,250.1 485.839,245.4 486.614,240.614 487.39,242.924 488.166,243.005 488.941,241.617 489.717,239.185 490.493,236.129 491.269,232.603 492.044,228.821 492.82,224.909 493.596,220.999 494.371,217.213 495.147,213.491 495.923,210.066 496.699,206.752 497.474,203.809 498.25,201.028 499.026,198.487 499.801,196.154 500.577,194.115 501.353,192.227 502.129,190.663 502.904,189.081 503.68,187.758 504.456,186.64 505.231,185.607 506.007,184.698 506.783,183.912 507.559,183.247 508.334,182.665 509.11,182.162 509.886,181.733 510.661,181.346 511.437,181.016 512.213,180.731 512.989,180.504 513.764,180.312 514.54,180.15 515.316,180.006 516.091,179.893 516.867,179.787 517.643,179.71 518.419,179.723 519.194,179.66 519.97,179.591 520.746,179.484 521.521,179.46 522.297,179.444 523.073,179.422 523.849,179.434 524.624,179.417 525.4,179.376 526.176,179.218 526.951,179.375 527.727,179.362 528.503,179.339 529.279,179.333 530.054,179.332 530.83,179.327 531.606,179.328 532.381,179.316 533.157,179.315 533.933,179.313 534.709,179.313 535.484,179.126 536.26,179.33 537.036,179.355 537.811,179.371 538.587,179.34 539.363,179.354 540.139,179.28 540.914,179.283 541.69,179.276 542.466,179.266 543.241,179.272 544.017,179.257 544.793,179.252 545.569,179.231 546.344,179.223 547.12,179.221 547.896,179.236 548.671,179.228 549.447,179.224 550.223,179.216 550.999,179.215 551.774,179.206 552.55,179.325 553.326,179.217 554.101,179.22 554.877,179.203 555.653,179.183 556.429,179.167 557.204,179.169 557.98,179.159 558.756,179.16 559.531,178.853 560.307,178.9 561.083,179.161 561.859,179.168 562.634,179.146 563.41,179.131 564.186,179.125 564.961,179.118 565.737,179.124 566.513,179.12 567.289,179.123 568.064,179.109 568.84,179.116 569.616,179.101 570.391,179.087 571.167,179.077 571.943,179.069 572.719,179.077 573.494,179.07 574.27,179.068 575.046,178.898 575.821,179.086 576.597,179.107 577.373,179.114 578.149,179.123 578.924,179.091 579.7,179.109 580.476,179.034 581.251,179.028 582.027,179.029 582.803,179.02 583.579,179.01 584.354,179.01 585.13,179.01 585.906,179.003 586.681,178.996 587.457,178.971 588.233,178.965 589.009,178.96 589.784,178.712 590.56,178.835 591.336,178.995 592.111,178.948 592.887,178.948 593.663,178.957 594.439,178.95 595.214,178.949 595.99,178.947 596.766,178.941 597.541,178.947 598.317,178.934 599.093,178.927 599.869,178.894 600.644,178.902 601.42,178.922 602.196,178.916 602.971,178.906 603.747,178.904 604.523,178.901 605.299,178.891 606.074,178.893 606.85,178.886 607.626,178.883 608.401,178.88 609.177,178.874 609.953,178.879 610.729,178.877 611.504,178.867 612.28,178.861 613.056,178.854 613.831,178.846 614.607,178.84 615.383,178.839 616.159,178.836 616.934,178.836 617.71,178.743 618.486,178.826 619.261,178.824 620.037,178.818 620.813,178.819 621.589,178.809 622.364,178.917 623.14,178.795 623.916,178.796 624.691,178.803 625.467,178.795 626.243,178.797 627.019,178.803 627.794,178.786 628.57,178.777 629.346,178.809 630.121,178.775 630.897,178.771 631.673,178.766 632.449,178.767 633.224,178.752 634,178.754 " />
</g>

<g fill="none" stroke="#dd5400" stroke-opacity="1" stroke-width="0.833333" stroke-linecap="butt" stroke-linejoin="round" transform="matrix(0.6,0,0,0.6,-9.3,-5.85)"
font-family="Helvetica" font-size="18" font-weight="700" font-style="normal" 
>
<polyline fill="none" vector-effect="none" points="91,177.714 91.7757,177.714 92.5514,177.714 93.3271,177.714 94.1029,177.714 94.8786,177.714 95.6543,177.714 96.43,177.714 97.2057,177.714 97.9814,177.714 98.7571,177.714 99.5329,177.714 100.309,177.714 101.084,177.714 101.86,177.714 102.636,177.714 103.411,177.714 104.187,177.714 104.963,177.714 105.739,177.714 106.514,177.714 107.29,177.714 108.066,177.714 108.841,177.714 109.617,177.714 110.393,177.714 111.169,177.714 111.944,177.714 112.72,177.714 113.496,177.714 114.271,177.714 115.047,177.714 115.823,177.714 116.599,177.714 117.374,177.714 118.15,177.714 118.926,177.714 119.701,177.714 120.477,177.714 121.253,177.714 122.029,177.714 122.804,177.714 123.58,177.714 124.356,177.714 125.131,177.714 125.907,177.714 126.683,177.714 127.459,177.714 128.234,177.714 129.01,177.714 129.786,177.714 130.561,177.714 131.337,177.714 132.113,177.714 132.889,177.714 133.664,177.714 134.44,177.714 135.216,177.714 135.991,177.714 136.767,177.714 137.543,177.714 138.319,177.714 139.094,177.714 139.87,177.714 140.646,177.714 141.421,177.714 142.197,177.714 142.973,177.714 143.749,177.714 144.524,177.714 145.3,177.714 146.076,177.714 146.851,177.714 147.627,177.714 148.403,177.714 149.179,177.714 149.954,177.714 150.73,177.714 151.506,177.714 152.281,177.714 153.057,177.714 153.833,177.714 154.609,177.714 155.384,177.714 156.16,177.714 156.936,177.714 157.711,177.714 158.487,177.714 159.263,177.714 160.039,177.714 160.814,177.714 161.59,177.714 162.366,177.714 163.141,177.714 163.917,177.714 164.693,177.714 165.469,177.714 166.244,177.714 167.02,177.714 167.796,177.714 168.571,177.714 169.347,177.643 170.123,177.359 170.899,176.783 171.674,175.863 172.45,174.572 173.226,172.896 174.001,170.833 174.777,168.394 175.553,165.593 176.329,162.449 177.104,158.986 177.88,155.228 178.656,151.2 179.431,146.927 180.207,142.434 180.983,137.745 181.759,132.88 182.534,127.863 183.31,122.711 184.086,117.443 184.861,112.147 185.637,106.979 186.413,102.03 187.189,97.3628 187.964,93.0178 188.74,89.0175 189.516,85.3706 190.291,82.0757 191.067,79.1242 191.843,76.5017 192.619,74.1903 193.394,72.1701 194.17,70.4195 194.946,68.9166 195.721,67.64 196.497,66.5678 197.273,65.6801 198.049,64.958 198.824,64.3831 199.6,63.9393 200.376,63.6107 201.151,63.3838 201.927,63.2454 202.703,63.1847 203.479,63.1913 204.254,63.2564 205.03,63.372 205.806,63.5306 206.581,63.7262 207.357,63.953 208.133,64.2432 208.909,64.6632 209.684,65.2481 210.46,66.0199 211.236,66.9903 212.011,68.1632 212.787,69.5371 213.563,71.106 214.339,72.8611 215.114,74.7912 215.89,76.884 216.666,79.1263 217.441,81.505 218.217,84.007 218.993,86.6197 219.769,89.3309 220.544,92.1292 221.32,95.0039 222.096,97.9452 222.871,100.944 223.647,103.956 224.423,106.902 225.199,109.738 225.974,112.431 226.75,114.963 227.526,117.321 228.301,119.501 229.077,121.505 229.853,123.335 230.629,125 231.404,126.509 232.18,127.87 232.956,129.094 233.731,130.194 234.507,131.18 235.283,132.062 236.059,132.85 236.834,133.554 237.61,134.183 238.386,134.746 239.161,135.25 239.937,135.702 240.713,136.108 241.489,136.474 242.264,136.806 243.04,137.107 243.816,137.381 244.591,137.633 245.367,137.866 246.143,138.081 246.919,138.282 247.694,138.471 248.47,138.649 249.246,138.819 250.021,138.98 250.797,139.135 251.573,139.285 252.349,139.43 253.124,139.571 253.9,139.709 254.676,139.845 255.451,139.978 256.227,140.109 257.003,140.238 257.779,140.367 258.554,140.494 259.33,140.62 260.106,140.746 260.881,140.871 261.657,140.995 262.433,141.118 263.209,141.242 263.984,141.364 264.76,141.487 265.536,141.609 266.311,141.731 267.087,141.852 267.863,141.973 268.639,142.093 269.414,142.213 270.19,142.333 270.966,142.453 271.741,142.572 272.517,142.691 273.293,142.81 274.069,142.928 274.844,143.046 275.62,143.163 276.396,143.28 277.171,143.397 277.947,143.513 278.723,143.629 279.499,143.745 280.274,143.86 281.05,143.975 281.826,144.089 282.601,144.203 283.377,144.317 284.153,144.43 284.929,144.543 285.704,144.655 286.48,144.768 287.256,144.879 288.031,144.991 288.807,145.101 289.583,145.212 290.359,145.322 291.134,145.432 291.91,145.541 292.686,145.65 293.461,145.759 294.237,145.867 295.013,145.975 295.789,146.083 296.564,146.19 297.34,146.297 298.116,146.403 298.891,146.509 299.667,146.615 300.443,146.72 301.219,146.825 301.994,146.93 302.77,147.035 303.546,147.139 304.321,147.242 305.097,147.346 305.873,147.449 306.649,147.551 307.424,147.654 308.2,147.756 308.976,147.857 309.751,147.959 310.527,148.06 311.303,148.161 312.079,148.261 312.854,148.361 313.63,148.46 314.406,148.56 315.181,148.659 315.957,148.758 316.733,148.856 317.509,148.954 318.284,149.051 319.06,149.148 319.836,149.245 320.611,149.342 321.387,149.439 322.163,149.535 322.939,149.631 323.714,149.726 324.49,149.822 325.266,149.917 326.041,150.011 326.817,150.105 327.593,150.199 328.369,150.293 329.144,150.386 329.92,150.478 330.696,150.571 331.471,150.663 332.247,150.754 333.023,150.846 333.799,150.937 334.574,151.027 335.35,151.118 336.126,151.208 336.901,151.298 337.677,151.387 338.453,151.476 339.229,151.565 340.004,151.653 340.78,151.742 341.556,151.83 342.331,151.917 343.107,152.005 343.883,152.092 344.659,152.179 345.434,152.266 346.21,152.352 346.986,152.438 347.761,152.524 348.537,152.609 349.313,152.695 350.089,152.78 350.864,152.865 351.64,152.949 352.416,153.033 353.191,153.117 353.967,153.201 354.743,153.284 355.519,153.367 356.294,153.449 357.07,153.532 357.846,153.614 358.621,153.695 359.397,153.777 360.173,153.858 360.949,153.939 361.724,154.02 362.5,154.1 363.276,154.18 364.051,154.26 364.827,154.34 365.603,154.419 366.379,154.498 367.154,154.577 367.93,154.655 368.706,154.733 369.481,154.812 370.257,154.889 371.033,154.967 371.809,155.044 372.584,155.121 373.36,155.198 374.136,155.275 374.911,155.351 375.687,155.427 376.463,155.502 377.239,155.578 378.014,155.653 378.79,155.728 379.566,155.803 380.341,155.877 381.117,155.951 381.893,156.025 382.669,156.099 383.444,156.172 384.22,156.245 384.996,156.318 385.771,156.39 386.547,156.463 387.323,156.535 388.099,156.606 388.874,156.678 389.65,156.749 390.426,156.82 391.201,156.891 391.977,156.962 392.753,157.032 393.529,157.102 394.304,157.172 395.08,157.242 395.856,157.311 396.631,157.38 397.407,157.449 398.183,157.518 398.959,157.586 399.734,157.654 400.51,157.722 401.286,157.79 402.061,157.93 402.837,158.285 403.613,158.931 404.389,159.919 405.164,161.279 405.94,163.023 406.716,165.152 407.491,167.658 408.267,170.525 409.043,173.733 409.819,177.26 410.594,181.082 411.37,185.174 412.146,189.509 412.921,194.065 413.697,198.817 414.473,203.744 415.249,208.824 416.024,214.038 416.8,219.369 417.576,224.8 418.351,230.316 419.127,235.905 419.903,241.554 420.679,247.253 421.454,252.993 422.23,258.764 423.006,264.56 423.781,270.374 424.557,276.201 425.333,281.962 426.109,287.513 426.884,292.772 427.66,297.686 428.436,302.222 429.211,306.365 429.987,310.113 430.763,313.473 431.539,316.458 432.314,319.087 433.09,321.382 433.866,323.365 434.641,325.062 435.417,326.497 436.193,327.694 436.969,328.676 437.744,329.465 438.52,330.082 439.296,330.546 440.071,330.874 440.847,331.084 441.623,331.189 442.399,331.203 443.174,331.137 443.95,331.003 444.726,330.809 445.501,330.564 446.277,330.275 447.053,329.95 447.829,329.593 448.604,329.209 449.38,328.804 450.156,328.381 450.931,327.942 451.707,327.491 452.483,327.029 453.259,326.559 454.034,326.083 454.81,325.601 455.586,325.115 456.361,324.627 457.137,324.137 457.913,323.646 458.689,323.154 459.464,322.663 460.24,322.172 461.016,321.681 461.791,321.192 462.567,320.703 463.343,320.215 464.119,319.73 464.894,319.245 465.67,318.763 466.446,318.282 467.221,317.802 467.997,317.325 468.773,316.849 469.549,316.375 470.324,315.903 471.1,315.433 471.876,314.891 472.651,314.136 473.427,313.092 474.203,311.707 474.979,309.951 475.754,307.812 476.53,305.29 477.306,302.394 478.081,299.137 478.857,295.541 479.633,291.627 480.409,287.421 481.184,282.946 481.96,278.228 482.736,273.292 483.511,268.16 484.287,262.855 485.063,257.397 485.839,251.806 486.614,246.101 487.39,240.369 488.166,234.768 488.941,229.387 489.717,224.289 490.493,219.514 491.269,215.085 492.044,211.011 492.82,207.289 493.596,203.913 494.371,200.866 495.147,198.133 495.923,195.692 496.699,193.522 497.474,191.601 498.25,189.908 499.026,188.421 499.801,187.12 500.577,185.986 501.353,185 502.129,184.147 502.904,183.41 503.68,182.776 504.456,182.232 505.231,181.768 506.007,181.372 506.783,181.036 507.559,180.751 508.334,180.511 509.11,180.309 509.886,180.139 510.661,179.998 511.437,179.881 512.213,179.784 512.989,179.704 513.764,179.638 514.54,179.584 515.316,179.54 516.091,179.504 516.867,179.475 517.643,179.451 518.419,179.432 519.194,179.417 519.97,179.404 520.746,179.394 521.521,179.386 522.297,179.379 523.073,179.373 523.849,179.368 524.624,179.364 525.4,179.36 526.176,179.356 526.951,179.352 527.727,179.349 528.503,179.346 529.279,179.343 530.054,179.339 530.83,179.336 531.606,179.332 532.381,179.328 533.157,179.324 533.933,179.32 534.709,179.315 535.484,179.311 536.26,179.307 537.036,179.302 537.811,179.297 538.587,179.293 539.363,179.288 540.139,179.283 540.914,179.278 541.69,179.272 542.466,179.267 543.241,179.262 544.017,179.257 544.793,179.252 545.569,179.246 546.344,179.241 547.12,179.236 547.896,179.231 548.671,179.226 549.447,179.221 550.223,179.216 550.999,179.211 551.774,179.206 552.55,179.201 553.326,179.196 554.101,179.191 554.877,179.186 555.653,179.181 556.429,179.176 557.204,179.171 557.98,179.166 558.756,179.161 559.531,179.157 560.307,179.152 561.083,179.148 561.859,179.144 562.634,179.139 563.41,179.135 564.186,179.13 564.961,179.125 565.737,179.121 566.513,179.115 567.289,179.11 568.064,179.105 568.84,179.1 569.616,179.096 570.391,179.091 571.167,179.087 571.943,179.083 572.719,179.078 573.494,179.074 574.27,179.069 575.046,179.064 575.821,179.06 576.597,179.055 577.373,179.05 578.149,179.045 578.924,179.041 579.7,179.036 580.476,179.032 581.251,179.027 582.027,179.022 582.803,179.018 583.579,179.013 584.354,179.009 585.13,179.004 585.906,179 586.681,178.995 587.457,178.991 588.233,178.986 589.009,178.982 589.784,178.978 590.56,178.974 591.336,178.97 592.111,178.966 592.887,178.962 593.663,178.958 594.439,178.954 595.214,178.949 595.99,178.945 596.766,178.941 597.541,178.937 598.317,178.932 599.093,178.928 599.869,178.924 600.644,178.92 601.42,178.915 602.196,178.911 602.971,178.907 603.747,178.902 604.523,178.898 605.299,178.894 606.074,178.89 606.85,178.886 607.626,178.882 608.401,178.878 609.177,178.875 609.953,178.871 610.729,178.867 611.504,178.863 612.28,178.859 613.056,178.856 613.831,178.852 614.607,178.848 615.383,178.844 616.159,178.84 616.934,178.836 617.71,178.832 618.486,178.828 619.261,178.824 620.037,178.821 620.813,178.817 621.589,178.813 622.364,178.81 623.14,178.806 623.916,178.802 624.691,178.798 625.467,178.795 626.243,178.791 627.019,178.787 627.794,178.783 628.57,178.78 629.346,178.777 630.121,178.773 630.897,178.77 631.673,178.766 632.449,178.762 633.224,178.759 634,178.755 " />
</g>

<g fill="#ffffff" fill-opacity="1" stroke="none" transform="matrix(6e-05,0,0,6e-05,-9.3,-5.85)"
font-family="Helvetica" font-size="18" font-weight="700" font-style="normal" 
>
<path vector-effect="none" fill-rule="evenodd" d="M4.93e+06,450000 L4.93e+06,850000 L6.21e+06,850000 L6.21e+06,450000 L4.93e+06,450000"/>
</g>

<g fill="#1171be" fill-opacity="1" stroke="#1171be" stroke-opacity="1" stroke-width="0.833333" stroke-linecap="butt" stroke-linejoin="round" transform="matrix(0.6,0,0,0.6,-9.3,-5.85)"
font-family="Helvetica" font-size="18" font-weight="700" font-style="normal" 
>
<polyline fill="none" vector-effect="none" points="498.01,56.1041 548.108,56.1041 " />
</g>

<g fill="#dd5400" fill-opacity="1" stroke="#dd5400" stroke-opacity="1" stroke-width="0.833333" stroke-linecap="butt" stroke-linejoin="round" transform="matrix(0.6,0,0,0.6,-9.3,-5.85)"
font-family="Helvetica" font-size="18" font-weight="700" font-style="normal" 
>
<polyline fill="none" vector-effect="none" points="498.01,73.8959 548.108,73.8959 " />
</g>

<g fill="#212121" fill-opacity="1" stroke="#212121" stroke-opacity="1" stroke-width="1" stroke-linecap="square" stroke-linejoin="bevel" transform="matrix(0.6,0,0,0.6,321.819,30.8125)"
font-family="Helvetica" font-size="15" font-weight="400" font-style="normal" 
>
<text fill="#212121" fill-opacity="1" stroke="none" xml:space="preserve" x="0" y="0" font-family="Helvetica" font-size="15" font-weight="400" font-style="normal" 
 >Fahrzeug</text>
</g>

<g fill="#212121" fill-opacity="1" stroke="#212121" stroke-opacity="1" stroke-width="1" stroke-linecap="square" stroke-linejoin="bevel" transform="matrix(0.6,0,0,0.6,321.819,41.4875)"
font-family="Helvetica" font-size="15" font-weight="400" font-style="normal" 
>
<text fill="#212121" fill-opacity="1" stroke="none" xml:space="preserve" x="0" y="0" font-family="Helvetica" font-size="15" font-weight="400" font-style="normal" 
 >Gabel</text>
</g>

<g fill="none" stroke="#212121" stroke-opacity="1" stroke-width="0.833333" stroke-linecap="butt" stroke-linejoin="miter" stroke-miterlimit="2" transform="matrix(0.6,0,0,0.6,-9.3,-5.85)"
font-family="Helvetica" font-size="15" font-weight="400" font-style="normal" 
>
<path vector-effect="none" fill-rule="evenodd" d="M493,85 L493,45 L621,45 L621,85 L493,85"/>
</g>
</g>
</svg>
