<?xml version="1.0" encoding="UTF-8" standalone="no"?>
<svg width="134.056mm" height="87.4889mm"
 viewBox="0 0 380 248"
 xmlns="http://www.w3.org/2000/svg" xmlns:xlink="http://www.w3.org/1999/xlink"  version="1.2" baseProfile="tiny">
<title>Qt SVG Document</title>
<desc>MATLAB, The MathWorks, Inc. Version 25.1.0.2973910 R2025a Update 1</desc>
<defs>
</defs>
<g fill="none" stroke="black" stroke-width="1" fill-rule="evenodd" stroke-linecap="square" stroke-linejoin="bevel" >

<g fill="#ffffff" fill-opacity="1" stroke="none" transform="matrix(0.6,0,0,0.6,-7.1,-5.85)"
font-family="MS Shell Dlg 2" font-size="7.8" font-weight="400" font-style="normal" 
>
<path vector-effect="none" fill-rule="evenodd" d="M11,9 L645,9 L645,424 L11,424 L11,9"/>
</g>

<g fill="#ffffff" fill-opacity="1" stroke="none" transform="matrix(6e-05,0,0,6e-05,-7.1,-5.85)"
font-family="MS Shell Dlg 2" font-size="7.8" font-weight="400" font-style="normal" 
>
<path vector-effect="none" fill-rule="evenodd" d="M910000,320000 L910000,3.72e+06 L6.34e+06,3.72e+06 L6.34e+06,320000 L910000,320000"/>
</g>

<g fill="#212121" fill-opacity="0.14902" stroke="#212121" stroke-opacity="0.14902" stroke-width="0.833333" stroke-linecap="butt" stroke-linejoin="round" transform="matrix(0.6,0,0,0.6,-7.1,-5.85)"
font-family="MS Shell Dlg 2" font-size="7.8" font-weight="400" font-style="normal" 
>
<polyline fill="none" vector-effect="none" points="91,32 91,372 " />
<polyline fill="none" vector-effect="none" points="168.571,32 168.571,372 " />
<polyline fill="none" vector-effect="none" points="246.143,32 246.143,372 " />
<polyline fill="none" vector-effect="none" points="323.714,32 323.714,372 " />
<polyline fill="none" vector-effect="none" points="401.286,32 401.286,372 " />
<polyline fill="none" vector-effect="none" points="478.857,32 478.857,372 " />
<polyline fill="none" vector-effect="none" points="556.429,32 556.429,372 " />
<polyline fill="none" vector-effect="none" points="634,32 634,372 " />
<polyline fill="none" vector-effect="none" points="91,372 634,372 " />
<polyline fill="none" vector-effect="none" points="91,334.222 634,334.222 " />
<polyline fill="none" vector-effect="none" points="91,296.444 634,296.444 " />
<polyline fill="none" vector-effect="none" points="91,258.667 634,258.667 " />
<polyline fill="none" vector-effect="none" points="91,220.889 634,220.889 " />
<polyline fill="none" vector-effect="none" points="91,183.111 634,183.111 " />
<polyline fill="none" vector-effect="none" points="91,145.333 634,145.333 " />
<polyline fill="none" vector-effect="none" points="91,107.556 634,107.556 " />
<polyline fill="none" vector-effect="none" points="91,69.7778 634,69.7778 " />
<polyline fill="none" vector-effect="none" points="91,32 634,32 " />
</g>

<g fill="#212121" fill-opacity="1" stroke="#212121" stroke-opacity="1" stroke-width="1" stroke-linecap="square" stroke-linejoin="bevel" transform="matrix(0.6,0,0,0.6,194.2,243.95)"
font-family="Helvetica" font-size="18" font-weight="400" font-style="normal" 
>
<text fill="#212121" fill-opacity="1" stroke="none" xml:space="preserve" x="0" y="0" font-family="Helvetica" font-size="18" font-weight="400" font-style="normal" 
 >Zeit [s]</text>
</g>

<g fill="#212121" fill-opacity="1" stroke="#212121" stroke-opacity="1" stroke-width="0.833333" stroke-linecap="square" stroke-linejoin="round" transform="matrix(0.6,0,0,0.6,-7.1,-5.85)"
font-family="Helvetica" font-size="18" font-weight="400" font-style="normal" 
>
<polyline fill="none" vector-effect="none" points="91,372 634,372 " />
<polyline fill="none" vector-effect="none" points="91,32 634,32 " />
<polyline fill="none" vector-effect="none" points="91,372 91,366.57 " />
<polyline fill="none" vector-effect="none" points="91,37.43 91,32 " />
<polyline fill="none" vector-effect="none" points="168.571,372 168.571,366.57 " />
<polyline fill="none" vector-effect="none" points="168.571,37.43 168.571,32 " />
<polyline fill="none" vector-effect="none" points="246.143,372 246.143,366.57 " />
<polyline fill="none" vector-effect="none" points="246.143,37.43 246.143,32 " />
<polyline fill="none" vector-effect="none" points="323.714,372 323.714,366.57 " />
<polyline fill="none" vector-effect="none" points="323.714,37.43 323.714,32 " />
<polyline fill="none" vector-effect="none" points="401.286,372 401.286,366.57 " />
<polyline fill="none" vector-effect="none" points="401.286,37.43 401.286,32 " />
<polyline fill="none" vector-effect="none" points="478.857,372 478.857,366.57 " />
<polyline fill="none" vector-effect="none" points="478.857,37.43 478.857,32 " />
<polyline fill="none" vector-effect="none" points="556.429,372 556.429,366.57 " />
<polyline fill="none" vector-effect="none" points="556.429,37.43 556.429,32 " />
<polyline fill="none" vector-effect="none" points="634,372 634,366.57 " />
<polyline fill="none" vector-effect="none" points="634,37.43 634,32 " />
</g>

<g fill="#212121" fill-opacity="1" stroke="#212121" stroke-opacity="1" stroke-width="1" stroke-linecap="square" stroke-linejoin="bevel" transform="matrix(0.6,0,0,0.6,44.8,230.35)"
font-family="Helvetica" font-size="16" font-weight="400" font-style="normal" 
>
<text fill="#212121" fill-opacity="1" stroke="none" xml:space="preserve" x="0" y="0" font-family="Helvetica" font-size="16" font-weight="400" font-style="normal" 
 >0</text>
</g>

<g fill="#212121" fill-opacity="1" stroke="#212121" stroke-opacity="1" stroke-width="1" stroke-linecap="square" stroke-linejoin="bevel" transform="matrix(0.6,0,0,0.6,88.6429,230.35)"
font-family="Helvetica" font-size="16" font-weight="400" font-style="normal" 
>
<text fill="#212121" fill-opacity="1" stroke="none" xml:space="preserve" x="0" y="0" font-family="Helvetica" font-size="16" font-weight="400" font-style="normal" 
 >10</text>
</g>

<g fill="#212121" fill-opacity="1" stroke="#212121" stroke-opacity="1" stroke-width="1" stroke-linecap="square" stroke-linejoin="bevel" transform="matrix(0.6,0,0,0.6,135.186,230.35)"
font-family="Helvetica" font-size="16" font-weight="400" font-style="normal" 
>
<text fill="#212121" fill-opacity="1" stroke="none" xml:space="preserve" x="0" y="0" font-family="Helvetica" font-size="16" font-weight="400" font-style="normal" 
 >20</text>
</g>

<g fill="#212121" fill-opacity="1" stroke="#212121" stroke-opacity="1" stroke-width="1" stroke-linecap="square" stroke-linejoin="bevel" transform="matrix(0.6,0,0,0.6,181.729,230.35)"
font-family="Helvetica" font-size="16" font-weight="400" font-style="normal" 
>
<text fill="#212121" fill-opacity="1" stroke="none" xml:space="preserve" x="0" y="0" font-family="Helvetica" font-size="16" font-weight="400" font-style="normal" 
 >30</text>
</g>

<g fill="#212121" fill-opacity="1" stroke="#212121" stroke-opacity="1" stroke-width="1" stroke-linecap="square" stroke-linejoin="bevel" transform="matrix(0.6,0,0,0.6,228.271,230.35)"
font-family="Helvetica" font-size="16" font-weight="400" font-style="normal" 
>
<text fill="#212121" fill-opacity="1" stroke="none" xml:space="preserve" x="0" y="0" font-family="Helvetica" font-size="16" font-weight="400" font-style="normal" 
 >40</text>
</g>

<g fill="#212121" fill-opacity="1" stroke="#212121" stroke-opacity="1" stroke-width="1" stroke-linecap="square" stroke-linejoin="bevel" transform="matrix(0.6,0,0,0.6,274.814,230.35)"
font-family="Helvetica" font-size="16" font-weight="400" font-style="normal" 
>
<text fill="#212121" fill-opacity="1" stroke="none" xml:space="preserve" x="0" y="0" font-family="Helvetica" font-size="16" font-weight="400" font-style="normal" 
 >50</text>
</g>

<g fill="#212121" fill-opacity="1" stroke="#212121" stroke-opacity="1" stroke-width="1" stroke-linecap="square" stroke-linejoin="bevel" transform="matrix(0.6,0,0,0.6,321.357,230.35)"
font-family="Helvetica" font-size="16" font-weight="400" font-style="normal" 
>
<text fill="#212121" fill-opacity="1" stroke="none" xml:space="preserve" x="0" y="0" font-family="Helvetica" font-size="16" font-weight="400" font-style="normal" 
 >60</text>
</g>

<g fill="#212121" fill-opacity="1" stroke="#212121" stroke-opacity="1" stroke-width="1" stroke-linecap="square" stroke-linejoin="bevel" transform="matrix(0.6,0,0,0.6,367.9,230.35)"
font-family="Helvetica" font-size="16" font-weight="400" font-style="normal" 
>
<text fill="#212121" fill-opacity="1" stroke="none" xml:space="preserve" x="0" y="0" font-family="Helvetica" font-size="16" font-weight="400" font-style="normal" 
 >70</text>
</g>

<g fill="#212121" fill-opacity="1" stroke="#212121" stroke-opacity="1" stroke-width="1" stroke-linecap="square" stroke-linejoin="bevel" transform="matrix(0,-0.6,0.6,0,9.3,167.85)"
font-family="Helvetica" font-size="18" font-weight="400" font-style="normal" 
>
<text fill="#212121" fill-opacity="1" stroke="none" xml:space="preserve" x="0" y="0" font-family="Helvetica" font-size="18" font-weight="400" font-style="normal" 
 >Geschwindigkeit [m/s]</text>
</g>

<g fill="#212121" fill-opacity="1" stroke="#212121" stroke-opacity="1" stroke-width="0.833333" stroke-linecap="square" stroke-linejoin="round" transform="matrix(0.6,0,0,0.6,-7.1,-5.85)"
font-family="Helvetica" font-size="18" font-weight="400" font-style="normal" 
>
<polyline fill="none" vector-effect="none" points="91,372 91,32 " />
<polyline fill="none" vector-effect="none" points="634,372 634,32 " />
<polyline fill="none" vector-effect="none" points="91,372 96.43,372 " />
<polyline fill="none" vector-effect="none" points="628.57,372 634,372 " />
<polyline fill="none" vector-effect="none" points="91,334.222 96.43,334.222 " />
<polyline fill="none" vector-effect="none" points="628.57,334.222 634,334.222 " />
<polyline fill="none" vector-effect="none" points="91,296.444 96.43,296.444 " />
<polyline fill="none" vector-effect="none" points="628.57,296.444 634,296.444 " />
<polyline fill="none" vector-effect="none" points="91,258.667 96.43,258.667 " />
<polyline fill="none" vector-effect="none" points="628.57,258.667 634,258.667 " />
<polyline fill="none" vector-effect="none" points="91,220.889 96.43,220.889 " />
<polyline fill="none" vector-effect="none" points="628.57,220.889 634,220.889 " />
<polyline fill="none" vector-effect="none" points="91,183.111 96.43,183.111 " />
<polyline fill="none" vector-effect="none" points="628.57,183.111 634,183.111 " />
<polyline fill="none" vector-effect="none" points="91,145.333 96.43,145.333 " />
<polyline fill="none" vector-effect="none" points="628.57,145.333 634,145.333 " />
<polyline fill="none" vector-effect="none" points="91,107.556 96.43,107.556 " />
<polyline fill="none" vector-effect="none" points="628.57,107.556 634,107.556 " />
<polyline fill="none" vector-effect="none" points="91,69.7778 96.43,69.7778 " />
<polyline fill="none" vector-effect="none" points="628.57,69.7778 634,69.7778 " />
<polyline fill="none" vector-effect="none" points="91,32 96.43,32 " />
<polyline fill="none" vector-effect="none" points="628.57,32 634,32 " />
</g>

<g fill="#212121" fill-opacity="1" stroke="#212121" stroke-opacity="1" stroke-width="1" stroke-linecap="square" stroke-linejoin="bevel" transform="matrix(0.6,0,0,0.6,16.5,220.65)"
font-family="Helvetica" font-size="16" font-weight="400" font-style="normal" 
>
<text fill="#212121" fill-opacity="1" stroke="none" xml:space="preserve" x="0" y="0" font-family="Helvetica" font-size="16" font-weight="400" font-style="normal" 
 >-0.025</text>
</g>

<g fill="#212121" fill-opacity="1" stroke="#212121" stroke-opacity="1" stroke-width="1" stroke-linecap="square" stroke-linejoin="bevel" transform="matrix(0.6,0,0,0.6,21.9,197.983)"
font-family="Helvetica" font-size="16" font-weight="400" font-style="normal" 
>
<text fill="#212121" fill-opacity="1" stroke="none" xml:space="preserve" x="0" y="0" font-family="Helvetica" font-size="16" font-weight="400" font-style="normal" 
 >-0.02</text>
</g>

<g fill="#212121" fill-opacity="1" stroke="#212121" stroke-opacity="1" stroke-width="1" stroke-linecap="square" stroke-linejoin="bevel" transform="matrix(0.6,0,0,0.6,16.5,175.317)"
font-family="Helvetica" font-size="16" font-weight="400" font-style="normal" 
>
<text fill="#212121" fill-opacity="1" stroke="none" xml:space="preserve" x="0" y="0" font-family="Helvetica" font-size="16" font-weight="400" font-style="normal" 
 >-0.015</text>
</g>

<g fill="#212121" fill-opacity="1" stroke="#212121" stroke-opacity="1" stroke-width="1" stroke-linecap="square" stroke-linejoin="bevel" transform="matrix(0.6,0,0,0.6,21.9,152.65)"
font-family="Helvetica" font-size="16" font-weight="400" font-style="normal" 
>
<text fill="#212121" fill-opacity="1" stroke="none" xml:space="preserve" x="0" y="0" font-family="Helvetica" font-size="16" font-weight="400" font-style="normal" 
 >-0.01</text>
</g>

<g fill="#212121" fill-opacity="1" stroke="#212121" stroke-opacity="1" stroke-width="1" stroke-linecap="square" stroke-linejoin="bevel" transform="matrix(0.6,0,0,0.6,16.5,129.983)"
font-family="Helvetica" font-size="16" font-weight="400" font-style="normal" 
>
<text fill="#212121" fill-opacity="1" stroke="none" xml:space="preserve" x="0" y="0" font-family="Helvetica" font-size="16" font-weight="400" font-style="normal" 
 >-0.005</text>
</g>

<g fill="#212121" fill-opacity="1" stroke="#212121" stroke-opacity="1" stroke-width="1" stroke-linecap="square" stroke-linejoin="bevel" transform="matrix(0.6,0,0,0.6,38.1,107.317)"
font-family="Helvetica" font-size="16" font-weight="400" font-style="normal" 
>
<text fill="#212121" fill-opacity="1" stroke="none" xml:space="preserve" x="0" y="0" font-family="Helvetica" font-size="16" font-weight="400" font-style="normal" 
 >0</text>
</g>

<g fill="#212121" fill-opacity="1" stroke="#212121" stroke-opacity="1" stroke-width="1" stroke-linecap="square" stroke-linejoin="bevel" transform="matrix(0.6,0,0,0.6,19.5,84.65)"
font-family="Helvetica" font-size="16" font-weight="400" font-style="normal" 
>
<text fill="#212121" fill-opacity="1" stroke="none" xml:space="preserve" x="0" y="0" font-family="Helvetica" font-size="16" font-weight="400" font-style="normal" 
 >0.005</text>
</g>

<g fill="#212121" fill-opacity="1" stroke="#212121" stroke-opacity="1" stroke-width="1" stroke-linecap="square" stroke-linejoin="bevel" transform="matrix(0.6,0,0,0.6,24.9,61.9833)"
font-family="Helvetica" font-size="16" font-weight="400" font-style="normal" 
>
<text fill="#212121" fill-opacity="1" stroke="none" xml:space="preserve" x="0" y="0" font-family="Helvetica" font-size="16" font-weight="400" font-style="normal" 
 >0.01</text>
</g>

<g fill="#212121" fill-opacity="1" stroke="#212121" stroke-opacity="1" stroke-width="1" stroke-linecap="square" stroke-linejoin="bevel" transform="matrix(0.6,0,0,0.6,19.5,39.3167)"
font-family="Helvetica" font-size="16" font-weight="400" font-style="normal" 
>
<text fill="#212121" fill-opacity="1" stroke="none" xml:space="preserve" x="0" y="0" font-family="Helvetica" font-size="16" font-weight="400" font-style="normal" 
 >0.015</text>
</g>

<g fill="#212121" fill-opacity="1" stroke="#212121" stroke-opacity="1" stroke-width="1" stroke-linecap="square" stroke-linejoin="bevel" transform="matrix(0.6,0,0,0.6,24.9,16.65)"
font-family="Helvetica" font-size="16" font-weight="400" font-style="normal" 
>
<text fill="#212121" fill-opacity="1" stroke="none" xml:space="preserve" x="0" y="0" font-family="Helvetica" font-size="16" font-weight="400" font-style="normal" 
 >0.02</text>
</g>

<g fill="#212121" fill-opacity="1" stroke="#212121" stroke-opacity="1" stroke-width="1" stroke-linecap="square" stroke-linejoin="bevel" transform="matrix(0.6,0,0,0.6,91.9,9.3)"
font-family="Helvetica" font-size="18" font-weight="700" font-style="normal" 
>
<text fill="#212121" fill-opacity="1" stroke="none" xml:space="preserve" x="0" y="0" font-family="Helvetica" font-size="18" font-weight="700" font-style="normal" 
 >Geschwindigkeitsunterschied Gabel Fahrzeug</text>
</g>

<g fill="none" stroke="#1171be" stroke-opacity="1" stroke-width="0.833333" stroke-linecap="butt" stroke-linejoin="round" transform="matrix(0.6,0,0,0.6,-7.1,-5.85)"
font-family="Helvetica" font-size="18" font-weight="700" font-style="normal" 
>
<polyline fill="none" vector-effect="none" points="91,183.111 91.7757,183.111 92.5514,183.111 93.3271,183.111 94.1029,183.111 94.8786,183.111 95.6543,183.111 96.43,183.111 97.2057,183.111 97.9814,183.111 98.7571,183.111 99.5329,183.111 100.309,183.111 101.084,183.111 101.86,183.111 102.636,183.111 103.411,183.111 104.187,183.111 104.963,183.111 105.739,183.111 106.514,183.111 107.29,183.111 108.066,183.111 108.841,183.111 109.617,183.111 110.393,183.111 111.169,183.111 111.944,183.111 112.72,183.111 113.496,183.111 114.271,183.111 115.047,183.111 115.823,183.111 116.599,183.111 117.374,183.111 118.15,183.111 118.926,183.111 119.701,183.111 120.477,183.111 121.253,183.111 122.029,183.111 122.804,183.111 123.58,183.111 124.356,183.111 125.131,183.111 125.907,183.111 126.683,183.111 127.459,183.111 128.234,183.111 129.01,183.111 129.786,183.111 130.561,183.111 131.337,183.111 132.113,183.111 132.889,183.111 133.664,183.111 134.44,183.111 135.216,183.111 135.991,183.111 136.767,183.111 137.543,183.111 138.319,183.111 139.094,183.111 139.87,183.111 140.646,183.111 141.421,183.111 142.197,183.111 142.973,183.111 143.749,183.111 144.524,183.111 145.3,183.111 146.076,183.111 146.851,183.111 147.627,183.111 148.403,183.111 149.179,183.111 149.954,183.111 150.73,183.111 151.506,183.111 152.281,183.111 153.057,183.111 153.833,183.111 154.609,183.111 155.384,183.111 156.16,183.111 156.936,183.111 157.711,183.111 158.487,183.111 159.263,183.111 160.039,183.111 160.814,183.111 161.59,183.111 162.366,183.111 163.141,183.111 163.917,183.111 164.693,183.111 165.469,183.111 166.244,183.111 167.02,183.111 167.796,183.111 168.571,183.111 169.347,183.686 170.123,185.224 170.899,187.435 171.674,190.092 172.45,193.014 173.226,196.065 174.001,199.138 174.777,202.156 175.553,205.063 176.329,207.819 177.104,210.398 177.88,212.784 178.656,214.971 179.431,216.957 180.207,218.748 180.983,220.348 181.759,221.771 182.534,223.025 183.31,224.121 184.086,225.077 184.861,225.313 185.637,224.478 186.413,222.861 187.189,220.707 187.964,218.199 188.74,215.486 189.516,212.681 190.291,209.875 191.067,207.127 191.843,204.483 192.619,201.979 193.394,199.629 194.17,197.447 194.946,195.442 195.721,193.607 196.497,191.946 197.273,190.446 198.049,189.098 198.824,187.898 199.6,186.83 200.376,185.889 201.151,185.059 201.927,184.334 202.703,183.699 203.479,183.147 204.254,182.669 205.03,182.255 205.806,181.902 206.581,181.598 207.357,181.341 208.133,180.825 208.909,179.865 209.684,178.602 210.46,177.144 211.236,175.578 212.011,173.973 212.787,172.368 213.563,170.805 214.339,169.309 215.114,167.897 215.89,166.585 216.666,165.374 217.441,164.268 218.217,163.266 218.993,162.366 219.769,161.564 220.544,160.853 221.32,160.229 222.096,159.683 222.871,159.215 223.647,159.103 224.423,159.53 225.199,160.347 225.974,161.433 226.75,162.696 227.526,164.06 228.301,165.471 229.077,166.884 229.853,168.265 230.629,169.596 231.404,170.859 232.18,172.046 232.956,173.149 233.731,174.159 234.507,175.085 235.283,175.927 236.059,176.69 236.834,177.371 237.61,177.982 238.386,178.525 239.161,179.006 239.937,179.43 240.713,179.803 241.489,180.131 242.264,180.417 243.04,180.664 243.816,180.88 244.591,181.067 245.367,181.228 246.143,181.368 246.919,181.486 247.694,181.586 248.47,181.67 249.246,181.744 250.021,181.809 250.797,181.862 251.573,181.907 252.349,181.944 253.124,181.977 253.9,182.004 254.676,182.027 255.451,182.044 256.227,182.059 257.003,182.073 257.779,182.084 258.554,182.092 259.33,182.101 260.106,182.106 260.881,182.112 261.657,182.119 262.433,182.122 263.209,182.125 263.984,182.129 264.76,182.132 265.536,182.135 266.311,182.139 267.087,182.139 267.863,182.145 268.639,182.148 269.414,182.151 270.19,182.152 270.966,182.152 271.741,182.156 272.517,182.159 273.293,182.162 274.069,182.166 274.844,182.169 275.62,182.172 276.396,182.175 277.171,182.178 277.947,182.181 278.723,182.184 279.499,182.187 280.274,182.189 281.05,182.191 281.826,182.195 282.601,182.198 283.377,182.202 284.153,182.206 284.929,182.209 285.704,182.213 286.48,182.215 287.256,182.218 288.031,182.221 288.807,182.224 289.583,182.227 290.359,182.229 291.134,182.232 291.91,182.235 292.686,182.24 293.461,182.242 294.237,182.244 295.013,182.247 295.789,182.252 296.564,182.254 297.34,182.256 298.116,182.261 298.891,182.263 299.667,182.265 300.443,182.268 301.219,182.269 301.994,182.272 302.77,182.275 303.546,182.28 304.321,182.282 305.097,182.284 305.873,182.288 306.649,182.29 307.424,182.292 308.2,182.295 308.976,182.297 309.751,182.299 310.527,182.302 311.303,182.307 312.079,182.309 312.854,182.312 313.63,182.314 314.406,182.317 315.181,182.318 315.957,182.322 316.733,182.327 317.509,182.329 318.284,182.332 319.06,182.334 319.836,182.335 320.611,182.335 321.387,182.338 322.163,182.342 322.939,182.345 323.714,182.346 324.49,182.35 325.266,182.35 326.041,182.354 326.817,182.357 327.593,182.36 328.369,182.363 329.144,182.367 329.92,182.369 330.696,182.371 331.471,182.376 332.247,182.378 333.023,182.38 333.799,182.383 334.574,182.385 335.35,182.388 336.126,182.391 336.901,182.393 337.677,182.397 338.453,182.399 339.229,182.402 340.004,182.403 340.78,182.405 341.556,182.407 342.331,182.409 343.107,182.413 343.883,182.415 344.659,182.417 345.434,182.417 346.21,182.421 346.986,182.423 347.761,182.425 348.537,182.428 349.313,182.428 350.089,182.429 350.864,182.432 351.64,182.434 352.416,182.437 353.191,182.44 353.967,182.443 354.743,182.446 355.519,182.449 356.294,182.451 357.07,182.453 357.846,182.455 358.621,182.457 359.397,182.46 360.173,182.462 360.949,182.464 361.724,182.466 362.5,182.468 363.276,182.47 364.051,182.473 364.827,182.474 365.603,182.476 366.379,182.479 367.154,182.481 367.93,182.483 368.706,182.486 369.481,182.486 370.257,182.489 371.033,182.49 371.809,182.493 372.584,182.494 373.36,182.497 374.136,182.499 374.911,182.501 375.687,182.504 376.463,182.507 377.239,182.507 378.014,182.508 378.79,182.511 379.566,182.514 380.341,182.516 381.117,182.518 381.893,182.52 382.669,182.521 383.444,182.523 384.22,182.528 384.996,182.53 385.771,182.532 386.547,182.534 387.323,182.536 388.099,182.538 388.874,182.539 389.65,182.54 390.426,182.542 391.201,182.544 391.977,182.546 392.753,182.548 393.529,182.552 394.304,182.553 395.08,182.555 395.856,182.557 396.631,182.559 397.407,182.56 398.183,182.561 398.959,182.564 399.734,182.566 400.51,182.567 401.286,182.568 402.061,181.985 402.837,180.44 403.613,178.23 404.389,175.574 405.164,172.658 405.94,169.615 406.716,166.549 407.491,163.535 408.267,160.636 409.043,157.885 409.819,155.311 410.594,152.93 411.37,150.744 412.146,148.762 412.921,146.973 413.697,145.372 414.473,143.951 415.249,142.7 416.024,141.602 416.8,140.648 417.576,139.824 418.351,139.124 419.127,138.528 419.903,138.028 420.679,137.618 421.454,137.284 422.23,137.017 423.006,136.81 423.781,136.655 424.557,136.549 425.333,137.07 426.109,138.576 426.884,140.784 427.66,143.459 428.436,146.422 429.211,149.53 429.987,152.677 430.763,155.783 431.539,158.788 432.314,161.652 433.09,164.348 433.866,166.861 434.641,169.185 435.417,171.306 436.193,173.236 436.969,174.982 437.744,176.552 438.52,177.954 439.296,179.205 440.071,180.308 440.847,181.28 441.623,182.135 442.399,182.88 443.174,183.53 443.95,184.096 444.726,184.581 445.501,185 446.277,185.359 447.053,185.665 447.829,185.923 448.604,186.14 449.38,186.321 450.156,186.471 450.931,186.598 451.707,186.703 452.483,186.788 453.259,186.855 454.034,186.914 454.81,186.955 455.586,186.987 456.361,187.01 457.137,187.027 457.913,187.036 458.689,187.038 459.464,187.04 460.24,187.038 461.016,187.034 461.791,187.026 462.567,187.019 463.343,187.009 464.119,186.997 464.894,186.985 465.67,186.971 466.446,186.959 467.221,186.943 467.997,186.931 468.773,186.917 469.549,186.903 470.324,186.889 471.1,186.875 471.876,187.451 472.651,188.981 473.427,191.18 474.203,193.824 474.979,196.733 475.754,199.764 476.53,202.815 477.306,205.815 478.081,208.702 478.857,211.438 479.633,213.999 480.409,216.37 481.184,218.544 481.96,220.516 482.736,222.294 483.511,223.889 484.287,225.299 485.063,226.545 485.839,227.631 486.614,228.576 487.39,228.796 488.166,227.945 488.941,226.319 489.717,224.153 490.493,221.636 491.269,218.914 492.044,216.101 492.82,213.284 493.596,210.527 494.371,207.871 495.147,205.352 495.923,202.994 496.699,200.8 497.474,198.783 498.25,196.939 499.026,195.265 499.801,193.75 500.577,192.396 501.353,191.184 502.129,190.11 502.904,189.156 503.68,188.314 504.456,187.577 505.231,186.929 506.007,186.367 506.783,185.879 507.559,185.456 508.334,185.092 509.11,184.78 509.886,184.51 510.661,184.279 511.437,184.079 512.213,183.913 512.989,183.774 513.764,183.658 514.54,183.56 515.316,183.476 516.091,183.408 516.867,183.352 517.643,183.307 518.419,183.271 519.194,183.241 519.97,183.217 520.746,183.194 521.521,183.18 522.297,183.168 523.073,183.16 523.849,183.15 524.624,183.147 525.4,183.144 526.176,183.14 526.951,183.14 527.727,183.139 528.503,183.136 529.279,183.137 530.054,183.138 530.83,183.14 531.606,183.142 532.381,183.142 533.157,183.145 533.933,183.144 534.709,183.146 535.484,183.144 536.26,183.146 537.036,183.148 537.811,183.149 538.587,183.15 539.363,183.151 540.139,183.15 540.914,183.153 541.69,183.154 542.466,183.153 543.241,183.152 544.017,183.152 544.793,183.152 545.569,183.153 546.344,183.153 547.12,183.153 547.896,183.152 548.671,183.152 549.447,183.152 550.223,183.151 550.999,183.152 551.774,183.151 552.55,183.153 553.326,183.151 554.101,183.151 554.877,183.15 555.653,183.151 556.429,183.151 557.204,183.151 557.98,183.152 558.756,183.149 559.531,183.145 560.307,183.143 561.083,183.146 561.859,183.147 562.634,183.144 563.41,183.146 564.186,183.149 564.961,183.149 565.737,183.151 566.513,183.153 567.289,183.151 568.064,183.152 568.84,183.15 569.616,183.149 570.391,183.146 571.167,183.144 571.943,183.146 572.719,183.148 573.494,183.148 574.27,183.149 575.046,183.147 575.821,183.149 576.597,183.149 577.373,183.149 578.149,183.15 578.924,183.149 579.7,183.149 580.476,183.148 581.251,183.148 582.027,183.148 582.803,183.149 583.579,183.148 584.354,183.147 585.13,183.147 585.906,183.147 586.681,183.147 587.457,183.147 588.233,183.146 589.009,183.147 589.784,183.143 590.56,183.142 591.336,183.144 592.111,183.141 592.887,183.143 593.663,183.144 594.439,183.144 595.214,183.145 595.99,183.145 596.766,183.145 597.541,183.144 598.317,183.144 599.093,183.144 599.869,183.145 600.644,183.147 601.42,183.145 602.196,183.147 602.971,183.146 603.747,183.145 604.523,183.144 605.299,183.144 606.074,183.143 606.85,183.143 607.626,183.142 608.401,183.143 609.177,183.142 609.953,183.141 610.729,183.141 611.504,183.142 612.28,183.14 613.056,183.142 613.831,183.142 614.607,183.145 615.383,183.143 616.159,183.143 616.934,183.141 617.71,183.14 618.486,183.141 619.261,183.141 620.037,183.141 620.813,183.142 621.589,183.139 622.364,183.141 623.14,183.14 623.916,183.141 624.691,183.142 625.467,183.141 626.243,183.143 627.019,183.143 627.794,183.139 628.57,183.139 629.346,183.139 630.121,183.139 630.897,183.139 631.673,183.14 632.449,183.14 633.224,183.14 634,183.138 " />
</g>

<g fill="none" stroke="#dd5400" stroke-opacity="1" stroke-width="0.833333" stroke-linecap="butt" stroke-linejoin="round" transform="matrix(0.6,0,0,0.6,-7.1,-5.85)"
font-family="Helvetica" font-size="18" font-weight="700" font-style="normal" 
>
<polyline fill="none" vector-effect="none" points="91,183.111 91.7757,183.111 92.5514,183.111 93.3271,183.111 94.1029,183.111 94.8786,183.111 95.6543,183.111 96.43,183.111 97.2057,183.111 97.9814,183.111 98.7571,183.111 99.5329,183.111 100.309,183.111 101.084,183.111 101.86,183.111 102.636,183.111 103.411,183.111 104.187,183.111 104.963,183.111 105.739,183.111 106.514,183.111 107.29,183.111 108.066,183.111 108.841,183.111 109.617,183.111 110.393,183.111 111.169,183.111 111.944,183.111 112.72,183.111 113.496,183.111 114.271,183.111 115.047,183.111 115.823,183.111 116.599,183.111 117.374,183.111 118.15,183.111 118.926,183.111 119.701,183.111 120.477,183.111 121.253,183.111 122.029,183.111 122.804,183.111 123.58,183.111 124.356,183.111 125.131,183.111 125.907,183.111 126.683,183.111 127.459,183.111 128.234,183.111 129.01,183.111 129.786,183.111 130.561,183.111 131.337,183.111 132.113,183.111 132.889,183.111 133.664,183.111 134.44,183.111 135.216,183.111 135.991,183.111 136.767,183.111 137.543,183.111 138.319,183.111 139.094,183.111 139.87,183.111 140.646,183.111 141.421,183.111 142.197,183.111 142.973,183.111 143.749,183.111 144.524,183.111 145.3,183.111 146.076,183.111 146.851,183.111 147.627,183.111 148.403,183.111 149.179,183.111 149.954,183.111 150.73,183.111 151.506,183.111 152.281,183.111 153.057,183.111 153.833,183.111 154.609,183.111 155.384,183.111 156.16,183.111 156.936,183.111 157.711,183.111 158.487,183.111 159.263,183.111 160.039,183.111 160.814,183.111 161.59,183.111 162.366,183.111 163.141,183.111 163.917,183.111 164.693,183.111 165.469,183.111 166.244,183.111 167.02,183.111 167.796,183.111 168.571,183.111 169.347,184.438 170.123,188.657 170.899,195.538 171.674,204.745 172.45,215.875 173.226,228.466 174.001,242.016 174.777,256.006 175.553,269.914 176.329,283.236 177.104,295.503 177.88,306.294 178.656,315.254 179.431,322.103 180.207,326.64 180.983,328.754 181.759,328.421 182.534,325.705 183.31,320.751 184.086,313.779 184.861,303.522 185.637,289.254 186.413,271.318 187.189,250.446 187.964,227.461 188.74,203.217 189.516,178.619 190.291,154.542 191.067,131.82 191.843,111.222 192.619,93.4152 193.394,78.9515 194.17,68.2501 194.946,61.585 195.721,59.0838 196.497,60.7214 197.273,66.328 198.049,75.5987 198.824,88.108 199.6,103.328 200.376,120.649 201.151,139.405 201.927,158.898 202.703,178.421 203.479,197.289 204.254,214.856 205.03,230.541 205.806,243.844 206.581,254.364 207.357,261.807 208.133,265.03 208.909,263.662 209.684,257.902 210.46,247.933 211.236,234.216 212.011,217.344 212.787,198.012 213.563,176.98 214.339,155.044 215.114,133.012 215.89,111.672 216.666,91.7666 217.441,73.9684 218.217,58.8549 218.993,46.8942 219.769,38.4303 220.544,33.6751 221.32,32.7027 222.096,35.4527 222.871,41.7349 223.647,52.1764 224.423,66.6457 225.199,84.5977 225.974,105.454 226.75,128.389 227.526,152.541 228.301,177.028 229.077,200.965 229.853,223.562 230.629,244.038 231.404,261.726 232.18,276.081 232.956,286.69 233.731,293.282 234.507,295.735 235.283,294.079 236.059,288.485 236.834,279.258 237.61,266.825 238.386,251.711 239.161,234.525 239.937,215.926 240.713,196.61 241.489,177.28 242.264,158.615 243.04,141.256 243.816,125.778 244.591,112.674 245.367,102.341 246.143,95.0721 246.919,91.0357 247.694,90.2856 248.47,92.7581 249.246,98.2784 250.021,106.568 250.797,117.259 251.573,129.91 252.349,144.02 253.124,159.054 253.9,174.456 254.676,189.674 255.451,204.178 256.227,217.476 257.003,229.134 257.779,238.786 258.554,246.148 259.33,251.024 260.106,253.311 260.881,253 261.657,250.174 262.433,245.002 263.209,237.731 263.984,228.676 264.76,218.204 265.536,206.724 266.311,194.669 267.087,182.479 267.863,170.588 268.639,159.406 269.414,149.31 270.19,140.624 270.966,133.617 271.741,128.488 272.517,125.369 273.293,124.313 274.069,125.301 274.844,128.242 275.62,132.98 276.396,139.298 277.171,146.931 277.947,155.574 278.723,164.895 279.499,174.547 280.274,184.181 281.05,193.459 281.826,202.064 282.601,209.712 283.377,216.16 284.153,221.214 284.929,224.734 285.704,226.64 286.48,226.909 287.256,225.576 288.031,222.734 288.807,218.523 289.583,213.13 290.359,206.779 291.134,199.719 291.91,192.219 292.686,184.555 293.461,177.003 294.237,169.826 295.013,163.266 295.789,157.537 296.564,152.82 297.34,149.252 298.116,146.929 298.891,145.897 299.667,146.158 300.443,147.667 301.219,150.338 301.994,154.044 302.77,158.626 303.546,163.9 304.321,169.66 305.097,175.692 305.873,181.774 306.649,187.691 307.424,193.241 308.2,198.237 308.976,202.52 309.751,205.957 310.527,208.453 311.303,209.944 312.079,210.406 312.854,209.852 313.63,208.33 314.406,205.919 315.181,202.729 315.957,198.895 316.733,194.569 317.509,189.918 318.284,185.115 319.06,180.333 319.836,175.74 320.611,171.494 321.387,167.734 322.163,164.58 322.939,162.127 323.714,160.441 324.49,159.562 325.266,159.498 326.041,160.229 326.817,161.708 327.593,163.863 328.369,166.599 329.144,169.804 329.92,173.353 330.696,177.11 331.471,180.939 332.247,184.703 333.023,188.27 333.799,191.521 334.574,194.351 335.35,196.671 336.126,198.414 336.901,199.535 337.677,200.011 338.453,199.844 339.229,199.057 340.004,197.696 340.78,195.824 341.556,193.521 342.331,190.882 343.107,188.007 343.883,185.006 344.659,181.987 345.434,179.057 346.21,176.318 346.986,173.861 347.761,171.765 348.537,170.094 349.313,168.896 350.089,168.199 350.864,168.014 351.64,168.336 352.416,169.137 353.191,170.377 353.967,172.001 354.743,173.94 355.519,176.118 356.294,178.453 357.07,180.856 357.846,183.243 358.621,185.529 359.397,187.638 360.173,189.499 360.949,191.054 361.724,192.257 362.5,193.076 363.276,193.492 364.051,193.503 364.827,193.118 365.603,192.362 366.379,191.273 367.154,189.899 367.93,188.295 368.706,186.524 369.481,184.655 370.257,182.755 371.033,180.892 371.809,179.131 372.584,177.533 373.36,176.147 374.136,175.018 374.911,174.179 375.687,173.651 376.463,173.445 377.239,173.559 378.014,173.98 378.79,174.685 379.566,175.642 380.341,176.81 381.117,178.142 381.893,179.588 382.669,181.093 383.444,182.602 384.22,184.063 384.996,185.426 385.771,186.645 386.547,187.681 387.323,188.504 388.099,189.09 388.874,189.425 389.65,189.504 390.426,189.333 391.201,188.923 391.977,188.297 392.753,187.481 393.529,186.511 394.304,185.425 395.08,184.264 395.856,183.072 396.631,181.891 397.407,180.763 398.183,179.727 398.959,178.816 399.734,178.059 400.51,177.479 401.286,177.091 402.061,175.418 402.837,171.148 403.613,164.522 404.389,155.762 405.164,145.244 405.94,133.404 406.716,120.715 407.491,107.666 408.267,94.7402 409.043,82.4085 409.819,71.105 410.594,61.2159 411.37,53.0663 412.146,46.9112 412.921,42.9313 413.697,41.2213 414.473,41.7948 415.249,44.584 416.024,49.4469 416.8,56.1702 417.576,64.4817 418.351,74.06 419.127,84.548 419.903,95.5668 420.679,106.729 421.454,117.651 422.23,127.972 423.006,137.359 423.781,145.521 424.557,152.221 425.333,158.689 426.109,166.24 426.884,174.539 427.66,183.359 428.436,192.381 429.211,201.272 429.987,209.72 430.763,217.439 431.539,224.173 432.314,229.71 433.09,233.885 433.866,236.586 434.641,237.757 435.417,237.394 436.193,235.552 436.969,232.333 437.744,227.886 438.52,222.4 439.296,216.093 440.071,209.207 440.847,202 441.623,194.731 442.399,187.656 443.174,181.016 443.95,175.032 444.726,169.893 445.501,165.755 446.277,162.735 447.053,160.905 447.829,160.295 448.604,160.891 449.38,162.637 450.156,165.436 450.931,169.161 451.707,173.65 452.483,178.725 453.259,184.186 454.034,189.829 454.81,195.449 455.586,200.845 456.361,205.832 457.137,210.243 457.913,213.936 458.689,216.8 459.464,218.753 460.24,219.751 461.016,219.781 461.791,218.869 462.567,217.069 463.343,214.467 464.119,211.176 464.894,207.328 465.67,203.073 466.446,198.568 467.221,193.979 467.997,189.466 468.773,185.185 469.549,181.279 470.324,177.873 471.1,175.071 471.876,174.535 472.651,177.657 473.427,184.13 474.203,193.568 474.979,205.412 475.754,219.374 476.53,234.897 477.306,251.367 478.081,268.16 478.857,284.658 479.633,300.268 480.409,314.449 481.184,326.721 481.96,336.686 482.736,344.04 483.511,348.578 484.287,350.2 485.063,348.911 485.839,344.82 486.614,338.13 487.39,327.504 488.166,312.214 488.941,292.982 489.717,270.384 490.493,245.276 491.269,218.631 492.044,191.43 492.82,164.649 493.596,139.219 494.371,116 495.147,95.7481 495.923,79.0964 496.699,66.531 497.474,58.383 498.25,54.8168 499.026,55.8381 499.801,61.2803 500.577,70.8312 501.353,84.0403 502.129,100.343 502.904,119.08 503.68,139.524 504.456,160.909 505.231,182.455 506.007,203.399 506.783,223.019 507.559,240.662 508.334,255.759 509.11,267.85 509.886,276.591 510.661,281.768 511.437,283.295 512.213,281.219 512.989,275.715 513.764,267.07 514.54,255.672 515.316,242.001 516.091,226.602 516.867,210.065 517.643,193.002 518.419,176.03 519.194,159.744 519.97,144.701 520.746,131.395 521.521,120.247 522.297,111.592 523.073,105.666 523.849,102.602 524.624,102.431 525.4,105.079 526.176,110.375 526.951,118.06 527.727,127.797 528.503,139.189 529.279,151.787 530.054,165.115 530.83,178.684 531.606,192.008 532.381,204.627 533.157,216.113 533.933,226.095 534.709,234.262 535.484,240.376 536.26,244.278 537.036,245.893 537.811,245.225 538.587,242.362 539.363,237.465 540.139,230.763 540.914,222.54 541.69,213.13 542.466,202.896 543.241,192.221 544.017,181.495 544.793,171.096 545.569,161.381 546.344,152.676 547.12,145.257 547.896,139.353 548.671,135.129 549.447,132.687 550.223,132.066 550.999,133.237 551.774,136.11 552.55,140.536 553.326,146.318 554.101,153.214 554.877,160.951 555.653,169.234 556.429,177.756 557.204,186.209 557.98,194.299 558.756,201.751 559.531,208.319 560.307,213.797 561.083,218.021 561.859,220.878 562.634,222.304 563.41,222.289 564.186,220.873 564.961,218.145 565.737,214.237 566.513,209.318 567.289,203.591 568.064,197.279 568.84,190.621 569.616,183.862 570.391,177.241 571.167,170.989 571.943,165.317 572.719,160.407 573.494,156.412 574.27,153.448 575.046,151.591 575.821,150.876 576.597,151.298 577.373,152.809 578.149,155.327 578.924,158.736 579.7,162.891 580.476,167.625 581.251,172.756 582.027,178.093 582.803,183.441 583.579,188.612 584.354,193.429 585.13,197.732 585.906,201.384 586.681,204.273 587.457,206.32 588.233,207.475 589.009,207.722 589.784,207.079 590.56,205.591 591.336,203.334 592.111,200.41 592.887,196.94 593.663,193.061 594.439,188.921 595.214,184.674 595.99,180.472 596.766,176.461 597.541,172.779 598.317,169.545 599.093,166.862 599.869,164.808 600.644,163.44 601.42,162.787 602.196,162.851 602.971,163.612 603.747,165.023 604.523,167.017 605.299,169.507 606.074,172.393 606.85,175.561 607.626,178.893 608.401,182.267 609.177,185.563 609.953,188.666 610.729,191.474 611.504,193.895 612.28,195.854 613.056,197.297 613.831,198.185 614.607,198.503 615.383,198.255 616.159,197.467 616.934,196.18 617.71,194.454 618.486,192.361 619.261,189.986 620.037,187.421 620.813,184.76 621.589,182.1 622.364,179.535 623.14,177.153 623.916,175.033 624.691,173.242 625.467,171.835 626.243,170.85 627.019,170.312 627.794,170.225 628.57,170.582 629.346,171.357 630.121,172.513 630.897,173.997 631.673,175.748 632.449,177.698 633.224,179.772 634,181.895 " />
</g>

<g fill="#ffffff" fill-opacity="1" stroke="none" transform="matrix(6e-05,0,0,6e-05,-7.1,-5.85)"
font-family="Helvetica" font-size="18" font-weight="700" font-style="normal" 
>
<path vector-effect="none" fill-rule="evenodd" d="M4.85e+06,450000 L4.85e+06,850000 L6.21e+06,850000 L6.21e+06,450000 L4.85e+06,450000"/>
</g>

<g fill="#1171be" fill-opacity="1" stroke="#1171be" stroke-opacity="1" stroke-width="0.833333" stroke-linecap="butt" stroke-linejoin="round" transform="matrix(0.6,0,0,0.6,-7.1,-5.85)"
font-family="Helvetica" font-size="18" font-weight="700" font-style="normal" 
>
<polyline fill="none" vector-effect="none" points="490.009,56.1041 540.101,56.1041 " />
</g>

<g fill="#dd5400" fill-opacity="1" stroke="#dd5400" stroke-opacity="1" stroke-width="0.833333" stroke-linecap="butt" stroke-linejoin="round" transform="matrix(0.6,0,0,0.6,-7.1,-5.85)"
font-family="Helvetica" font-size="18" font-weight="700" font-style="normal" 
>
<polyline fill="none" vector-effect="none" points="490.009,73.8959 540.101,73.8959 " />
</g>

<g fill="#212121" fill-opacity="1" stroke="#212121" stroke-opacity="1" stroke-width="1" stroke-linecap="square" stroke-linejoin="bevel" transform="matrix(0.6,0,0,0.6,319.215,30.8125)"
font-family="Helvetica" font-size="15" font-weight="400" font-style="normal" 
>
<text fill="#212121" fill-opacity="1" stroke="none" xml:space="preserve" x="0" y="0" font-family="Helvetica" font-size="15" font-weight="400" font-style="normal" 
 >geregelt</text>
</g>

<g fill="#212121" fill-opacity="1" stroke="#212121" stroke-opacity="1" stroke-width="1" stroke-linecap="square" stroke-linejoin="bevel" transform="matrix(0.6,0,0,0.6,319.215,41.4875)"
font-family="Helvetica" font-size="15" font-weight="400" font-style="normal" 
>
<text fill="#212121" fill-opacity="1" stroke="none" xml:space="preserve" x="0" y="0" font-family="Helvetica" font-size="15" font-weight="400" font-style="normal" 
 >ungeregelt</text>
</g>

<g fill="none" stroke="#212121" stroke-opacity="1" stroke-width="0.833333" stroke-linecap="butt" stroke-linejoin="miter" stroke-miterlimit="2" transform="matrix(0.6,0,0,0.6,-7.1,-5.85)"
font-family="Helvetica" font-size="15" font-weight="400" font-style="normal" 
>
<path vector-effect="none" fill-rule="evenodd" d="M485,85 L485,45 L621,45 L621,85 L485,85"/>
</g>
</g>
</svg>
