<?xml version="1.0" encoding="UTF-8" standalone="no"?>
<svg width="130.175mm" height="87.4889mm"
 viewBox="0 0 369 248"
 xmlns="http://www.w3.org/2000/svg" xmlns:xlink="http://www.w3.org/1999/xlink"  version="1.2" baseProfile="tiny">
<title>Qt SVG Document</title>
<desc>MATLAB, The MathWorks, Inc. Version 25.1.0.2973910 R2025a Update 1</desc>
<defs>
</defs>
<g fill="none" stroke="black" stroke-width="1" fill-rule="evenodd" stroke-linecap="square" stroke-linejoin="bevel" >

<g fill="#ffffff" fill-opacity="1" stroke="none" transform="matrix(0.6,0,0,0.6,-18.5,-5.85001)"
font-family="MS Shell Dlg 2" font-size="7.8" font-weight="400" font-style="normal" 
>
<path vector-effect="none" fill-rule="evenodd" d="M30,9 L645,9 L645,424 L30,424 L30,9"/>
</g>

<g fill="#ffffff" fill-opacity="1" stroke="none" transform="matrix(6e-05,0,0,6e-05,-18.5,-5.85001)"
font-family="MS Shell Dlg 2" font-size="7.8" font-weight="400" font-style="normal" 
>
<path vector-effect="none" fill-rule="evenodd" d="M910000,320000 L910000,3.72e+06 L6.34e+06,3.72e+06 L6.34e+06,320000 L910000,320000"/>
</g>

<g fill="#212121" fill-opacity="0.14902" stroke="#212121" stroke-opacity="0.14902" stroke-width="0.833333" stroke-linecap="butt" stroke-linejoin="round" transform="matrix(0.6,0,0,0.6,-18.5,-5.85001)"
font-family="MS Shell Dlg 2" font-size="7.8" font-weight="400" font-style="normal" 
>
<polyline fill="none" vector-effect="none" points="91,32 91,372 " />
<polyline fill="none" vector-effect="none" points="168.571,32 168.571,372 " />
<polyline fill="none" vector-effect="none" points="246.143,32 246.143,372 " />
<polyline fill="none" vector-effect="none" points="323.714,32 323.714,372 " />
<polyline fill="none" vector-effect="none" points="401.286,32 401.286,372 " />
<polyline fill="none" vector-effect="none" points="478.857,32 478.857,372 " />
<polyline fill="none" vector-effect="none" points="556.429,32 556.429,372 " />
<polyline fill="none" vector-effect="none" points="634,32 634,372 " />
<polyline fill="none" vector-effect="none" points="91,372 634,372 " />
<polyline fill="none" vector-effect="none" points="91,304 634,304 " />
<polyline fill="none" vector-effect="none" points="91,236 634,236 " />
<polyline fill="none" vector-effect="none" points="91,168 634,168 " />
<polyline fill="none" vector-effect="none" points="91,100 634,100 " />
<polyline fill="none" vector-effect="none" points="91,32 634,32 " />
</g>

<g fill="#212121" fill-opacity="1" stroke="#212121" stroke-opacity="1" stroke-width="1" stroke-linecap="square" stroke-linejoin="bevel" transform="matrix(0.6,0,0,0.6,182.8,243.95)"
font-family="Helvetica" font-size="18" font-weight="400" font-style="normal" 
>
<text fill="#212121" fill-opacity="1" stroke="none" xml:space="preserve" x="0" y="0" font-family="Helvetica" font-size="18" font-weight="400" font-style="normal" 
 >Zeit [s]</text>
</g>

<g fill="#212121" fill-opacity="1" stroke="#212121" stroke-opacity="1" stroke-width="0.833333" stroke-linecap="square" stroke-linejoin="round" transform="matrix(0.6,0,0,0.6,-18.5,-5.85001)"
font-family="Helvetica" font-size="18" font-weight="400" font-style="normal" 
>
<polyline fill="none" vector-effect="none" points="91,372 634,372 " />
<polyline fill="none" vector-effect="none" points="91,32 634,32 " />
<polyline fill="none" vector-effect="none" points="91,372 91,366.57 " />
<polyline fill="none" vector-effect="none" points="91,37.43 91,32 " />
<polyline fill="none" vector-effect="none" points="168.571,372 168.571,366.57 " />
<polyline fill="none" vector-effect="none" points="168.571,37.43 168.571,32 " />
<polyline fill="none" vector-effect="none" points="246.143,372 246.143,366.57 " />
<polyline fill="none" vector-effect="none" points="246.143,37.43 246.143,32 " />
<polyline fill="none" vector-effect="none" points="323.714,372 323.714,366.57 " />
<polyline fill="none" vector-effect="none" points="323.714,37.43 323.714,32 " />
<polyline fill="none" vector-effect="none" points="401.286,372 401.286,366.57 " />
<polyline fill="none" vector-effect="none" points="401.286,37.43 401.286,32 " />
<polyline fill="none" vector-effect="none" points="478.857,372 478.857,366.57 " />
<polyline fill="none" vector-effect="none" points="478.857,37.43 478.857,32 " />
<polyline fill="none" vector-effect="none" points="556.429,372 556.429,366.57 " />
<polyline fill="none" vector-effect="none" points="556.429,37.43 556.429,32 " />
<polyline fill="none" vector-effect="none" points="634,372 634,366.57 " />
<polyline fill="none" vector-effect="none" points="634,37.43 634,32 " />
</g>

<g fill="#212121" fill-opacity="1" stroke="#212121" stroke-opacity="1" stroke-width="1" stroke-linecap="square" stroke-linejoin="bevel" transform="matrix(0.6,0,0,0.6,33.4,230.35)"
font-family="Helvetica" font-size="16" font-weight="400" font-style="normal" 
>
<text fill="#212121" fill-opacity="1" stroke="none" xml:space="preserve" x="0" y="0" font-family="Helvetica" font-size="16" font-weight="400" font-style="normal" 
 >0</text>
</g>

<g fill="#212121" fill-opacity="1" stroke="#212121" stroke-opacity="1" stroke-width="1" stroke-linecap="square" stroke-linejoin="bevel" transform="matrix(0.6,0,0,0.6,77.2429,230.35)"
font-family="Helvetica" font-size="16" font-weight="400" font-style="normal" 
>
<text fill="#212121" fill-opacity="1" stroke="none" xml:space="preserve" x="0" y="0" font-family="Helvetica" font-size="16" font-weight="400" font-style="normal" 
 >10</text>
</g>

<g fill="#212121" fill-opacity="1" stroke="#212121" stroke-opacity="1" stroke-width="1" stroke-linecap="square" stroke-linejoin="bevel" transform="matrix(0.6,0,0,0.6,123.786,230.35)"
font-family="Helvetica" font-size="16" font-weight="400" font-style="normal" 
>
<text fill="#212121" fill-opacity="1" stroke="none" xml:space="preserve" x="0" y="0" font-family="Helvetica" font-size="16" font-weight="400" font-style="normal" 
 >20</text>
</g>

<g fill="#212121" fill-opacity="1" stroke="#212121" stroke-opacity="1" stroke-width="1" stroke-linecap="square" stroke-linejoin="bevel" transform="matrix(0.6,0,0,0.6,170.329,230.35)"
font-family="Helvetica" font-size="16" font-weight="400" font-style="normal" 
>
<text fill="#212121" fill-opacity="1" stroke="none" xml:space="preserve" x="0" y="0" font-family="Helvetica" font-size="16" font-weight="400" font-style="normal" 
 >30</text>
</g>

<g fill="#212121" fill-opacity="1" stroke="#212121" stroke-opacity="1" stroke-width="1" stroke-linecap="square" stroke-linejoin="bevel" transform="matrix(0.6,0,0,0.6,216.871,230.35)"
font-family="Helvetica" font-size="16" font-weight="400" font-style="normal" 
>
<text fill="#212121" fill-opacity="1" stroke="none" xml:space="preserve" x="0" y="0" font-family="Helvetica" font-size="16" font-weight="400" font-style="normal" 
 >40</text>
</g>

<g fill="#212121" fill-opacity="1" stroke="#212121" stroke-opacity="1" stroke-width="1" stroke-linecap="square" stroke-linejoin="bevel" transform="matrix(0.6,0,0,0.6,263.414,230.35)"
font-family="Helvetica" font-size="16" font-weight="400" font-style="normal" 
>
<text fill="#212121" fill-opacity="1" stroke="none" xml:space="preserve" x="0" y="0" font-family="Helvetica" font-size="16" font-weight="400" font-style="normal" 
 >50</text>
</g>

<g fill="#212121" fill-opacity="1" stroke="#212121" stroke-opacity="1" stroke-width="1" stroke-linecap="square" stroke-linejoin="bevel" transform="matrix(0.6,0,0,0.6,309.957,230.35)"
font-family="Helvetica" font-size="16" font-weight="400" font-style="normal" 
>
<text fill="#212121" fill-opacity="1" stroke="none" xml:space="preserve" x="0" y="0" font-family="Helvetica" font-size="16" font-weight="400" font-style="normal" 
 >60</text>
</g>

<g fill="#212121" fill-opacity="1" stroke="#212121" stroke-opacity="1" stroke-width="1" stroke-linecap="square" stroke-linejoin="bevel" transform="matrix(0.6,0,0,0.6,356.5,230.35)"
font-family="Helvetica" font-size="16" font-weight="400" font-style="normal" 
>
<text fill="#212121" fill-opacity="1" stroke="none" xml:space="preserve" x="0" y="0" font-family="Helvetica" font-size="16" font-weight="400" font-style="normal" 
 >70</text>
</g>

<g fill="#212121" fill-opacity="1" stroke="#212121" stroke-opacity="1" stroke-width="1" stroke-linecap="square" stroke-linejoin="bevel" transform="matrix(0,-0.6,0.6,0,9.3,167.85)"
font-family="Helvetica" font-size="18" font-weight="400" font-style="normal" 
>
<text fill="#212121" fill-opacity="1" stroke="none" xml:space="preserve" x="0" y="0" font-family="Helvetica" font-size="18" font-weight="400" font-style="normal" 
 >Geschwindigkeit [m/s]</text>
</g>

<g fill="#212121" fill-opacity="1" stroke="#212121" stroke-opacity="1" stroke-width="0.833333" stroke-linecap="square" stroke-linejoin="round" transform="matrix(0.6,0,0,0.6,-18.5,-5.85001)"
font-family="Helvetica" font-size="18" font-weight="400" font-style="normal" 
>
<polyline fill="none" vector-effect="none" points="91,372 91,32 " />
<polyline fill="none" vector-effect="none" points="634,372 634,32 " />
<polyline fill="none" vector-effect="none" points="91,372 96.43,372 " />
<polyline fill="none" vector-effect="none" points="628.57,372 634,372 " />
<polyline fill="none" vector-effect="none" points="91,304 96.43,304 " />
<polyline fill="none" vector-effect="none" points="628.57,304 634,304 " />
<polyline fill="none" vector-effect="none" points="91,236 96.43,236 " />
<polyline fill="none" vector-effect="none" points="628.57,236 634,236 " />
<polyline fill="none" vector-effect="none" points="91,168 96.43,168 " />
<polyline fill="none" vector-effect="none" points="628.57,168 634,168 " />
<polyline fill="none" vector-effect="none" points="91,100 96.43,100 " />
<polyline fill="none" vector-effect="none" points="628.57,100 634,100 " />
<polyline fill="none" vector-effect="none" points="91,32 96.43,32 " />
<polyline fill="none" vector-effect="none" points="628.57,32 634,32 " />
</g>

<g fill="#212121" fill-opacity="1" stroke="#212121" stroke-opacity="1" stroke-width="1" stroke-linecap="square" stroke-linejoin="bevel" transform="matrix(0.6,0,0,0.6,15.9,220.65)"
font-family="Helvetica" font-size="16" font-weight="400" font-style="normal" 
>
<text fill="#212121" fill-opacity="1" stroke="none" xml:space="preserve" x="0" y="0" font-family="Helvetica" font-size="16" font-weight="400" font-style="normal" 
 >-0.5</text>
</g>

<g fill="#212121" fill-opacity="1" stroke="#212121" stroke-opacity="1" stroke-width="1" stroke-linecap="square" stroke-linejoin="bevel" transform="matrix(0.6,0,0,0.6,26.7,179.85)"
font-family="Helvetica" font-size="16" font-weight="400" font-style="normal" 
>
<text fill="#212121" fill-opacity="1" stroke="none" xml:space="preserve" x="0" y="0" font-family="Helvetica" font-size="16" font-weight="400" font-style="normal" 
 >0</text>
</g>

<g fill="#212121" fill-opacity="1" stroke="#212121" stroke-opacity="1" stroke-width="1" stroke-linecap="square" stroke-linejoin="bevel" transform="matrix(0.6,0,0,0.6,18.9,139.05)"
font-family="Helvetica" font-size="16" font-weight="400" font-style="normal" 
>
<text fill="#212121" fill-opacity="1" stroke="none" xml:space="preserve" x="0" y="0" font-family="Helvetica" font-size="16" font-weight="400" font-style="normal" 
 >0.5</text>
</g>

<g fill="#212121" fill-opacity="1" stroke="#212121" stroke-opacity="1" stroke-width="1" stroke-linecap="square" stroke-linejoin="bevel" transform="matrix(0.6,0,0,0.6,26.7,98.25)"
font-family="Helvetica" font-size="16" font-weight="400" font-style="normal" 
>
<text fill="#212121" fill-opacity="1" stroke="none" xml:space="preserve" x="0" y="0" font-family="Helvetica" font-size="16" font-weight="400" font-style="normal" 
 >1</text>
</g>

<g fill="#212121" fill-opacity="1" stroke="#212121" stroke-opacity="1" stroke-width="1" stroke-linecap="square" stroke-linejoin="bevel" transform="matrix(0.6,0,0,0.6,18.9,57.45)"
font-family="Helvetica" font-size="16" font-weight="400" font-style="normal" 
>
<text fill="#212121" fill-opacity="1" stroke="none" xml:space="preserve" x="0" y="0" font-family="Helvetica" font-size="16" font-weight="400" font-style="normal" 
 >1.5</text>
</g>

<g fill="#212121" fill-opacity="1" stroke="#212121" stroke-opacity="1" stroke-width="1" stroke-linecap="square" stroke-linejoin="bevel" transform="matrix(0.6,0,0,0.6,26.7,16.65)"
font-family="Helvetica" font-size="16" font-weight="400" font-style="normal" 
>
<text fill="#212121" fill-opacity="1" stroke="none" xml:space="preserve" x="0" y="0" font-family="Helvetica" font-size="16" font-weight="400" font-style="normal" 
 >2</text>
</g>

<g fill="#212121" fill-opacity="1" stroke="#212121" stroke-opacity="1" stroke-width="1" stroke-linecap="square" stroke-linejoin="bevel" transform="matrix(0.6,0,0,0.6,128.8,9.3)"
font-family="Helvetica" font-size="18" font-weight="700" font-style="normal" 
>
<text fill="#212121" fill-opacity="1" stroke="none" xml:space="preserve" x="0" y="0" font-family="Helvetica" font-size="18" font-weight="700" font-style="normal" 
 >Geschwindigkeit des Gabel</text>
</g>

<g fill="none" stroke="#1171be" stroke-opacity="1" stroke-width="0.833333" stroke-linecap="butt" stroke-linejoin="round" transform="matrix(0.6,0,0,0.6,-18.5,-5.85001)"
font-family="Helvetica" font-size="18" font-weight="700" font-style="normal" 
>
<polyline fill="none" vector-effect="none" points="91,304 91.7757,304 92.5514,304 93.3271,304 94.1029,304 94.8786,304 95.6543,304 96.43,304 97.2057,304 97.9814,304 98.7571,304 99.5329,304 100.309,304 101.084,304 101.86,304 102.636,304 103.411,304 104.187,304 104.963,304 105.739,304 106.514,304 107.29,304 108.066,304 108.841,304 109.617,304 110.393,304 111.169,304 111.944,304 112.72,304 113.496,304 114.271,304 115.047,304 115.823,304 116.599,304 117.374,304 118.15,304 118.926,304 119.701,304 120.477,304 121.253,304 122.029,304 122.804,304 123.58,304 124.356,304 125.131,304 125.907,304 126.683,304 127.459,304 128.234,304 129.01,304 129.786,304 130.561,304 131.337,304 132.113,304 132.889,304 133.664,304 134.44,304 135.216,304 135.991,304 136.767,304 137.543,304 138.319,304 139.094,304 139.87,304 140.646,304 141.421,304 142.197,304 142.973,304 143.749,304 144.524,304 145.3,304 146.076,304 146.851,304 147.627,304 148.403,304 149.179,304 149.954,304 150.73,304 151.506,304 152.281,304 153.057,304 153.833,304 154.609,304 155.384,304 156.16,304 156.936,304 157.711,304 158.487,304 159.263,304 160.039,304 160.814,304 161.59,304 162.366,304 163.141,304 163.917,304 164.693,304 165.469,304 166.244,304 167.02,304 167.796,304 168.571,304 169.347,304 170.123,303.997 170.899,303.988 171.674,303.969 172.45,303.935 173.226,303.88 174.001,303.798 174.777,303.685 175.553,303.535 176.329,303.344 177.104,303.107 177.88,302.818 178.656,302.476 179.431,302.075 180.207,301.613 180.983,301.086 181.759,300.493 182.534,299.83 183.31,299.096 184.086,298.289 184.861,297.408 185.637,296.454 186.413,295.429 187.189,294.336 187.964,293.18 188.74,291.966 189.516,290.699 190.291,289.382 191.067,288.022 191.843,286.623 192.619,285.19 193.394,283.726 194.17,282.236 194.946,280.723 195.721,279.191 196.497,277.642 197.273,276.079 198.049,274.506 198.824,272.923 199.6,271.333 200.376,269.738 201.151,268.139 201.927,266.537 202.703,264.934 203.479,263.33 204.254,261.727 205.03,260.126 205.806,258.526 206.581,256.929 207.357,255.335 208.133,253.744 208.909,252.158 209.684,250.579 210.46,249.01 211.236,247.453 212.011,245.91 212.787,244.386 213.563,242.882 214.339,241.402 215.114,239.947 215.89,238.521 216.666,237.125 217.441,235.761 218.217,234.431 218.993,233.138 219.769,231.881 220.544,230.663 221.32,229.485 222.096,228.348 222.871,227.252 223.647,226.198 224.423,225.186 225.199,224.215 225.974,223.282 226.75,222.386 227.526,221.525 228.301,220.695 229.077,219.894 229.853,219.12 230.629,218.37 231.404,217.643 232.18,216.936 232.956,216.247 233.731,215.574 234.507,214.916 235.283,214.271 236.059,213.637 236.834,213.014 237.61,212.4 238.386,211.795 239.161,211.197 239.937,210.606 240.713,210.02 241.489,209.44 242.264,208.865 243.04,208.295 243.816,207.728 244.591,207.165 245.367,206.606 246.143,206.05 246.919,205.496 247.694,204.945 248.47,204.397 249.246,203.852 250.021,203.308 250.797,202.767 251.573,202.228 252.349,201.691 253.124,201.156 253.9,200.623 254.676,200.092 255.451,199.562 256.227,199.035 257.003,198.51 257.779,197.986 258.554,197.464 259.33,196.944 260.106,196.425 260.881,195.908 261.657,195.394 262.433,194.88 263.209,194.369 263.984,193.859 264.76,193.351 265.536,192.845 266.311,192.34 267.087,191.837 267.863,191.336 268.639,190.836 269.414,190.339 270.19,189.842 270.966,189.348 271.741,188.855 272.517,188.364 273.293,187.874 274.069,187.387 274.844,186.9 275.62,186.416 276.396,185.933 277.171,185.452 277.947,184.972 278.723,184.494 279.499,184.018 280.274,183.543 281.05,183.07 281.826,182.598 282.601,182.128 283.377,181.66 284.153,181.193 284.929,180.728 285.704,180.264 286.48,179.802 287.256,179.342 288.031,178.883 288.807,178.426 289.583,177.97 290.359,177.515 291.134,177.063 291.91,176.612 292.686,176.162 293.461,175.714 294.237,175.267 295.013,174.822 295.789,174.378 296.564,173.936 297.34,173.496 298.116,173.057 298.891,172.619 299.667,172.183 300.443,171.748 301.219,171.315 301.994,170.883 302.77,170.453 303.546,170.024 304.321,169.597 305.097,169.171 305.873,168.747 306.649,168.324 307.424,167.902 308.2,167.482 308.976,167.063 309.751,166.646 310.527,166.23 311.303,165.816 312.079,165.403 312.854,164.991 313.63,164.581 314.406,164.172 315.181,163.764 315.957,163.358 316.733,162.954 317.509,162.55 318.284,162.148 319.06,161.748 319.836,161.348 320.611,160.951 321.387,160.554 322.163,160.159 322.939,159.765 323.714,159.372 324.49,158.981 325.266,158.592 326.041,158.203 326.817,157.816 327.593,157.43 328.369,157.045 329.144,156.662 329.92,156.28 330.696,155.9 331.471,155.52 332.247,155.142 333.023,154.765 333.799,154.39 334.574,154.016 335.35,153.643 336.126,153.271 336.901,152.9 337.677,152.531 338.453,152.163 339.229,151.796 340.004,151.431 340.78,151.067 341.556,150.704 342.331,150.342 343.107,149.981 343.883,149.622 344.659,149.264 345.434,148.907 346.21,148.551 346.986,148.197 347.761,147.844 348.537,147.492 349.313,147.141 350.089,146.791 350.864,146.443 351.64,146.095 352.416,145.749 353.191,145.404 353.967,145.06 354.743,144.718 355.519,144.376 356.294,144.036 357.07,143.697 357.846,143.359 358.621,143.022 359.397,142.686 360.173,142.352 360.949,142.019 361.724,141.686 362.5,141.355 363.276,141.025 364.051,140.696 364.827,140.368 365.603,140.042 366.379,139.716 367.154,139.392 367.93,139.068 368.706,138.746 369.481,138.425 370.257,138.105 371.033,137.786 371.809,137.468 372.584,137.151 373.36,136.835 374.136,136.52 374.911,136.207 375.687,135.894 376.463,135.583 377.239,135.272 378.014,134.963 378.79,134.655 379.566,134.347 380.341,134.041 381.117,133.736 381.893,133.432 382.669,133.129 383.444,132.826 384.22,132.525 384.996,132.225 385.771,131.926 386.547,131.628 387.323,131.331 388.099,131.035 388.874,130.74 389.65,130.446 390.426,130.153 391.201,129.861 391.977,129.57 392.753,129.28 393.529,128.991 394.304,128.703 395.08,128.416 395.856,128.13 396.631,127.845 397.407,127.56 398.183,127.277 398.959,126.995 399.734,126.714 400.51,126.433 401.286,126.154 402.061,125.876 402.837,125.601 403.613,125.333 404.389,125.076 405.164,124.836 405.94,124.618 406.716,124.427 407.491,124.268 408.267,124.147 409.043,124.068 409.819,124.037 410.594,124.057 411.37,124.133 412.146,124.267 412.921,124.464 413.697,124.726 414.473,125.056 415.249,125.455 416.024,125.927 416.8,126.473 417.576,127.094 418.351,127.792 419.127,128.567 419.903,129.421 420.679,130.355 421.454,131.369 422.23,132.463 423.006,133.638 423.781,134.895 424.557,136.233 425.333,137.652 426.109,139.151 426.884,140.725 427.66,142.371 428.436,144.082 429.211,145.855 429.987,147.683 430.763,149.56 431.539,151.482 432.314,153.444 433.09,155.439 433.866,157.465 434.641,159.516 435.417,161.589 436.193,163.681 436.969,165.788 437.744,167.907 438.52,170.036 439.296,172.173 440.071,174.315 440.847,176.46 441.623,178.608 442.399,180.757 443.174,182.906 443.95,185.053 444.726,187.198 445.501,189.339 446.277,191.477 447.053,193.611 447.829,195.74 448.604,197.863 449.38,199.981 450.156,202.094 450.931,204.2 451.707,206.3 452.483,208.394 453.259,210.481 454.034,212.561 454.81,214.635 455.586,216.702 456.361,218.762 457.137,220.816 457.913,222.862 458.689,224.902 459.464,226.934 460.24,228.96 461.016,230.979 461.791,232.991 462.567,234.997 463.343,236.995 464.119,238.987 464.894,240.971 465.67,242.95 466.446,244.921 467.221,246.885 467.997,248.843 468.773,250.795 469.549,252.739 470.324,254.677 471.1,256.608 471.876,258.533 472.651,260.448 473.427,262.351 474.203,264.237 474.979,266.101 475.754,267.938 476.53,269.742 477.306,271.509 478.081,273.232 478.857,274.907 479.633,276.529 480.409,278.095 481.184,279.6 481.96,281.04 482.736,282.413 483.511,283.716 484.287,284.945 485.063,286.099 485.839,287.175 486.614,288.173 487.39,289.09 488.166,289.928 488.941,290.689 489.717,291.376 490.493,291.994 491.269,292.548 492.044,293.042 492.82,293.482 493.596,293.872 494.371,294.217 495.147,294.522 495.923,294.79 496.699,295.026 497.474,295.234 498.25,295.416 499.026,295.576 499.801,295.717 500.577,295.84 501.353,295.949 502.129,296.045 502.904,296.13 503.68,296.205 504.456,296.272 505.231,296.332 506.007,296.386 506.783,296.435 507.559,296.479 508.334,296.52 509.11,296.557 509.886,296.593 510.661,296.626 511.437,296.657 512.213,296.686 512.989,296.715 513.764,296.742 514.54,296.769 515.316,296.794 516.091,296.82 516.867,296.845 517.643,296.869 518.419,296.893 519.194,296.917 519.97,296.941 520.746,296.964 521.521,296.988 522.297,297.011 523.073,297.035 523.849,297.058 524.624,297.081 525.4,297.104 526.176,297.127 526.951,297.15 527.727,297.173 528.503,297.196 529.279,297.219 530.054,297.241 530.83,297.264 531.606,297.287 532.381,297.309 533.157,297.332 533.933,297.354 534.709,297.377 535.484,297.399 536.26,297.422 537.036,297.444 537.811,297.466 538.587,297.488 539.363,297.51 540.139,297.532 540.914,297.554 541.69,297.576 542.466,297.598 543.241,297.619 544.017,297.641 544.793,297.663 545.569,297.684 546.344,297.706 547.12,297.727 547.896,297.748 548.671,297.769 549.447,297.79 550.223,297.811 550.999,297.832 551.774,297.853 552.55,297.874 553.326,297.895 554.101,297.916 554.877,297.936 555.653,297.957 556.429,297.977 557.204,297.998 557.98,298.018 558.756,298.038 559.531,298.059 560.307,298.079 561.083,298.099 561.859,298.119 562.634,298.139 563.41,298.159 564.186,298.179 564.961,298.199 565.737,298.218 566.513,298.238 567.289,298.258 568.064,298.277 568.84,298.296 569.616,298.316 570.391,298.335 571.167,298.354 571.943,298.374 572.719,298.393 573.494,298.412 574.27,298.431 575.046,298.45 575.821,298.469 576.597,298.487 577.373,298.506 578.149,298.525 578.924,298.543 579.7,298.562 580.476,298.58 581.251,298.599 582.027,298.617 582.803,298.635 583.579,298.654 584.354,298.672 585.13,298.69 585.906,298.708 586.681,298.726 587.457,298.744 588.233,298.762 589.009,298.779 589.784,298.797 590.56,298.815 591.336,298.832 592.111,298.85 592.887,298.867 593.663,298.885 594.439,298.902 595.214,298.92 595.99,298.937 596.766,298.954 597.541,298.971 598.317,298.988 599.093,299.005 599.869,299.022 600.644,299.039 601.42,299.056 602.196,299.073 602.971,299.089 603.747,299.106 604.523,299.123 605.299,299.139 606.074,299.156 606.85,299.172 607.626,299.189 608.401,299.205 609.177,299.221 609.953,299.237 610.729,299.254 611.504,299.27 612.28,299.286 613.056,299.302 613.831,299.318 614.607,299.334 615.383,299.349 616.159,299.365 616.934,299.381 617.71,299.397 618.486,299.412 619.261,299.428 620.037,299.443 620.813,299.459 621.589,299.474 622.364,299.49 623.14,299.505 623.916,299.52 624.691,299.535 625.467,299.55 626.243,299.566 627.019,299.581 627.794,299.596 628.57,299.611 629.346,299.625 630.121,299.64 630.897,299.655 631.673,299.67 632.449,299.685 633.224,299.699 634,299.714 " />
</g>

<g fill="none" stroke="#dd5400" stroke-opacity="1" stroke-width="0.833333" stroke-linecap="butt" stroke-linejoin="round" transform="matrix(0.6,0,0,0.6,-18.5,-5.85001)"
font-family="Helvetica" font-size="18" font-weight="700" font-style="normal" 
>
<polyline fill="none" vector-effect="none" points="91,304 91.7757,304 92.5514,304 93.3271,304 94.1029,304 94.8786,304 95.6543,304 96.43,304 97.2057,304 97.9814,304 98.7571,304 99.5329,304 100.309,304 101.084,304 101.86,304 102.636,304 103.411,304 104.187,304 104.963,304 105.739,304 106.514,304 107.29,304 108.066,304 108.841,304 109.617,304 110.393,304 111.169,304 111.944,304 112.72,304 113.496,304 114.271,304 115.047,304 115.823,304 116.599,304 117.374,304 118.15,304 118.926,304 119.701,304 120.477,304 121.253,304 122.029,304 122.804,304 123.58,304 124.356,304 125.131,304 125.907,304 126.683,304 127.459,304 128.234,304 129.01,304 129.786,304 130.561,304 131.337,304 132.113,304 132.889,304 133.664,304 134.44,304 135.216,304 135.991,304 136.767,304 137.543,304 138.319,304 139.094,304 139.87,304 140.646,304 141.421,304 142.197,304 142.973,304 143.749,304 144.524,304 145.3,304 146.076,304 146.851,304 147.627,304 148.403,304 149.179,304 149.954,304 150.73,304 151.506,304 152.281,304 153.057,304 153.833,304 154.609,304 155.384,304 156.16,304 156.936,304 157.711,304 158.487,304 159.263,304 160.039,304 160.814,304 161.59,304 162.366,304 163.141,304 163.917,304 164.693,304 165.469,304 166.244,304 167.02,304 167.796,304 168.571,304 169.347,303.999 170.123,303.993 170.899,303.97 171.674,303.915 172.45,303.811 173.226,303.636 174.001,303.367 174.777,302.978 175.553,302.446 176.329,301.746 177.104,300.857 177.88,299.758 178.656,298.432 179.431,296.866 180.207,295.051 180.983,292.981 181.759,290.655 182.534,288.077 183.31,285.254 184.086,282.196 184.861,278.91 185.637,275.439 186.413,271.802 187.189,268.032 187.964,264.171 188.74,260.258 189.516,256.337 190.291,252.453 191.067,248.645 191.843,244.951 192.619,241.404 193.394,238.032 194.17,234.857 194.946,231.892 195.721,229.144 196.497,226.613 197.273,224.292 198.049,222.167 198.824,220.217 199.6,218.417 200.376,216.737 201.151,215.147 201.927,213.611 202.703,212.096 203.479,210.566 204.254,208.992 205.03,207.343 205.806,205.595 206.581,203.727 207.357,201.725 208.133,199.57 208.909,197.276 209.684,194.851 210.46,192.305 211.236,189.659 212.011,186.942 212.787,184.185 213.563,181.426 214.339,178.702 215.114,176.052 215.89,173.515 216.666,171.126 217.441,168.918 218.217,166.92 218.993,165.154 219.769,163.638 220.544,162.382 221.32,161.391 222.096,160.661 222.871,160.185 223.647,159.96 224.423,159.939 225.199,160.095 225.974,160.402 226.75,160.819 227.526,161.305 228.301,161.817 229.077,162.312 229.853,162.75 230.629,163.093 231.404,163.309 232.18,163.368 232.956,163.252 233.731,162.944 234.507,162.44 235.283,161.738 236.059,160.846 236.834,159.779 237.61,158.557 238.386,157.204 239.161,155.75 239.937,154.226 240.713,152.666 241.489,151.105 242.264,149.575 243.04,148.109 243.816,146.735 244.591,145.477 245.367,144.354 246.143,143.384 246.919,142.573 247.694,141.926 248.47,141.439 249.246,141.106 250.021,140.914 250.797,140.844 251.573,140.876 252.349,140.985 253.124,141.147 253.9,141.333 254.676,141.516 255.451,141.672 256.227,141.775 257.003,141.803 257.779,141.74 258.554,141.569 259.33,141.281 260.106,140.871 260.881,140.337 261.657,139.683 262.433,138.916 263.209,138.049 263.984,137.095 264.76,136.073 265.536,135.002 266.311,133.903 267.087,132.798 267.863,131.707 268.639,130.652 269.414,129.65 270.19,128.718 270.966,127.869 271.741,127.113 272.517,126.457 273.293,125.904 274.069,125.455 274.844,125.103 275.62,124.844 276.396,124.665 277.171,124.555 277.947,124.499 278.723,124.481 279.499,124.484 280.274,124.491 281.05,124.485 281.826,124.451 282.601,124.375 283.377,124.244 284.153,124.049 284.929,123.783 285.704,123.441 286.48,123.022 287.256,122.527 288.031,121.96 288.807,121.328 289.583,120.64 290.359,119.906 291.134,119.138 291.91,118.349 292.686,117.554 293.461,116.764 294.237,115.993 295.013,115.254 295.789,114.556 296.564,113.908 297.34,113.319 298.116,112.791 298.891,112.329 299.667,111.932 300.443,111.599 301.219,111.325 301.994,111.105 302.77,110.931 303.546,110.794 304.321,110.684 305.097,110.591 305.873,110.504 306.649,110.413 307.424,110.307 308.2,110.178 308.976,110.016 309.751,109.817 310.527,109.574 311.303,109.285 312.079,108.948 312.854,108.563 313.63,108.133 314.406,107.661 315.181,107.152 315.957,106.613 316.733,106.052 317.509,105.475 318.284,104.892 319.06,104.311 319.836,103.739 320.611,103.186 321.387,102.658 322.163,102.16 322.939,101.698 323.714,101.275 324.49,100.893 325.266,100.553 326.041,100.253 326.817,99.9927 327.593,99.7672 328.369,99.5726 329.144,99.4034 329.92,99.2536 330.696,99.1167 331.471,98.986 332.247,98.8547 333.023,98.7166 333.799,98.5655 334.574,98.3963 335.35,98.2046 336.126,97.9869 336.901,97.7409 337.677,97.4652 338.453,97.16 339.229,96.826 340.004,96.4654 340.78,96.0812 341.556,95.6772 342.331,95.2578 343.107,94.828 343.883,94.393 344.659,93.9581 345.434,93.5286 346.21,93.1093 346.986,92.7049 347.761,92.3192 348.537,91.9555 349.313,91.6161 350.089,91.3027 350.864,91.0157 351.64,90.7551 352.416,90.5196 353.191,90.3074 353.967,90.1157 354.743,89.9415 355.519,89.7809 356.294,89.63 357.07,89.4845 357.846,89.3402 358.621,89.1931 359.397,89.0392 360.173,88.8752 360.949,88.6981 361.724,88.5056 362.5,88.2959 363.276,88.0682 364.051,87.8221 364.827,87.5581 365.603,87.2772 366.379,86.9813 367.154,86.6725 367.93,86.3536 368.706,86.0275 369.481,85.6975 370.257,85.367 371.033,85.0393 371.809,84.7175 372.584,84.4045 373.36,84.103 374.136,83.8151 374.911,83.5424 375.687,83.2862 376.463,83.0468 377.239,82.8244 378.014,82.6183 378.79,82.4276 379.566,82.2506 380.341,82.0855 381.117,81.93 381.893,81.7815 382.669,81.6376 383.444,81.4954 384.22,81.3524 384.996,81.2062 385.771,81.0545 386.547,80.8954 387.323,80.7272 388.099,80.5488 388.874,80.3594 389.65,80.1588 390.426,79.9471 391.201,79.7248 391.977,79.493 392.753,79.253 393.529,79.0063 394.304,78.7549 395.08,78.5008 395.856,78.2459 396.631,77.9925 397.407,77.7425 398.183,77.4979 398.959,77.2603 399.734,77.0311 400.51,76.8115 401.286,76.6023 402.061,76.4056 402.837,76.2269 403.613,76.0755 404.389,75.9656 405.164,75.9146 405.94,75.9428 406.716,76.0721 407.491,76.3253 408.267,76.7255 409.043,77.2948 409.819,78.0536 410.594,79.0206 411.37,80.2109 412.146,81.6368 412.921,83.3067 413.697,85.225 414.473,87.3921 415.249,89.8043 416.024,92.4545 416.8,95.3319 417.576,98.4228 418.351,101.711 419.127,105.179 419.903,108.807 420.679,112.575 421.454,116.465 422.23,120.457 423.006,124.535 423.781,128.683 424.557,132.889 425.333,137.144 426.109,141.432 426.884,145.737 427.66,150.048 428.436,154.348 429.211,158.621 429.987,162.853 430.763,167.029 431.539,171.138 432.314,175.167 433.09,179.109 433.866,182.959 434.641,186.713 435.417,190.372 436.193,193.936 436.969,197.412 437.744,200.806 438.52,204.128 439.296,207.388 440.071,210.597 440.847,213.769 441.623,216.917 442.399,220.052 443.174,223.186 443.95,226.332 444.726,229.498 445.501,232.692 446.277,235.92 447.053,239.187 447.829,242.493 448.604,245.84 449.38,249.224 450.156,252.641 450.931,256.085 451.707,259.549 452.483,263.024 453.259,266.5 454.034,269.969 454.81,273.419 455.586,276.841 456.361,280.226 457.137,283.567 457.913,286.855 458.689,290.085 459.464,293.255 460.24,296.36 461.016,299.4 461.791,302.377 462.567,305.293 463.343,308.152 464.119,310.96 464.894,313.723 465.67,316.448 466.446,319.143 467.221,321.816 467.997,324.475 468.773,327.128 469.549,329.782 470.324,332.444 471.1,335.118 471.876,337.809 472.651,340.512 473.427,343.217 474.203,345.908 474.979,348.569 475.754,351.176 476.53,353.703 477.306,356.121 478.081,358.4 478.857,360.511 479.633,362.427 480.409,364.12 481.184,365.569 481.96,366.754 482.736,367.66 483.511,368.278 484.287,368.604 485.063,368.637 485.839,368.383 486.614,367.852 487.39,367.045 488.166,366.009 488.941,364.778 489.717,363.379 490.493,361.854 491.269,360.25 492.044,358.614 492.82,356.995 493.596,355.437 494.371,353.984 495.147,352.672 495.923,351.534 496.699,350.594 497.474,349.869 498.25,349.369 499.026,349.094 499.801,349.038 500.577,349.186 501.353,349.517 502.129,350.005 502.904,350.616 503.68,351.318 504.456,352.072 505.231,352.84 506.007,353.585 506.783,354.272 507.559,354.868 508.334,355.345 509.11,355.679 509.886,355.854 510.661,355.858 511.437,355.686 512.213,355.339 512.989,354.825 513.764,354.158 514.54,353.355 515.316,352.44 516.091,351.438 516.867,350.379 517.643,349.292 518.419,348.207 519.194,347.153 519.97,346.157 520.746,345.245 521.521,344.437 522.297,343.75 523.073,343.196 523.849,342.783 524.624,342.511 525.4,342.38 526.176,342.38 526.951,342.499 527.727,342.723 528.503,343.031 529.279,343.402 530.054,343.813 530.83,344.24 531.606,344.659 532.381,345.049 533.157,345.387 533.933,345.655 534.709,345.838 535.484,345.924 536.26,345.904 537.036,345.774 537.811,345.533 538.587,345.187 539.363,344.741 540.139,344.207 540.914,343.599 541.69,342.931 542.466,342.223 543.241,341.491 544.017,340.756 544.793,340.036 545.569,339.348 546.344,338.708 547.12,338.131 547.896,337.627 548.671,337.206 549.447,336.872 550.223,336.628 550.999,336.472 551.774,336.402 552.55,336.409 553.326,336.485 554.101,336.618 554.877,336.795 555.653,337.001 556.429,337.222 557.204,337.443 557.98,337.649 558.756,337.827 559.531,337.964 560.307,338.051 561.083,338.078 561.859,338.04 562.634,337.934 563.41,337.759 564.186,337.516 564.961,337.21 565.737,336.846 566.513,336.433 567.289,335.98 568.064,335.499 568.84,334.999 569.616,334.495 570.391,333.996 571.167,333.516 571.943,333.063 572.719,332.647 573.494,332.276 574.27,331.955 575.046,331.689 575.821,331.48 576.597,331.327 577.373,331.228 578.149,331.18 578.924,331.177 579.7,331.213 580.476,331.279 581.251,331.366 582.027,331.465 582.803,331.567 583.579,331.662 584.354,331.743 585.13,331.8 585.906,331.827 586.681,331.818 587.457,331.77 588.233,331.679 589.009,331.545 589.784,331.368 590.56,331.151 591.336,330.896 592.111,330.609 592.887,330.296 593.663,329.962 594.439,329.616 595.214,329.264 595.99,328.915 596.766,328.574 597.541,328.25 598.317,327.947 599.093,327.672 599.869,327.428 600.644,327.217 601.42,327.043 602.196,326.904 602.971,326.799 603.747,326.728 604.523,326.686 605.299,326.67 606.074,326.675 606.85,326.695 607.626,326.724 608.401,326.757 609.177,326.787 609.953,326.81 610.729,326.82 611.504,326.812 612.28,326.782 613.056,326.729 613.831,326.65 614.607,326.543 615.383,326.41 616.159,326.25 616.934,326.067 617.71,325.863 618.486,325.641 619.261,325.406 620.037,325.161 620.813,324.912 621.589,324.663 622.364,324.418 623.14,324.183 623.916,323.96 624.691,323.754 625.467,323.567 626.243,323.401 627.019,323.258 627.794,323.137 628.57,323.038 629.346,322.961 630.121,322.903 630.897,322.862 631.673,322.835 632.449,322.819 633.224,322.81 634,322.804 " />
</g>

<g fill="#ffffff" fill-opacity="1" stroke="none" transform="matrix(6e-05,0,0,6e-05,-18.5,-5.85001)"
font-family="Helvetica" font-size="18" font-weight="700" font-style="normal" 
>
<path vector-effect="none" fill-rule="evenodd" d="M4.85e+06,450000 L4.85e+06,850000 L6.21e+06,850000 L6.21e+06,450000 L4.85e+06,450000"/>
</g>

<g fill="#1171be" fill-opacity="1" stroke="#1171be" stroke-opacity="1" stroke-width="0.833333" stroke-linecap="butt" stroke-linejoin="round" transform="matrix(0.6,0,0,0.6,-18.5,-5.85001)"
font-family="Helvetica" font-size="18" font-weight="700" font-style="normal" 
>
<polyline fill="none" vector-effect="none" points="490.009,56.1041 540.101,56.1041 " />
</g>

<g fill="#dd5400" fill-opacity="1" stroke="#dd5400" stroke-opacity="1" stroke-width="0.833333" stroke-linecap="butt" stroke-linejoin="round" transform="matrix(0.6,0,0,0.6,-18.5,-5.85001)"
font-family="Helvetica" font-size="18" font-weight="700" font-style="normal" 
>
<polyline fill="none" vector-effect="none" points="490.009,73.8959 540.101,73.8959 " />
</g>

<g fill="#212121" fill-opacity="1" stroke="#212121" stroke-opacity="1" stroke-width="1" stroke-linecap="square" stroke-linejoin="bevel" transform="matrix(0.6,0,0,0.6,307.815,30.8125)"
font-family="Helvetica" font-size="15" font-weight="400" font-style="normal" 
>
<text fill="#212121" fill-opacity="1" stroke="none" xml:space="preserve" x="0" y="0" font-family="Helvetica" font-size="15" font-weight="400" font-style="normal" 
 >geregelt</text>
</g>

<g fill="#212121" fill-opacity="1" stroke="#212121" stroke-opacity="1" stroke-width="1" stroke-linecap="square" stroke-linejoin="bevel" transform="matrix(0.6,0,0,0.6,307.815,41.4875)"
font-family="Helvetica" font-size="15" font-weight="400" font-style="normal" 
>
<text fill="#212121" fill-opacity="1" stroke="none" xml:space="preserve" x="0" y="0" font-family="Helvetica" font-size="15" font-weight="400" font-style="normal" 
 >ungeregelt</text>
</g>

<g fill="none" stroke="#212121" stroke-opacity="1" stroke-width="0.833333" stroke-linecap="butt" stroke-linejoin="miter" stroke-miterlimit="2" transform="matrix(0.6,0,0,0.6,-18.5,-5.85001)"
font-family="Helvetica" font-size="15" font-weight="400" font-style="normal" 
>
<path vector-effect="none" fill-rule="evenodd" d="M485,85 L485,45 L621,45 L621,85 L485,85"/>
</g>
</g>
</svg>
