<?xml version="1.0" encoding="UTF-8" standalone="no"?>
<svg width="130.175mm" height="84.6667mm"
 viewBox="0 0 369 240"
 xmlns="http://www.w3.org/2000/svg" xmlns:xlink="http://www.w3.org/1999/xlink"  version="1.2" baseProfile="tiny">
<title>Qt SVG Document</title>
<desc>MATLAB, The MathWorks, Inc. Version 25.1.0.2973910 R2025a Update 1</desc>
<defs>
</defs>
<g fill="none" stroke="black" stroke-width="1" fill-rule="evenodd" stroke-linecap="square" stroke-linejoin="bevel" >

<g fill="#ffffff" fill-opacity="1" stroke="none" transform="matrix(0.6,0,0,0.6,-18.5,-14.4)"
font-family="MS Shell Dlg 2" font-size="7.8" font-weight="400" font-style="normal" 
>
<path vector-effect="none" fill-rule="evenodd" d="M30,23 L645,23 L645,423 L30,423 L30,23"/>
</g>

<g fill="#ffffff" fill-opacity="1" stroke="none" transform="matrix(6e-05,0,0,6e-05,-18.5,-14.4)"
font-family="MS Shell Dlg 2" font-size="7.8" font-weight="400" font-style="normal" 
>
<path vector-effect="none" fill-rule="evenodd" d="M910000,320000 L910000,3.72e+06 L6.34e+06,3.72e+06 L6.34e+06,320000 L910000,320000"/>
</g>

<g fill="#212121" fill-opacity="0.14902" stroke="#212121" stroke-opacity="0.14902" stroke-width="0.833333" stroke-linecap="butt" stroke-linejoin="round" transform="matrix(0.6,0,0,0.6,-18.5,-14.4)"
font-family="MS Shell Dlg 2" font-size="7.8" font-weight="400" font-style="normal" 
>
<polyline fill="none" vector-effect="none" points="91,32 91,372 " />
<polyline fill="none" vector-effect="none" points="168.571,32 168.571,372 " />
<polyline fill="none" vector-effect="none" points="246.143,32 246.143,372 " />
<polyline fill="none" vector-effect="none" points="323.714,32 323.714,372 " />
<polyline fill="none" vector-effect="none" points="401.286,32 401.286,372 " />
<polyline fill="none" vector-effect="none" points="478.857,32 478.857,372 " />
<polyline fill="none" vector-effect="none" points="556.429,32 556.429,372 " />
<polyline fill="none" vector-effect="none" points="634,32 634,372 " />
<polyline fill="none" vector-effect="none" points="91,372 634,372 " />
<polyline fill="none" vector-effect="none" points="91,304 634,304 " />
<polyline fill="none" vector-effect="none" points="91,236 634,236 " />
<polyline fill="none" vector-effect="none" points="91,168 634,168 " />
<polyline fill="none" vector-effect="none" points="91,100 634,100 " />
<polyline fill="none" vector-effect="none" points="91,32 634,32 " />
</g>

<g fill="#212121" fill-opacity="1" stroke="#212121" stroke-opacity="1" stroke-width="1" stroke-linecap="square" stroke-linejoin="bevel" transform="matrix(0.6,0,0,0.6,182.8,235.4)"
font-family="Helvetica" font-size="18" font-weight="400" font-style="normal" 
>
<text fill="#212121" fill-opacity="1" stroke="none" xml:space="preserve" x="0" y="0" font-family="Helvetica" font-size="18" font-weight="400" font-style="normal" 
 >Zeit [s]</text>
</g>

<g fill="#212121" fill-opacity="1" stroke="#212121" stroke-opacity="1" stroke-width="0.833333" stroke-linecap="square" stroke-linejoin="round" transform="matrix(0.6,0,0,0.6,-18.5,-14.4)"
font-family="Helvetica" font-size="18" font-weight="400" font-style="normal" 
>
<polyline fill="none" vector-effect="none" points="91,372 634,372 " />
<polyline fill="none" vector-effect="none" points="91,32 634,32 " />
<polyline fill="none" vector-effect="none" points="91,372 91,366.57 " />
<polyline fill="none" vector-effect="none" points="91,37.43 91,32 " />
<polyline fill="none" vector-effect="none" points="168.571,372 168.571,366.57 " />
<polyline fill="none" vector-effect="none" points="168.571,37.43 168.571,32 " />
<polyline fill="none" vector-effect="none" points="246.143,372 246.143,366.57 " />
<polyline fill="none" vector-effect="none" points="246.143,37.43 246.143,32 " />
<polyline fill="none" vector-effect="none" points="323.714,372 323.714,366.57 " />
<polyline fill="none" vector-effect="none" points="323.714,37.43 323.714,32 " />
<polyline fill="none" vector-effect="none" points="401.286,372 401.286,366.57 " />
<polyline fill="none" vector-effect="none" points="401.286,37.43 401.286,32 " />
<polyline fill="none" vector-effect="none" points="478.857,372 478.857,366.57 " />
<polyline fill="none" vector-effect="none" points="478.857,37.43 478.857,32 " />
<polyline fill="none" vector-effect="none" points="556.429,372 556.429,366.57 " />
<polyline fill="none" vector-effect="none" points="556.429,37.43 556.429,32 " />
<polyline fill="none" vector-effect="none" points="634,372 634,366.57 " />
<polyline fill="none" vector-effect="none" points="634,37.43 634,32 " />
</g>

<g fill="#212121" fill-opacity="1" stroke="#212121" stroke-opacity="1" stroke-width="1" stroke-linecap="square" stroke-linejoin="bevel" transform="matrix(0.6,0,0,0.6,33.4,221.8)"
font-family="Helvetica" font-size="16" font-weight="400" font-style="normal" 
>
<text fill="#212121" fill-opacity="1" stroke="none" xml:space="preserve" x="0" y="0" font-family="Helvetica" font-size="16" font-weight="400" font-style="normal" 
 >0</text>
</g>

<g fill="#212121" fill-opacity="1" stroke="#212121" stroke-opacity="1" stroke-width="1" stroke-linecap="square" stroke-linejoin="bevel" transform="matrix(0.6,0,0,0.6,77.2429,221.8)"
font-family="Helvetica" font-size="16" font-weight="400" font-style="normal" 
>
<text fill="#212121" fill-opacity="1" stroke="none" xml:space="preserve" x="0" y="0" font-family="Helvetica" font-size="16" font-weight="400" font-style="normal" 
 >10</text>
</g>

<g fill="#212121" fill-opacity="1" stroke="#212121" stroke-opacity="1" stroke-width="1" stroke-linecap="square" stroke-linejoin="bevel" transform="matrix(0.6,0,0,0.6,123.786,221.8)"
font-family="Helvetica" font-size="16" font-weight="400" font-style="normal" 
>
<text fill="#212121" fill-opacity="1" stroke="none" xml:space="preserve" x="0" y="0" font-family="Helvetica" font-size="16" font-weight="400" font-style="normal" 
 >20</text>
</g>

<g fill="#212121" fill-opacity="1" stroke="#212121" stroke-opacity="1" stroke-width="1" stroke-linecap="square" stroke-linejoin="bevel" transform="matrix(0.6,0,0,0.6,170.329,221.8)"
font-family="Helvetica" font-size="16" font-weight="400" font-style="normal" 
>
<text fill="#212121" fill-opacity="1" stroke="none" xml:space="preserve" x="0" y="0" font-family="Helvetica" font-size="16" font-weight="400" font-style="normal" 
 >30</text>
</g>

<g fill="#212121" fill-opacity="1" stroke="#212121" stroke-opacity="1" stroke-width="1" stroke-linecap="square" stroke-linejoin="bevel" transform="matrix(0.6,0,0,0.6,216.871,221.8)"
font-family="Helvetica" font-size="16" font-weight="400" font-style="normal" 
>
<text fill="#212121" fill-opacity="1" stroke="none" xml:space="preserve" x="0" y="0" font-family="Helvetica" font-size="16" font-weight="400" font-style="normal" 
 >40</text>
</g>

<g fill="#212121" fill-opacity="1" stroke="#212121" stroke-opacity="1" stroke-width="1" stroke-linecap="square" stroke-linejoin="bevel" transform="matrix(0.6,0,0,0.6,263.414,221.8)"
font-family="Helvetica" font-size="16" font-weight="400" font-style="normal" 
>
<text fill="#212121" fill-opacity="1" stroke="none" xml:space="preserve" x="0" y="0" font-family="Helvetica" font-size="16" font-weight="400" font-style="normal" 
 >50</text>
</g>

<g fill="#212121" fill-opacity="1" stroke="#212121" stroke-opacity="1" stroke-width="1" stroke-linecap="square" stroke-linejoin="bevel" transform="matrix(0.6,0,0,0.6,309.957,221.8)"
font-family="Helvetica" font-size="16" font-weight="400" font-style="normal" 
>
<text fill="#212121" fill-opacity="1" stroke="none" xml:space="preserve" x="0" y="0" font-family="Helvetica" font-size="16" font-weight="400" font-style="normal" 
 >60</text>
</g>

<g fill="#212121" fill-opacity="1" stroke="#212121" stroke-opacity="1" stroke-width="1" stroke-linecap="square" stroke-linejoin="bevel" transform="matrix(0.6,0,0,0.6,356.5,221.8)"
font-family="Helvetica" font-size="16" font-weight="400" font-style="normal" 
>
<text fill="#212121" fill-opacity="1" stroke="none" xml:space="preserve" x="0" y="0" font-family="Helvetica" font-size="16" font-weight="400" font-style="normal" 
 >70</text>
</g>

<g fill="#212121" fill-opacity="1" stroke="#212121" stroke-opacity="1" stroke-width="1" stroke-linecap="square" stroke-linejoin="bevel" transform="matrix(0,-0.6,0.6,0,9.3,159.3)"
font-family="Helvetica" font-size="18" font-weight="400" font-style="normal" 
>
<text fill="#212121" fill-opacity="1" stroke="none" xml:space="preserve" x="0" y="0" font-family="Helvetica" font-size="18" font-weight="400" font-style="normal" 
 >Geschwindigkeit [m/s]</text>
</g>

<g fill="#212121" fill-opacity="1" stroke="#212121" stroke-opacity="1" stroke-width="0.833333" stroke-linecap="square" stroke-linejoin="round" transform="matrix(0.6,0,0,0.6,-18.5,-14.4)"
font-family="Helvetica" font-size="18" font-weight="400" font-style="normal" 
>
<polyline fill="none" vector-effect="none" points="91,372 91,32 " />
<polyline fill="none" vector-effect="none" points="634,372 634,32 " />
<polyline fill="none" vector-effect="none" points="91,372 96.43,372 " />
<polyline fill="none" vector-effect="none" points="628.57,372 634,372 " />
<polyline fill="none" vector-effect="none" points="91,304 96.43,304 " />
<polyline fill="none" vector-effect="none" points="628.57,304 634,304 " />
<polyline fill="none" vector-effect="none" points="91,236 96.43,236 " />
<polyline fill="none" vector-effect="none" points="628.57,236 634,236 " />
<polyline fill="none" vector-effect="none" points="91,168 96.43,168 " />
<polyline fill="none" vector-effect="none" points="628.57,168 634,168 " />
<polyline fill="none" vector-effect="none" points="91,100 96.43,100 " />
<polyline fill="none" vector-effect="none" points="628.57,100 634,100 " />
<polyline fill="none" vector-effect="none" points="91,32 96.43,32 " />
<polyline fill="none" vector-effect="none" points="628.57,32 634,32 " />
</g>

<g fill="#212121" fill-opacity="1" stroke="#212121" stroke-opacity="1" stroke-width="1" stroke-linecap="square" stroke-linejoin="bevel" transform="matrix(0.6,0,0,0.6,15.9,212.1)"
font-family="Helvetica" font-size="16" font-weight="400" font-style="normal" 
>
<text fill="#212121" fill-opacity="1" stroke="none" xml:space="preserve" x="0" y="0" font-family="Helvetica" font-size="16" font-weight="400" font-style="normal" 
 >-0.5</text>
</g>

<g fill="#212121" fill-opacity="1" stroke="#212121" stroke-opacity="1" stroke-width="1" stroke-linecap="square" stroke-linejoin="bevel" transform="matrix(0.6,0,0,0.6,26.7,171.3)"
font-family="Helvetica" font-size="16" font-weight="400" font-style="normal" 
>
<text fill="#212121" fill-opacity="1" stroke="none" xml:space="preserve" x="0" y="0" font-family="Helvetica" font-size="16" font-weight="400" font-style="normal" 
 >0</text>
</g>

<g fill="#212121" fill-opacity="1" stroke="#212121" stroke-opacity="1" stroke-width="1" stroke-linecap="square" stroke-linejoin="bevel" transform="matrix(0.6,0,0,0.6,18.9,130.5)"
font-family="Helvetica" font-size="16" font-weight="400" font-style="normal" 
>
<text fill="#212121" fill-opacity="1" stroke="none" xml:space="preserve" x="0" y="0" font-family="Helvetica" font-size="16" font-weight="400" font-style="normal" 
 >0.5</text>
</g>

<g fill="#212121" fill-opacity="1" stroke="#212121" stroke-opacity="1" stroke-width="1" stroke-linecap="square" stroke-linejoin="bevel" transform="matrix(0.6,0,0,0.6,26.7,89.7)"
font-family="Helvetica" font-size="16" font-weight="400" font-style="normal" 
>
<text fill="#212121" fill-opacity="1" stroke="none" xml:space="preserve" x="0" y="0" font-family="Helvetica" font-size="16" font-weight="400" font-style="normal" 
 >1</text>
</g>

<g fill="#212121" fill-opacity="1" stroke="#212121" stroke-opacity="1" stroke-width="1" stroke-linecap="square" stroke-linejoin="bevel" transform="matrix(0.6,0,0,0.6,18.9,48.9)"
font-family="Helvetica" font-size="16" font-weight="400" font-style="normal" 
>
<text fill="#212121" fill-opacity="1" stroke="none" xml:space="preserve" x="0" y="0" font-family="Helvetica" font-size="16" font-weight="400" font-style="normal" 
 >1.5</text>
</g>

<g fill="#212121" fill-opacity="1" stroke="#212121" stroke-opacity="1" stroke-width="1" stroke-linecap="square" stroke-linejoin="bevel" transform="matrix(0.6,0,0,0.6,26.7,8.1)"
font-family="Helvetica" font-size="16" font-weight="400" font-style="normal" 
>
<text fill="#212121" fill-opacity="1" stroke="none" xml:space="preserve" x="0" y="0" font-family="Helvetica" font-size="16" font-weight="400" font-style="normal" 
 >2</text>
</g>

<g fill="none" stroke="#1171be" stroke-opacity="1" stroke-width="0.833333" stroke-linecap="butt" stroke-linejoin="round" transform="matrix(0.6,0,0,0.6,-18.5,-14.4)"
font-family="Helvetica" font-size="16" font-weight="400" font-style="normal" 
>
<polyline fill="none" vector-effect="none" points="91,304 91.7757,304 92.5514,304 93.3271,304 94.1029,304 94.8786,304 95.6543,304 96.43,304 97.2057,304 97.9814,304 98.7571,304 99.5329,304 100.309,304 101.084,304 101.86,304 102.636,304 103.411,304 104.187,304 104.963,304 105.739,304 106.514,304 107.29,304 108.066,304 108.841,304 109.617,304 110.393,304 111.169,304 111.944,304 112.72,304 113.496,304 114.271,304 115.047,304 115.823,304 116.599,304 117.374,304 118.15,304 118.926,304 119.701,304 120.477,304 121.253,304 122.029,304 122.804,304 123.58,304 124.356,304 125.131,304 125.907,304 126.683,304 127.459,304 128.234,304 129.01,304 129.786,304 130.561,304 131.337,304 132.113,304 132.889,304 133.664,304 134.44,304 135.216,304 135.991,304 136.767,304 137.543,304 138.319,304 139.094,304 139.87,304 140.646,304 141.421,304 142.197,304 142.973,304 143.749,304 144.524,304 145.3,304 146.076,304 146.851,304 147.627,304 148.403,304 149.179,304 149.954,304 150.73,304 151.506,304 152.281,304 153.057,304 153.833,304 154.609,304 155.384,304 156.16,304 156.936,304 157.711,304 158.487,304 159.263,304 160.039,304 160.814,304 161.59,304 162.366,304 163.141,304 163.917,304 164.693,304 165.469,304 166.244,304 167.02,304 167.796,304 168.571,304 169.347,303.949 170.123,303.811 170.899,303.607 171.674,303.353 172.45,303.061 173.226,302.737 174.001,302.384 174.777,302.005 175.553,301.598 176.329,301.164 177.104,300.699 177.88,300.2 178.656,299.664 179.431,299.088 180.207,298.468 180.983,297.8 181.759,297.081 182.534,296.308 183.31,295.478 184.086,294.586 184.861,293.685 185.637,292.804 186.413,291.921 187.189,291.019 187.964,290.084 188.74,289.11 189.516,288.09 190.291,287.021 191.067,285.903 191.843,284.738 192.619,283.525 193.394,282.269 194.17,280.971 194.946,279.635 195.721,278.264 196.497,276.862 197.273,275.432 198.049,273.977 198.824,272.5 199.6,271.005 200.376,269.493 201.151,267.967 201.927,266.429 202.703,264.882 203.479,263.327 204.254,261.766 205.03,260.201 205.806,258.633 206.581,257.062 207.357,255.491 208.133,253.945 208.909,252.444 209.684,250.977 210.46,249.536 211.236,248.117 212.011,246.717 212.787,245.334 213.563,243.968 214.339,242.62 215.114,241.29 215.89,239.979 216.666,238.69 217.441,237.424 218.217,236.182 218.993,234.968 219.769,233.783 220.544,232.627 221.32,231.504 222.096,230.415 222.871,229.36 223.647,228.317 224.423,227.267 225.199,226.224 225.974,225.195 226.75,224.188 227.526,223.206 228.301,222.251 229.077,221.326 229.853,220.43 230.629,219.563 231.404,218.724 232.18,217.912 232.956,217.126 233.731,216.364 234.507,215.624 235.283,214.904 236.059,214.204 236.834,213.52 237.61,212.853 238.386,212.199 239.161,211.559 239.937,210.93 240.713,210.312 241.489,209.703 242.264,209.103 243.04,208.511 243.816,207.925 244.591,207.346 245.367,206.772 246.143,206.203 246.919,205.639 247.694,205.08 248.47,204.524 249.246,203.972 250.021,203.423 250.797,202.877 251.573,202.334 252.349,201.794 253.124,201.256 253.9,200.721 254.676,200.187 255.451,199.657 256.227,199.128 257.003,198.601 257.779,198.076 258.554,197.554 259.33,197.033 260.106,196.514 260.881,195.997 261.657,195.481 262.433,194.968 263.209,194.456 263.984,193.946 264.76,193.437 265.536,192.931 266.311,192.426 267.087,191.923 267.863,191.421 268.639,190.921 269.414,190.423 270.19,189.927 270.966,189.432 271.741,188.939 272.517,188.448 273.293,187.958 274.069,187.47 274.844,186.983 275.62,186.499 276.396,186.016 277.171,185.534 277.947,185.054 278.723,184.576 279.499,184.099 280.274,183.624 281.05,183.151 281.826,182.679 282.601,182.209 283.377,181.74 284.153,181.273 284.929,180.808 285.704,180.344 286.48,179.881 287.256,179.421 288.031,178.961 288.807,178.504 289.583,178.048 290.359,177.593 291.134,177.14 291.91,176.689 292.686,176.239 293.461,175.79 294.237,175.344 295.013,174.898 295.789,174.454 296.564,174.012 297.34,173.571 298.116,173.132 298.891,172.694 299.667,172.258 300.443,171.823 301.219,171.389 301.994,170.957 302.77,170.527 303.546,170.098 304.321,169.67 305.097,169.244 305.873,168.819 306.649,168.396 307.424,167.974 308.2,167.554 308.976,167.135 309.751,166.718 310.527,166.302 311.303,165.887 312.079,165.473 312.854,165.061 313.63,164.651 314.406,164.242 315.181,163.834 315.957,163.428 316.733,163.023 317.509,162.619 318.284,162.217 319.06,161.816 319.836,161.417 320.611,161.019 321.387,160.622 322.163,160.227 322.939,159.833 323.714,159.44 324.49,159.049 325.266,158.659 326.041,158.27 326.817,157.882 327.593,157.496 328.369,157.111 329.144,156.728 329.92,156.346 330.696,155.965 331.471,155.585 332.247,155.207 333.023,154.83 333.799,154.454 334.574,154.08 335.35,153.706 336.126,153.334 336.901,152.964 337.677,152.594 338.453,152.226 339.229,151.859 340.004,151.493 340.78,151.129 341.556,150.766 342.331,150.404 343.107,150.043 343.883,149.684 344.659,149.325 345.434,148.968 346.21,148.612 346.986,148.258 347.761,147.904 348.537,147.552 349.313,147.201 350.089,146.851 350.864,146.503 351.64,146.155 352.416,145.809 353.191,145.464 353.967,145.119 354.743,144.777 355.519,144.435 356.294,144.094 357.07,143.755 357.846,143.417 358.621,143.08 359.397,142.744 360.173,142.409 360.949,142.076 361.724,141.743 362.5,141.412 363.276,141.082 364.051,140.752 364.827,140.424 365.603,140.098 366.379,139.772 367.154,139.447 367.93,139.124 368.706,138.801 369.481,138.48 370.257,138.16 371.033,137.84 371.809,137.522 372.584,137.205 373.36,136.889 374.136,136.574 374.911,136.261 375.687,135.948 376.463,135.636 377.239,135.326 378.014,135.016 378.79,134.707 379.566,134.4 380.341,134.094 381.117,133.788 381.893,133.484 382.669,133.181 383.444,132.878 384.22,132.577 384.996,132.277 385.771,131.977 386.547,131.679 387.323,131.382 388.099,131.086 388.874,130.791 389.65,130.497 390.426,130.203 391.201,129.911 391.977,129.62 392.753,129.33 393.529,129.04 394.304,128.752 395.08,128.465 395.856,128.179 396.631,127.893 397.407,127.609 398.183,127.326 398.959,127.043 399.734,126.762 400.51,126.481 401.286,126.202 402.061,125.975 402.837,125.837 403.613,125.764 404.389,125.741 405.164,125.759 405.94,125.809 406.716,125.888 407.491,125.995 408.267,126.13 409.043,126.294 409.819,126.49 410.594,126.72 411.37,126.988 412.146,127.298 412.921,127.652 413.697,128.056 414.473,128.511 415.249,129.021 416.024,129.59 416.8,130.22 417.576,130.913 418.351,131.673 419.127,132.501 419.903,133.399 420.679,134.369 421.454,135.412 422.23,136.53 423.006,137.724 423.781,138.994 424.557,140.341 425.333,141.714 426.109,143.08 426.884,144.46 427.66,145.869 428.436,147.32 429.211,148.818 429.987,150.368 430.763,151.972 431.539,153.629 432.314,155.337 433.09,157.095 433.866,158.899 434.641,160.745 435.417,162.631 436.193,164.552 436.969,166.505 437.744,168.486 438.52,170.491 439.296,172.517 440.071,174.562 440.847,176.622 441.623,178.695 442.399,180.778 443.174,182.869 443.95,184.966 444.726,187.068 445.501,189.173 446.277,191.279 447.053,193.385 447.829,195.492 448.604,197.596 449.38,199.698 450.156,201.797 450.931,203.892 451.707,205.983 452.483,208.069 453.259,210.15 454.034,212.226 454.81,214.296 455.586,216.36 456.361,218.418 457.137,220.47 457.913,222.516 458.689,224.555 459.464,226.588 460.24,228.614 461.016,230.633 461.791,232.646 462.567,234.652 463.343,236.651 464.119,238.644 464.894,240.63 465.67,242.609 466.446,244.581 467.221,246.547 467.997,248.506 468.773,250.459 469.549,252.405 470.324,254.344 471.1,256.276 471.876,258.15 472.651,259.93 473.427,261.639 474.203,263.292 474.979,264.899 475.754,266.469 476.53,268.004 477.306,269.505 478.081,270.974 478.857,272.407 479.633,273.804 480.409,275.16 481.184,276.473 481.96,277.74 482.736,278.956 483.511,280.118 484.287,281.222 485.063,282.266 485.839,283.247 486.614,284.161 487.39,285.059 488.166,285.972 488.941,286.876 489.717,287.755 490.493,288.595 491.269,289.389 492.044,290.131 492.82,290.82 493.596,291.453 494.371,292.032 495.147,292.559 495.923,293.036 496.699,293.465 497.474,293.851 498.25,294.196 499.026,294.504 499.801,294.778 500.577,295.021 501.353,295.237 502.129,295.427 502.904,295.596 503.68,295.746 504.456,295.878 505.231,295.995 506.007,296.099 506.783,296.19 507.559,296.272 508.334,296.345 509.11,296.41 509.886,296.469 510.661,296.522 511.437,296.571 512.213,296.616 512.989,296.656 513.764,296.694 514.54,296.729 515.316,296.762 516.091,296.794 516.867,296.823 517.643,296.852 518.419,296.879 519.194,296.906 519.97,296.932 520.746,296.957 521.521,296.982 522.297,297.006 523.073,297.03 523.849,297.054 524.624,297.078 525.4,297.101 526.176,297.124 526.951,297.147 527.727,297.17 528.503,297.193 529.279,297.216 530.054,297.239 530.83,297.261 531.606,297.284 532.381,297.307 533.157,297.329 533.933,297.351 534.709,297.374 535.484,297.396 536.26,297.418 537.036,297.441 537.811,297.463 538.587,297.485 539.363,297.507 540.139,297.529 540.914,297.55 541.69,297.572 542.466,297.594 543.241,297.616 544.017,297.637 544.793,297.659 545.569,297.68 546.344,297.702 547.12,297.723 547.896,297.745 548.671,297.766 549.447,297.787 550.223,297.808 550.999,297.829 551.774,297.85 552.55,297.871 553.326,297.891 554.101,297.912 554.877,297.933 555.653,297.953 556.429,297.974 557.204,297.994 557.98,298.015 558.756,298.035 559.531,298.056 560.307,298.076 561.083,298.096 561.859,298.116 562.634,298.136 563.41,298.156 564.186,298.175 564.961,298.195 565.737,298.215 566.513,298.234 567.289,298.254 568.064,298.273 568.84,298.293 569.616,298.312 570.391,298.332 571.167,298.352 571.943,298.371 572.719,298.389 573.494,298.409 574.27,298.427 575.046,298.447 575.821,298.465 576.597,298.484 577.373,298.503 578.149,298.521 578.924,298.54 579.7,298.559 580.476,298.577 581.251,298.596 582.027,298.614 582.803,298.632 583.579,298.65 584.354,298.669 585.13,298.687 585.906,298.705 586.681,298.723 587.457,298.741 588.233,298.759 589.009,298.776 589.784,298.794 590.56,298.812 591.336,298.829 592.111,298.847 592.887,298.865 593.663,298.882 594.439,298.899 595.214,298.917 595.99,298.934 596.766,298.951 597.541,298.968 598.317,298.985 599.093,299.002 599.869,299.019 600.644,299.036 601.42,299.053 602.196,299.07 602.971,299.086 603.747,299.103 604.523,299.12 605.299,299.136 606.074,299.153 606.85,299.169 607.626,299.186 608.401,299.202 609.177,299.218 609.953,299.235 610.729,299.251 611.504,299.267 612.28,299.283 613.056,299.299 613.831,299.315 614.607,299.331 615.383,299.347 616.159,299.362 616.934,299.378 617.71,299.394 618.486,299.41 619.261,299.425 620.037,299.441 620.813,299.456 621.589,299.472 622.364,299.487 623.14,299.502 623.916,299.518 624.691,299.533 625.467,299.548 626.243,299.563 627.019,299.578 627.794,299.593 628.57,299.608 629.346,299.623 630.121,299.638 630.897,299.653 631.673,299.667 632.449,299.682 633.224,299.697 634,299.711 " />
</g>

<g fill="none" stroke="#dd5400" stroke-opacity="1" stroke-width="0.833333" stroke-linecap="butt" stroke-linejoin="round" transform="matrix(0.6,0,0,0.6,-18.5,-14.4)"
font-family="Helvetica" font-size="16" font-weight="400" font-style="normal" 
>
<polyline fill="none" vector-effect="none" points="91,304 91.7757,304 92.5514,304 93.3271,304 94.1029,304 94.8786,304 95.6543,304 96.43,304 97.2057,304 97.9814,304 98.7571,304 99.5329,304 100.309,304 101.084,304 101.86,304 102.636,304 103.411,304 104.187,304 104.963,304 105.739,304 106.514,304 107.29,304 108.066,304 108.841,304 109.617,304 110.393,304 111.169,304 111.944,304 112.72,304 113.496,304 114.271,304 115.047,304 115.823,304 116.599,304 117.374,304 118.15,304 118.926,304 119.701,304 120.477,304 121.253,304 122.029,304 122.804,304 123.58,304 124.356,304 125.131,304 125.907,304 126.683,304 127.459,304 128.234,304 129.01,304 129.786,304 130.561,304 131.337,304 132.113,304 132.889,304 133.664,304 134.44,304 135.216,304 135.991,304 136.767,304 137.543,304 138.319,304 139.094,304 139.87,304 140.646,304 141.421,304 142.197,304 142.973,304 143.749,304 144.524,304 145.3,304 146.076,304 146.851,304 147.627,304 148.403,304 149.179,304 149.954,304 150.73,304 151.506,304 152.281,304 153.057,304 153.833,304 154.609,304 155.384,304 156.16,304 156.936,304 157.711,304 158.487,304 159.263,304 160.039,304 160.814,304 161.59,304 162.366,304 163.141,304 163.917,304 164.693,304 165.469,304 166.244,304 167.02,304 167.796,304 168.571,304 169.347,303.882 170.123,303.503 170.899,302.873 171.674,302.007 172.45,300.921 173.226,299.634 174.001,298.169 174.777,296.546 175.553,294.787 176.329,292.912 177.104,290.94 177.88,288.889 178.656,286.773 179.431,284.603 180.207,282.387 180.983,280.13 181.759,277.834 182.534,275.495 183.31,273.109 184.086,270.667 184.861,268.285 185.637,266.074 186.413,264.019 187.189,262.091 187.964,260.257 188.74,258.484 189.516,256.734 190.291,254.974 191.067,253.17 191.843,251.294 192.619,249.318 193.394,247.223 194.17,244.992 194.946,242.614 195.721,240.087 196.497,237.412 197.273,234.597 198.049,231.653 198.824,228.599 199.6,225.456 200.376,222.249 201.151,219.003 201.927,215.748 202.703,212.509 203.479,209.315 204.254,206.191 205.03,203.158 205.806,200.236 206.581,197.44 207.357,194.782 208.133,192.342 208.909,190.169 209.684,188.252 210.46,186.585 211.236,185.15 212.011,183.921 212.787,182.87 213.563,181.967 214.339,181.179 215.114,180.473 215.89,179.819 216.666,179.186 217.441,178.549 218.217,177.884 218.993,177.173 219.769,176.404 220.544,175.568 221.32,174.662 222.096,173.69 222.871,172.659 223.647,171.513 224.423,170.215 225.199,168.787 225.974,167.254 226.75,165.648 227.526,164.003 228.301,162.354 229.077,160.737 229.853,159.181 230.629,157.718 231.404,156.372 232.18,155.165 232.956,154.112 233.731,153.223 234.507,152.502 235.283,151.947 236.059,151.549 236.834,151.296 237.61,151.17 238.386,151.151 239.161,151.213 239.937,151.33 240.713,151.475 241.489,151.619 242.264,151.737 243.04,151.802 243.816,151.794 244.591,151.692 245.367,151.481 246.143,151.152 246.919,150.697 247.694,150.116 248.47,149.412 249.246,148.592 250.021,147.668 250.797,146.654 251.573,145.57 252.349,144.435 253.124,143.269 253.9,142.096 254.676,140.937 255.451,139.813 256.227,138.742 257.003,137.742 257.779,136.827 258.554,136.007 259.33,135.289 260.106,134.677 260.881,134.17 261.657,133.766 262.433,133.455 263.209,133.229 263.984,133.075 264.76,132.976 265.536,132.918 266.311,132.883 267.087,132.854 267.863,132.812 268.639,132.744 269.414,132.633 270.19,132.467 270.966,132.236 271.741,131.933 272.517,131.552 273.293,131.093 274.069,130.556 274.844,129.945 275.62,129.267 276.396,128.531 277.171,127.748 277.947,126.929 278.723,126.088 279.499,125.24 280.274,124.396 281.05,123.572 281.826,122.779 282.601,122.028 283.377,121.328 284.153,120.688 284.929,120.111 285.704,119.6 286.48,119.157 287.256,118.78 288.031,118.464 288.807,118.203 289.583,117.991 290.359,117.817 291.134,117.672 291.91,117.546 292.686,117.426 293.461,117.303 294.237,117.165 295.013,117.005 295.789,116.812 296.564,116.581 297.34,116.306 298.116,115.984 298.891,115.613 299.667,115.193 300.443,114.726 301.219,114.217 301.994,113.67 302.77,113.091 303.546,112.489 304.321,111.871 305.097,111.246 305.873,110.622 306.649,110.009 307.424,109.413 308.2,108.843 308.976,108.304 309.751,107.801 310.527,107.338 311.303,106.918 312.079,106.54 312.854,106.204 313.63,105.908 314.406,105.649 315.181,105.421 315.957,105.221 316.733,105.041 317.509,104.874 318.284,104.715 319.06,104.556 319.836,104.39 320.611,104.211 321.387,104.015 322.163,103.795 322.939,103.55 323.714,103.276 324.49,102.971 325.266,102.636 326.041,102.272 326.817,101.881 327.593,101.466 328.369,101.029 329.144,100.578 329.92,100.115 330.696,99.6462 331.471,99.1776 332.247,98.7143 333.023,98.2614 333.799,97.8234 334.574,97.4045 335.35,97.0081 336.126,96.6366 336.901,96.2917 337.677,95.974 338.453,95.6835 339.229,95.419 340.004,95.1785 340.78,94.9595 341.556,94.7586 342.331,94.5722 343.107,94.396 343.883,94.2259 344.659,94.0573 345.434,93.8863 346.21,93.7087 346.986,93.5211 347.761,93.3203 348.537,93.104 349.313,92.8704 350.089,92.6185 350.864,92.3478 351.64,92.0588 352.416,91.7526 353.191,91.431 353.967,91.0961 354.743,90.7507 355.519,90.3979 356.294,90.041 357.07,89.6834 357.846,89.3286 358.621,88.9797 359.397,88.6398 360.173,88.3116 360.949,87.9972 361.724,87.6985 362.5,87.4166 363.276,87.1522 364.051,86.9052 364.827,86.6751 365.603,86.4609 366.379,86.2611 367.154,86.0736 367.93,85.8962 368.706,85.7263 369.481,85.5613 370.257,85.3985 371.033,85.2351 371.809,85.0686 372.584,84.8968 373.36,84.7175 374.136,84.5292 374.911,84.3306 375.687,84.1208 376.463,83.8997 377.239,83.6673 378.014,83.4241 378.79,83.1711 379.566,82.9097 380.341,82.6415 381.117,82.3684 381.893,82.0924 382.669,81.8156 383.444,81.5403 384.22,81.2684 384.996,81.002 385.771,80.7427 386.547,80.4921 387.323,80.2514 388.099,80.0213 388.874,79.8023 389.65,79.5947 390.426,79.3981 391.201,79.212 391.977,79.0355 392.753,78.8674 393.529,78.7064 394.304,78.5508 395.08,78.399 395.856,78.2494 396.631,78.1002 397.407,77.9497 398.183,77.7965 398.959,77.6393 399.734,77.4769 400.51,77.3084 401.286,77.1334 402.061,77.0845 402.837,77.2824 403.613,77.7157 404.389,78.3787 405.164,79.2558 405.94,80.3287 406.716,81.5776 407.491,82.9823 408.267,84.5229 409.043,86.1803 409.819,87.9365 410.594,89.776 411.37,91.6855 412.146,93.6544 412.921,95.6755 413.697,97.7447 414.473,99.8612 415.249,102.027 416.024,104.248 416.8,106.533 417.576,108.89 418.351,111.333 419.127,113.875 419.903,116.531 420.679,119.315 421.454,122.241 422.23,125.322 423.006,128.572 423.781,132 424.557,135.614 425.333,139.299 426.109,142.92 426.884,146.493 427.66,150.026 428.436,153.53 429.211,157.019 429.987,160.505 430.763,164.001 431.539,167.514 432.314,171.055 433.09,174.629 433.866,178.241 434.641,181.892 435.417,185.582 436.193,189.309 436.969,193.069 437.744,196.856 438.52,200.661 439.296,204.478 440.071,208.295 440.847,212.103 441.623,215.891 442.399,219.65 443.174,223.371 443.95,227.045 444.726,230.664 445.501,234.223 446.277,237.718 447.053,241.146 447.829,244.507 448.604,247.801 449.38,251.031 450.156,254.201 450.931,257.316 451.707,260.384 452.483,263.411 453.259,266.406 454.034,269.376 454.81,272.33 455.586,275.276 456.361,278.222 457.137,281.173 457.913,284.135 458.689,287.113 459.464,290.11 460.24,293.127 461.016,296.165 461.791,299.222 462.567,302.297 463.343,305.385 464.119,308.484 464.894,311.586 465.67,314.686 466.446,317.779 467.221,320.857 467.997,323.914 468.773,326.945 469.549,329.944 470.324,332.906 471.1,335.827 471.876,338.566 472.651,340.993 473.427,343.127 474.203,344.986 474.979,346.602 475.754,347.977 476.53,349.134 477.306,350.098 478.081,350.896 478.857,351.551 479.633,352.089 480.409,352.532 481.184,352.897 481.96,353.203 482.736,353.46 483.511,353.678 484.287,353.86 485.063,354.007 485.839,354.114 486.614,354.174 487.39,354.305 488.166,354.617 488.941,355.083 489.717,355.678 490.493,356.369 491.269,357.116 492.044,357.88 492.82,358.624 493.596,359.31 494.371,359.905 495.147,360.381 495.923,360.712 496.699,360.881 497.474,360.875 498.25,360.689 499.026,360.324 499.801,359.788 500.577,359.093 501.353,358.259 502.129,357.308 502.904,356.266 503.68,355.164 504.456,354.031 505.231,352.898 506.007,351.795 506.783,350.751 507.559,349.79 508.334,348.935 509.11,348.202 509.886,347.606 510.661,347.153 511.437,346.846 512.213,346.682 512.989,346.654 513.764,346.749 514.54,346.952 515.316,347.244 516.091,347.601 516.867,348.001 517.643,348.419 518.419,348.832 519.194,349.215 519.97,349.547 520.746,349.808 521.521,349.984 522.297,350.061 523.073,350.03 523.849,349.886 524.624,349.63 525.4,349.265 526.176,348.798 526.951,348.239 527.727,347.603 528.503,346.906 529.279,346.165 530.054,345.4 530.83,344.63 531.606,343.874 532.381,343.15 533.157,342.475 533.933,341.862 534.709,341.325 535.484,340.871 536.26,340.506 537.036,340.234 537.811,340.053 538.587,339.959 539.363,339.945 540.139,340.003 540.914,340.12 541.69,340.283 542.466,340.477 543.241,340.687 544.017,340.899 544.793,341.096 545.569,341.265 546.344,341.394 547.12,341.471 547.896,341.488 548.671,341.439 549.447,341.321 550.223,341.132 550.999,340.873 551.774,340.549 552.55,340.166 553.326,339.731 554.101,339.256 554.877,338.75 555.653,338.226 556.429,337.695 557.204,337.17 557.98,336.662 558.756,336.182 559.531,335.74 560.307,335.343 561.083,334.998 561.859,334.708 562.634,334.476 563.41,334.302 564.186,334.184 564.961,334.119 565.737,334.1 566.513,334.121 567.289,334.173 568.064,334.248 568.84,334.337 569.616,334.429 570.391,334.514 571.167,334.585 571.943,334.633 572.719,334.65 573.494,334.632 574.27,334.573 575.046,334.471 575.821,334.324 576.597,334.134 577.373,333.902 578.149,333.632 578.924,333.328 579.7,332.997 580.476,332.645 581.251,332.279 582.027,331.908 582.803,331.538 583.579,331.177 584.354,330.832 585.13,330.51 585.906,330.214 586.681,329.951 587.457,329.722 588.233,329.529 589.009,329.373 589.784,329.253 590.56,329.167 591.336,329.112 592.111,329.083 592.887,329.075 593.663,329.084 594.439,329.103 595.214,329.126 595.99,329.147 596.766,329.161 597.541,329.162 598.317,329.145 599.093,329.106 599.869,329.043 600.644,328.953 601.42,328.836 602.196,328.691 602.971,328.52 603.747,328.324 604.523,328.106 605.299,327.87 606.074,327.62 606.85,327.361 607.626,327.096 608.401,326.831 609.177,326.571 609.953,326.32 610.729,326.082 611.504,325.86 612.28,325.658 613.056,325.477 613.831,325.32 614.607,325.185 615.383,325.073 616.159,324.984 616.934,324.914 617.71,324.862 618.486,324.825 619.261,324.799 620.037,324.781 620.813,324.766 621.589,324.752 622.364,324.734 623.14,324.708 623.916,324.673 624.691,324.625 625.467,324.562 626.243,324.483 627.019,324.387 627.794,324.274 628.57,324.144 629.346,323.998 630.121,323.838 630.897,323.666 631.673,323.485 632.449,323.296 633.224,323.104 634,322.912 " />
</g>

<g fill="#ffffff" fill-opacity="1" stroke="none" transform="matrix(6e-05,0,0,6e-05,-18.5,-14.4)"
font-family="Helvetica" font-size="16" font-weight="400" font-style="normal" 
>
<path vector-effect="none" fill-rule="evenodd" d="M4.85e+06,450000 L4.85e+06,850000 L6.21e+06,850000 L6.21e+06,450000 L4.85e+06,450000"/>
</g>

<g fill="#1171be" fill-opacity="1" stroke="#1171be" stroke-opacity="1" stroke-width="0.833333" stroke-linecap="butt" stroke-linejoin="round" transform="matrix(0.6,0,0,0.6,-18.5,-14.4)"
font-family="Helvetica" font-size="16" font-weight="400" font-style="normal" 
>
<polyline fill="none" vector-effect="none" points="490.009,56.1041 540.101,56.1041 " />
</g>

<g fill="#dd5400" fill-opacity="1" stroke="#dd5400" stroke-opacity="1" stroke-width="0.833333" stroke-linecap="butt" stroke-linejoin="round" transform="matrix(0.6,0,0,0.6,-18.5,-14.4)"
font-family="Helvetica" font-size="16" font-weight="400" font-style="normal" 
>
<polyline fill="none" vector-effect="none" points="490.009,73.8959 540.101,73.8959 " />
</g>

<g fill="#212121" fill-opacity="1" stroke="#212121" stroke-opacity="1" stroke-width="1" stroke-linecap="square" stroke-linejoin="bevel" transform="matrix(0.6,0,0,0.6,307.815,22.2625)"
font-family="Helvetica" font-size="15" font-weight="400" font-style="normal" 
>
<text fill="#212121" fill-opacity="1" stroke="none" xml:space="preserve" x="0" y="0" font-family="Helvetica" font-size="15" font-weight="400" font-style="normal" 
 >geregelt</text>
</g>

<g fill="#212121" fill-opacity="1" stroke="#212121" stroke-opacity="1" stroke-width="1" stroke-linecap="square" stroke-linejoin="bevel" transform="matrix(0.6,0,0,0.6,307.815,32.9375)"
font-family="Helvetica" font-size="15" font-weight="400" font-style="normal" 
>
<text fill="#212121" fill-opacity="1" stroke="none" xml:space="preserve" x="0" y="0" font-family="Helvetica" font-size="15" font-weight="400" font-style="normal" 
 >ungeregelt</text>
</g>

<g fill="none" stroke="#212121" stroke-opacity="1" stroke-width="0.833333" stroke-linecap="butt" stroke-linejoin="miter" stroke-miterlimit="2" transform="matrix(0.6,0,0,0.6,-18.5,-14.4)"
font-family="Helvetica" font-size="15" font-weight="400" font-style="normal" 
>
<path vector-effect="none" fill-rule="evenodd" d="M485,85 L485,45 L621,45 L621,85 L485,85"/>
</g>
</g>
</svg>
