<?xml version="1.0" encoding="UTF-8" standalone="no"?>
<svg width="129.117mm" height="84.6667mm"
 viewBox="0 0 366 240"
 xmlns="http://www.w3.org/2000/svg" xmlns:xlink="http://www.w3.org/1999/xlink"  version="1.2" baseProfile="tiny">
<title>Qt SVG Document</title>
<desc>MATLAB, The MathWorks, Inc. Version 25.1.0.2973910 R2025a Update 1</desc>
<defs>
</defs>
<g fill="none" stroke="black" stroke-width="1" fill-rule="evenodd" stroke-linecap="square" stroke-linejoin="bevel" >

<g fill="#ffffff" fill-opacity="1" stroke="none" transform="matrix(0.6,0,0,0.6,-20.9,-14.4)"
font-family="MS Shell Dlg 2" font-size="7.8" font-weight="400" font-style="normal" 
>
<path vector-effect="none" fill-rule="evenodd" d="M34,23 L645,23 L645,423 L34,423 L34,23"/>
</g>

<g fill="#ffffff" fill-opacity="1" stroke="none" transform="matrix(6e-05,0,0,6e-05,-20.9,-14.4)"
font-family="MS Shell Dlg 2" font-size="7.8" font-weight="400" font-style="normal" 
>
<path vector-effect="none" fill-rule="evenodd" d="M910000,320000 L910000,3.72e+06 L6.34e+06,3.72e+06 L6.34e+06,320000 L910000,320000"/>
</g>

<g fill="#212121" fill-opacity="0.14902" stroke="#212121" stroke-opacity="0.14902" stroke-width="0.833333" stroke-linecap="butt" stroke-linejoin="round" transform="matrix(0.6,0,0,0.6,-20.9,-14.4)"
font-family="MS Shell Dlg 2" font-size="7.8" font-weight="400" font-style="normal" 
>
<polyline fill="none" vector-effect="none" points="91,32 91,372 " />
<polyline fill="none" vector-effect="none" points="168.571,32 168.571,372 " />
<polyline fill="none" vector-effect="none" points="246.143,32 246.143,372 " />
<polyline fill="none" vector-effect="none" points="323.714,32 323.714,372 " />
<polyline fill="none" vector-effect="none" points="401.286,32 401.286,372 " />
<polyline fill="none" vector-effect="none" points="478.857,32 478.857,372 " />
<polyline fill="none" vector-effect="none" points="556.429,32 556.429,372 " />
<polyline fill="none" vector-effect="none" points="634,32 634,372 " />
<polyline fill="none" vector-effect="none" points="91,372 634,372 " />
<polyline fill="none" vector-effect="none" points="91,329.5 634,329.5 " />
<polyline fill="none" vector-effect="none" points="91,287 634,287 " />
<polyline fill="none" vector-effect="none" points="91,244.5 634,244.5 " />
<polyline fill="none" vector-effect="none" points="91,202 634,202 " />
<polyline fill="none" vector-effect="none" points="91,159.5 634,159.5 " />
<polyline fill="none" vector-effect="none" points="91,117 634,117 " />
<polyline fill="none" vector-effect="none" points="91,74.5 634,74.5 " />
<polyline fill="none" vector-effect="none" points="91,32 634,32 " />
</g>

<g fill="#212121" fill-opacity="1" stroke="#212121" stroke-opacity="1" stroke-width="1" stroke-linecap="square" stroke-linejoin="bevel" transform="matrix(0.6,0,0,0.6,180.4,235.4)"
font-family="Helvetica" font-size="18" font-weight="400" font-style="normal" 
>
<text fill="#212121" fill-opacity="1" stroke="none" xml:space="preserve" x="0" y="0" font-family="Helvetica" font-size="18" font-weight="400" font-style="normal" 
 >Zeit [s]</text>
</g>

<g fill="#212121" fill-opacity="1" stroke="#212121" stroke-opacity="1" stroke-width="0.833333" stroke-linecap="square" stroke-linejoin="round" transform="matrix(0.6,0,0,0.6,-20.9,-14.4)"
font-family="Helvetica" font-size="18" font-weight="400" font-style="normal" 
>
<polyline fill="none" vector-effect="none" points="91,372 634,372 " />
<polyline fill="none" vector-effect="none" points="91,32 634,32 " />
<polyline fill="none" vector-effect="none" points="91,372 91,366.57 " />
<polyline fill="none" vector-effect="none" points="91,37.43 91,32 " />
<polyline fill="none" vector-effect="none" points="168.571,372 168.571,366.57 " />
<polyline fill="none" vector-effect="none" points="168.571,37.43 168.571,32 " />
<polyline fill="none" vector-effect="none" points="246.143,372 246.143,366.57 " />
<polyline fill="none" vector-effect="none" points="246.143,37.43 246.143,32 " />
<polyline fill="none" vector-effect="none" points="323.714,372 323.714,366.57 " />
<polyline fill="none" vector-effect="none" points="323.714,37.43 323.714,32 " />
<polyline fill="none" vector-effect="none" points="401.286,372 401.286,366.57 " />
<polyline fill="none" vector-effect="none" points="401.286,37.43 401.286,32 " />
<polyline fill="none" vector-effect="none" points="478.857,372 478.857,366.57 " />
<polyline fill="none" vector-effect="none" points="478.857,37.43 478.857,32 " />
<polyline fill="none" vector-effect="none" points="556.429,372 556.429,366.57 " />
<polyline fill="none" vector-effect="none" points="556.429,37.43 556.429,32 " />
<polyline fill="none" vector-effect="none" points="634,372 634,366.57 " />
<polyline fill="none" vector-effect="none" points="634,37.43 634,32 " />
</g>

<g fill="#212121" fill-opacity="1" stroke="#212121" stroke-opacity="1" stroke-width="1" stroke-linecap="square" stroke-linejoin="bevel" transform="matrix(0.6,0,0,0.6,31,221.8)"
font-family="Helvetica" font-size="16" font-weight="400" font-style="normal" 
>
<text fill="#212121" fill-opacity="1" stroke="none" xml:space="preserve" x="0" y="0" font-family="Helvetica" font-size="16" font-weight="400" font-style="normal" 
 >0</text>
</g>

<g fill="#212121" fill-opacity="1" stroke="#212121" stroke-opacity="1" stroke-width="1" stroke-linecap="square" stroke-linejoin="bevel" transform="matrix(0.6,0,0,0.6,74.8429,221.8)"
font-family="Helvetica" font-size="16" font-weight="400" font-style="normal" 
>
<text fill="#212121" fill-opacity="1" stroke="none" xml:space="preserve" x="0" y="0" font-family="Helvetica" font-size="16" font-weight="400" font-style="normal" 
 >10</text>
</g>

<g fill="#212121" fill-opacity="1" stroke="#212121" stroke-opacity="1" stroke-width="1" stroke-linecap="square" stroke-linejoin="bevel" transform="matrix(0.6,0,0,0.6,121.386,221.8)"
font-family="Helvetica" font-size="16" font-weight="400" font-style="normal" 
>
<text fill="#212121" fill-opacity="1" stroke="none" xml:space="preserve" x="0" y="0" font-family="Helvetica" font-size="16" font-weight="400" font-style="normal" 
 >20</text>
</g>

<g fill="#212121" fill-opacity="1" stroke="#212121" stroke-opacity="1" stroke-width="1" stroke-linecap="square" stroke-linejoin="bevel" transform="matrix(0.6,0,0,0.6,167.929,221.8)"
font-family="Helvetica" font-size="16" font-weight="400" font-style="normal" 
>
<text fill="#212121" fill-opacity="1" stroke="none" xml:space="preserve" x="0" y="0" font-family="Helvetica" font-size="16" font-weight="400" font-style="normal" 
 >30</text>
</g>

<g fill="#212121" fill-opacity="1" stroke="#212121" stroke-opacity="1" stroke-width="1" stroke-linecap="square" stroke-linejoin="bevel" transform="matrix(0.6,0,0,0.6,214.471,221.8)"
font-family="Helvetica" font-size="16" font-weight="400" font-style="normal" 
>
<text fill="#212121" fill-opacity="1" stroke="none" xml:space="preserve" x="0" y="0" font-family="Helvetica" font-size="16" font-weight="400" font-style="normal" 
 >40</text>
</g>

<g fill="#212121" fill-opacity="1" stroke="#212121" stroke-opacity="1" stroke-width="1" stroke-linecap="square" stroke-linejoin="bevel" transform="matrix(0.6,0,0,0.6,261.014,221.8)"
font-family="Helvetica" font-size="16" font-weight="400" font-style="normal" 
>
<text fill="#212121" fill-opacity="1" stroke="none" xml:space="preserve" x="0" y="0" font-family="Helvetica" font-size="16" font-weight="400" font-style="normal" 
 >50</text>
</g>

<g fill="#212121" fill-opacity="1" stroke="#212121" stroke-opacity="1" stroke-width="1" stroke-linecap="square" stroke-linejoin="bevel" transform="matrix(0.6,0,0,0.6,307.557,221.8)"
font-family="Helvetica" font-size="16" font-weight="400" font-style="normal" 
>
<text fill="#212121" fill-opacity="1" stroke="none" xml:space="preserve" x="0" y="0" font-family="Helvetica" font-size="16" font-weight="400" font-style="normal" 
 >60</text>
</g>

<g fill="#212121" fill-opacity="1" stroke="#212121" stroke-opacity="1" stroke-width="1" stroke-linecap="square" stroke-linejoin="bevel" transform="matrix(0.6,0,0,0.6,354.1,221.8)"
font-family="Helvetica" font-size="16" font-weight="400" font-style="normal" 
>
<text fill="#212121" fill-opacity="1" stroke="none" xml:space="preserve" x="0" y="0" font-family="Helvetica" font-size="16" font-weight="400" font-style="normal" 
 >70</text>
</g>

<g fill="#212121" fill-opacity="1" stroke="#212121" stroke-opacity="1" stroke-width="1" stroke-linecap="square" stroke-linejoin="bevel" transform="matrix(0,-0.6,0.6,0,9.3,150.6)"
font-family="Helvetica" font-size="18" font-weight="400" font-style="normal" 
>
<text fill="#212121" fill-opacity="1" stroke="none" xml:space="preserve" x="0" y="0" font-family="Helvetica" font-size="18" font-weight="400" font-style="normal" 
 >Inputspannung [V]</text>
</g>

<g fill="#212121" fill-opacity="1" stroke="#212121" stroke-opacity="1" stroke-width="0.833333" stroke-linecap="square" stroke-linejoin="round" transform="matrix(0.6,0,0,0.6,-20.9,-14.4)"
font-family="Helvetica" font-size="18" font-weight="400" font-style="normal" 
>
<polyline fill="none" vector-effect="none" points="91,372 91,32 " />
<polyline fill="none" vector-effect="none" points="634,372 634,32 " />
<polyline fill="none" vector-effect="none" points="91,372 96.43,372 " />
<polyline fill="none" vector-effect="none" points="628.57,372 634,372 " />
<polyline fill="none" vector-effect="none" points="91,329.5 96.43,329.5 " />
<polyline fill="none" vector-effect="none" points="628.57,329.5 634,329.5 " />
<polyline fill="none" vector-effect="none" points="91,287 96.43,287 " />
<polyline fill="none" vector-effect="none" points="628.57,287 634,287 " />
<polyline fill="none" vector-effect="none" points="91,244.5 96.43,244.5 " />
<polyline fill="none" vector-effect="none" points="628.57,244.5 634,244.5 " />
<polyline fill="none" vector-effect="none" points="91,202 96.43,202 " />
<polyline fill="none" vector-effect="none" points="628.57,202 634,202 " />
<polyline fill="none" vector-effect="none" points="91,159.5 96.43,159.5 " />
<polyline fill="none" vector-effect="none" points="628.57,159.5 634,159.5 " />
<polyline fill="none" vector-effect="none" points="91,117 96.43,117 " />
<polyline fill="none" vector-effect="none" points="628.57,117 634,117 " />
<polyline fill="none" vector-effect="none" points="91,74.5 96.43,74.5 " />
<polyline fill="none" vector-effect="none" points="628.57,74.5 634,74.5 " />
<polyline fill="none" vector-effect="none" points="91,32 96.43,32 " />
<polyline fill="none" vector-effect="none" points="628.57,32 634,32 " />
</g>

<g fill="#212121" fill-opacity="1" stroke="#212121" stroke-opacity="1" stroke-width="1" stroke-linecap="square" stroke-linejoin="bevel" transform="matrix(0.6,0,0,0.6,15.9,212.1)"
font-family="Helvetica" font-size="16" font-weight="400" font-style="normal" 
>
<text fill="#212121" fill-opacity="1" stroke="none" xml:space="preserve" x="0" y="0" font-family="Helvetica" font-size="16" font-weight="400" font-style="normal" 
 >-40</text>
</g>

<g fill="#212121" fill-opacity="1" stroke="#212121" stroke-opacity="1" stroke-width="1" stroke-linecap="square" stroke-linejoin="bevel" transform="matrix(0.6,0,0,0.6,15.9,186.6)"
font-family="Helvetica" font-size="16" font-weight="400" font-style="normal" 
>
<text fill="#212121" fill-opacity="1" stroke="none" xml:space="preserve" x="0" y="0" font-family="Helvetica" font-size="16" font-weight="400" font-style="normal" 
 >-30</text>
</g>

<g fill="#212121" fill-opacity="1" stroke="#212121" stroke-opacity="1" stroke-width="1" stroke-linecap="square" stroke-linejoin="bevel" transform="matrix(0.6,0,0,0.6,15.9,161.1)"
font-family="Helvetica" font-size="16" font-weight="400" font-style="normal" 
>
<text fill="#212121" fill-opacity="1" stroke="none" xml:space="preserve" x="0" y="0" font-family="Helvetica" font-size="16" font-weight="400" font-style="normal" 
 >-20</text>
</g>

<g fill="#212121" fill-opacity="1" stroke="#212121" stroke-opacity="1" stroke-width="1" stroke-linecap="square" stroke-linejoin="bevel" transform="matrix(0.6,0,0,0.6,15.9,135.6)"
font-family="Helvetica" font-size="16" font-weight="400" font-style="normal" 
>
<text fill="#212121" fill-opacity="1" stroke="none" xml:space="preserve" x="0" y="0" font-family="Helvetica" font-size="16" font-weight="400" font-style="normal" 
 >-10</text>
</g>

<g fill="#212121" fill-opacity="1" stroke="#212121" stroke-opacity="1" stroke-width="1" stroke-linecap="square" stroke-linejoin="bevel" transform="matrix(0.6,0,0,0.6,24.3,110.1)"
font-family="Helvetica" font-size="16" font-weight="400" font-style="normal" 
>
<text fill="#212121" fill-opacity="1" stroke="none" xml:space="preserve" x="0" y="0" font-family="Helvetica" font-size="16" font-weight="400" font-style="normal" 
 >0</text>
</g>

<g fill="#212121" fill-opacity="1" stroke="#212121" stroke-opacity="1" stroke-width="1" stroke-linecap="square" stroke-linejoin="bevel" transform="matrix(0.6,0,0,0.6,18.9,84.6)"
font-family="Helvetica" font-size="16" font-weight="400" font-style="normal" 
>
<text fill="#212121" fill-opacity="1" stroke="none" xml:space="preserve" x="0" y="0" font-family="Helvetica" font-size="16" font-weight="400" font-style="normal" 
 >10</text>
</g>

<g fill="#212121" fill-opacity="1" stroke="#212121" stroke-opacity="1" stroke-width="1" stroke-linecap="square" stroke-linejoin="bevel" transform="matrix(0.6,0,0,0.6,18.9,59.1)"
font-family="Helvetica" font-size="16" font-weight="400" font-style="normal" 
>
<text fill="#212121" fill-opacity="1" stroke="none" xml:space="preserve" x="0" y="0" font-family="Helvetica" font-size="16" font-weight="400" font-style="normal" 
 >20</text>
</g>

<g fill="#212121" fill-opacity="1" stroke="#212121" stroke-opacity="1" stroke-width="1" stroke-linecap="square" stroke-linejoin="bevel" transform="matrix(0.6,0,0,0.6,18.9,33.6)"
font-family="Helvetica" font-size="16" font-weight="400" font-style="normal" 
>
<text fill="#212121" fill-opacity="1" stroke="none" xml:space="preserve" x="0" y="0" font-family="Helvetica" font-size="16" font-weight="400" font-style="normal" 
 >30</text>
</g>

<g fill="#212121" fill-opacity="1" stroke="#212121" stroke-opacity="1" stroke-width="1" stroke-linecap="square" stroke-linejoin="bevel" transform="matrix(0.6,0,0,0.6,18.9,8.1)"
font-family="Helvetica" font-size="16" font-weight="400" font-style="normal" 
>
<text fill="#212121" fill-opacity="1" stroke="none" xml:space="preserve" x="0" y="0" font-family="Helvetica" font-size="16" font-weight="400" font-style="normal" 
 >40</text>
</g>

<g fill="none" stroke="#1171be" stroke-opacity="1" stroke-width="0.833333" stroke-linecap="butt" stroke-linejoin="round" transform="matrix(0.6,0,0,0.6,-20.9,-14.4)"
font-family="Helvetica" font-size="16" font-weight="400" font-style="normal" 
>
<polyline fill="none" vector-effect="none" points="91,202 91.7757,202 92.5514,202 93.3271,202 94.1029,202 94.8786,202 95.6543,202 96.43,202 97.2057,202 97.9814,202 98.7571,202 99.5329,202 100.309,202 101.084,202 101.86,202 102.636,202 103.411,202 104.187,202 104.963,202 105.739,202 106.514,202 107.29,202 108.066,202 108.841,202 109.617,202 110.393,202 111.169,202 111.944,202 112.72,202 113.496,202 114.271,202 115.047,202 115.823,202 116.599,202 117.374,202 118.15,202 118.926,202 119.701,202 120.477,202 121.253,202 122.029,202 122.804,202 123.58,202 124.356,202 125.131,202 125.907,202 126.683,202 127.459,202 128.234,202 129.01,202 129.786,202 130.561,202 131.337,202 132.113,202 132.889,202 133.664,202 134.44,202 135.216,202 135.991,202 136.767,202 137.543,202 138.319,202 139.094,202 139.87,202 140.646,202 141.421,202 142.197,202 142.973,202 143.749,202 144.524,202 145.3,202 146.076,202 146.851,202 147.627,202 148.403,202 149.179,202 149.954,202 150.73,202 151.506,202 152.281,202 153.057,202 153.833,202 154.609,202 155.384,202 156.16,202 156.936,202 157.711,202 158.487,202 159.263,202 160.039,202 160.814,202 161.59,202 162.366,202 163.141,202 163.917,202 164.693,202 165.469,202 166.244,202 167.02,202 167.796,202 168.571,202 169.347,195.625 170.123,189.25 170.899,182.875 171.674,176.5 172.45,170.125 173.226,163.75 174.001,157.375 174.777,151 175.553,144.625 176.329,138.25 177.104,131.875 177.88,125.5 178.656,119.125 179.431,112.75 180.207,106.375 180.983,100 181.759,93.625 182.534,87.25 183.31,80.875 184.086,74.5 184.861,74.5 185.637,74.5 186.413,74.5 187.189,74.5 187.964,74.5 188.74,74.5 189.516,74.5 190.291,74.5 191.067,74.5 191.843,74.5 192.619,74.5 193.394,74.5 194.17,74.5 194.946,74.5 195.721,74.5 196.497,74.5 197.273,74.5 198.049,74.5 198.824,74.5 199.6,74.5 200.376,74.5 201.151,74.5 201.927,74.5 202.703,74.5 203.479,74.5 204.254,74.5 205.03,74.5 205.806,74.5 206.581,74.5 207.357,74.5 208.133,77.6875 208.909,80.875 209.684,84.0625 210.46,87.25 211.236,90.4375 212.011,93.625 212.787,96.8125 213.563,100 214.339,103.188 215.114,106.375 215.89,109.563 216.666,112.75 217.441,115.938 218.217,119.125 218.993,122.313 219.769,125.5 220.544,128.688 221.32,131.875 222.096,135.063 222.871,138.25 223.647,138.25 224.423,138.25 225.199,138.25 225.974,138.25 226.75,138.25 227.526,138.25 228.301,138.25 229.077,138.25 229.853,138.25 230.629,138.25 231.404,138.25 232.18,138.25 232.956,138.25 233.731,138.25 234.507,138.25 235.283,138.25 236.059,138.25 236.834,138.25 237.61,138.25 238.386,138.25 239.161,138.25 239.937,138.25 240.713,138.25 241.489,138.25 242.264,138.25 243.04,138.25 243.816,138.25 244.591,138.25 245.367,138.25 246.143,138.25 246.919,138.25 247.694,138.25 248.47,138.25 249.246,138.25 250.021,138.25 250.797,138.25 251.573,138.25 252.349,138.25 253.124,138.25 253.9,138.25 254.676,138.25 255.451,138.25 256.227,138.25 257.003,138.25 257.779,138.25 258.554,138.25 259.33,138.25 260.106,138.25 260.881,138.25 261.657,138.25 262.433,138.25 263.209,138.25 263.984,138.25 264.76,138.25 265.536,138.25 266.311,138.25 267.087,138.25 267.863,138.25 268.639,138.25 269.414,138.25 270.19,138.25 270.966,138.25 271.741,138.25 272.517,138.25 273.293,138.25 274.069,138.25 274.844,138.25 275.62,138.25 276.396,138.25 277.171,138.25 277.947,138.25 278.723,138.25 279.499,138.25 280.274,138.25 281.05,138.25 281.826,138.25 282.601,138.25 283.377,138.25 284.153,138.25 284.929,138.25 285.704,138.25 286.48,138.25 287.256,138.25 288.031,138.25 288.807,138.25 289.583,138.25 290.359,138.25 291.134,138.25 291.91,138.25 292.686,138.25 293.461,138.25 294.237,138.25 295.013,138.25 295.789,138.25 296.564,138.25 297.34,138.25 298.116,138.25 298.891,138.25 299.667,138.25 300.443,138.25 301.219,138.25 301.994,138.25 302.77,138.25 303.546,138.25 304.321,138.25 305.097,138.25 305.873,138.25 306.649,138.25 307.424,138.25 308.2,138.25 308.976,138.25 309.751,138.25 310.527,138.25 311.303,138.25 312.079,138.25 312.854,138.25 313.63,138.25 314.406,138.25 315.181,138.25 315.957,138.25 316.733,138.25 317.509,138.25 318.284,138.25 319.06,138.25 319.836,138.25 320.611,138.25 321.387,138.25 322.163,138.25 322.939,138.25 323.714,138.25 324.49,138.25 325.266,138.25 326.041,138.25 326.817,138.25 327.593,138.25 328.369,138.25 329.144,138.25 329.92,138.25 330.696,138.25 331.471,138.25 332.247,138.25 333.023,138.25 333.799,138.25 334.574,138.25 335.35,138.25 336.126,138.25 336.901,138.25 337.677,138.25 338.453,138.25 339.229,138.25 340.004,138.25 340.78,138.25 341.556,138.25 342.331,138.25 343.107,138.25 343.883,138.25 344.659,138.25 345.434,138.25 346.21,138.25 346.986,138.25 347.761,138.25 348.537,138.25 349.313,138.25 350.089,138.25 350.864,138.25 351.64,138.25 352.416,138.25 353.191,138.25 353.967,138.25 354.743,138.25 355.519,138.25 356.294,138.25 357.07,138.25 357.846,138.25 358.621,138.25 359.397,138.25 360.173,138.25 360.949,138.25 361.724,138.25 362.5,138.25 363.276,138.25 364.051,138.25 364.827,138.25 365.603,138.25 366.379,138.25 367.154,138.25 367.93,138.25 368.706,138.25 369.481,138.25 370.257,138.25 371.033,138.25 371.809,138.25 372.584,138.25 373.36,138.25 374.136,138.25 374.911,138.25 375.687,138.25 376.463,138.25 377.239,138.25 378.014,138.25 378.79,138.25 379.566,138.25 380.341,138.25 381.117,138.25 381.893,138.25 382.669,138.25 383.444,138.25 384.22,138.25 384.996,138.25 385.771,138.25 386.547,138.25 387.323,138.25 388.099,138.25 388.874,138.25 389.65,138.25 390.426,138.25 391.201,138.25 391.977,138.25 392.753,138.25 393.529,138.25 394.304,138.25 395.08,138.25 395.856,138.25 396.631,138.25 397.407,138.25 398.183,138.25 398.959,138.25 399.734,138.25 400.51,138.25 401.286,138.25 402.061,144.625 402.837,151 403.613,157.375 404.389,163.75 405.164,170.125 405.94,176.5 406.716,182.875 407.491,189.25 408.267,195.625 409.043,202 409.819,208.375 410.594,214.75 411.37,221.125 412.146,227.5 412.921,233.875 413.697,240.25 414.473,246.625 415.249,253 416.024,259.375 416.8,265.75 417.576,272.125 418.351,278.5 419.127,284.875 419.903,291.25 420.679,297.625 421.454,304 422.23,310.375 423.006,316.75 423.781,323.125 424.557,329.5 425.333,329.5 426.109,329.5 426.884,329.5 427.66,329.5 428.436,329.5 429.211,329.5 429.987,329.5 430.763,329.5 431.539,329.5 432.314,329.5 433.09,329.5 433.866,329.5 434.641,329.5 435.417,329.5 436.193,329.5 436.969,329.5 437.744,329.5 438.52,329.5 439.296,329.5 440.071,329.5 440.847,329.5 441.623,329.5 442.399,329.5 443.174,329.5 443.95,329.5 444.726,329.5 445.501,329.5 446.277,329.5 447.053,329.5 447.829,329.5 448.604,329.5 449.38,329.5 450.156,329.5 450.931,329.5 451.707,329.5 452.483,329.5 453.259,329.5 454.034,329.5 454.81,329.5 455.586,329.5 456.361,329.5 457.137,329.5 457.913,329.5 458.689,329.5 459.464,329.5 460.24,329.5 461.016,329.5 461.791,329.5 462.567,329.5 463.343,329.5 464.119,329.5 464.894,329.5 465.67,329.5 466.446,329.5 467.221,329.5 467.997,329.5 468.773,329.5 469.549,329.5 470.324,329.5 471.1,329.5 471.876,323.125 472.651,316.75 473.427,310.375 474.203,304 474.979,297.625 475.754,291.25 476.53,284.875 477.306,278.5 478.081,272.125 478.857,265.75 479.633,259.375 480.409,253 481.184,246.625 481.96,240.25 482.736,233.875 483.511,227.5 484.287,221.125 485.063,214.75 485.839,208.375 486.614,202 487.39,202 488.166,202 488.941,202 489.717,202 490.493,202 491.269,202 492.044,202 492.82,202 493.596,202 494.371,202 495.147,202 495.923,202 496.699,202 497.474,202 498.25,202 499.026,202 499.801,202 500.577,202 501.353,202 502.129,202 502.904,202 503.68,202 504.456,202 505.231,202 506.007,202 506.783,202 507.559,202 508.334,202 509.11,202 509.886,202 510.661,202 511.437,202 512.213,202 512.989,202 513.764,202 514.54,202 515.316,202 516.091,202 516.867,202 517.643,202 518.419,202 519.194,202 519.97,202 520.746,202 521.521,202 522.297,202 523.073,202 523.849,202 524.624,202 525.4,202 526.176,202 526.951,202 527.727,202 528.503,202 529.279,202 530.054,202 530.83,202 531.606,202 532.381,202 533.157,202 533.933,202 534.709,202 535.484,202 536.26,202 537.036,202 537.811,202 538.587,202 539.363,202 540.139,202 540.914,202 541.69,202 542.466,202 543.241,202 544.017,202 544.793,202 545.569,202 546.344,202 547.12,202 547.896,202 548.671,202 549.447,202 550.223,202 550.999,202 551.774,202 552.55,202 553.326,202 554.101,202 554.877,202 555.653,202 556.429,202 557.204,202 557.98,202 558.756,202 559.531,202 560.307,202 561.083,202 561.859,202 562.634,202 563.41,202 564.186,202 564.961,202 565.737,202 566.513,202 567.289,202 568.064,202 568.84,202 569.616,202 570.391,202 571.167,202 571.943,202 572.719,202 573.494,202 574.27,202 575.046,202 575.821,202 576.597,202 577.373,202 578.149,202 578.924,202 579.7,202 580.476,202 581.251,202 582.027,202 582.803,202 583.579,202 584.354,202 585.13,202 585.906,202 586.681,202 587.457,202 588.233,202 589.009,202 589.784,202 590.56,202 591.336,202 592.111,202 592.887,202 593.663,202 594.439,202 595.214,202 595.99,202 596.766,202 597.541,202 598.317,202 599.093,202 599.869,202 600.644,202 601.42,202 602.196,202 602.971,202 603.747,202 604.523,202 605.299,202 606.074,202 606.85,202 607.626,202 608.401,202 609.177,202 609.953,202 610.729,202 611.504,202 612.28,202 613.056,202 613.831,202 614.607,202 615.383,202 616.159,202 616.934,202 617.71,202 618.486,202 619.261,202 620.037,202 620.813,202 621.589,202 622.364,202 623.14,202 623.916,202 624.691,202 625.467,202 626.243,202 627.019,202 627.794,202 628.57,202 629.346,202 630.121,202 630.897,202 631.673,202 632.449,202 633.224,202 634,202 " />
</g>
</g>
</svg>
