<?xml version="1.0" encoding="UTF-8" standalone="no"?>
<svg width="129.117mm" height="84.6667mm"
 viewBox="0 0 366 240"
 xmlns="http://www.w3.org/2000/svg" xmlns:xlink="http://www.w3.org/1999/xlink"  version="1.2" baseProfile="tiny">
<title>Qt SVG Document</title>
<desc>MATLAB, The MathWorks, Inc. Version 25.1.0.2973910 R2025a Update 1</desc>
<defs>
</defs>
<g fill="none" stroke="black" stroke-width="1" fill-rule="evenodd" stroke-linecap="square" stroke-linejoin="bevel" >

<g fill="#ffffff" fill-opacity="1" stroke="none" transform="matrix(0.6,0,0,0.6,-20.9,-14.4)"
font-family="MS Shell Dlg 2" font-size="7.8" font-weight="400" font-style="normal" 
>
<path vector-effect="none" fill-rule="evenodd" d="M34,23 L645,23 L645,423 L34,423 L34,23"/>
</g>

<g fill="#ffffff" fill-opacity="1" stroke="none" transform="matrix(6e-05,0,0,6e-05,-20.9,-14.4)"
font-family="MS Shell Dlg 2" font-size="7.8" font-weight="400" font-style="normal" 
>
<path vector-effect="none" fill-rule="evenodd" d="M910000,320000 L910000,3.72e+06 L6.34e+06,3.72e+06 L6.34e+06,320000 L910000,320000"/>
</g>

<g fill="#212121" fill-opacity="0.14902" stroke="#212121" stroke-opacity="0.14902" stroke-width="0.833333" stroke-linecap="butt" stroke-linejoin="round" transform="matrix(0.6,0,0,0.6,-20.9,-14.4)"
font-family="MS Shell Dlg 2" font-size="7.8" font-weight="400" font-style="normal" 
>
<polyline fill="none" vector-effect="none" points="91,32 91,372 " />
<polyline fill="none" vector-effect="none" points="168.571,32 168.571,372 " />
<polyline fill="none" vector-effect="none" points="246.143,32 246.143,372 " />
<polyline fill="none" vector-effect="none" points="323.714,32 323.714,372 " />
<polyline fill="none" vector-effect="none" points="401.286,32 401.286,372 " />
<polyline fill="none" vector-effect="none" points="478.857,32 478.857,372 " />
<polyline fill="none" vector-effect="none" points="556.429,32 556.429,372 " />
<polyline fill="none" vector-effect="none" points="634,32 634,372 " />
<polyline fill="none" vector-effect="none" points="91,372 634,372 " />
<polyline fill="none" vector-effect="none" points="91,323.429 634,323.429 " />
<polyline fill="none" vector-effect="none" points="91,274.857 634,274.857 " />
<polyline fill="none" vector-effect="none" points="91,226.286 634,226.286 " />
<polyline fill="none" vector-effect="none" points="91,177.714 634,177.714 " />
<polyline fill="none" vector-effect="none" points="91,129.143 634,129.143 " />
<polyline fill="none" vector-effect="none" points="91,80.5714 634,80.5714 " />
<polyline fill="none" vector-effect="none" points="91,32 634,32 " />
</g>

<g fill="#212121" fill-opacity="1" stroke="#212121" stroke-opacity="1" stroke-width="1" stroke-linecap="square" stroke-linejoin="bevel" transform="matrix(0.6,0,0,0.6,180.4,235.4)"
font-family="Helvetica" font-size="18" font-weight="400" font-style="normal" 
>
<text fill="#212121" fill-opacity="1" stroke="none" xml:space="preserve" x="0" y="0" font-family="Helvetica" font-size="18" font-weight="400" font-style="normal" 
 >Zeit [s]</text>
</g>

<g fill="#212121" fill-opacity="1" stroke="#212121" stroke-opacity="1" stroke-width="0.833333" stroke-linecap="square" stroke-linejoin="round" transform="matrix(0.6,0,0,0.6,-20.9,-14.4)"
font-family="Helvetica" font-size="18" font-weight="400" font-style="normal" 
>
<polyline fill="none" vector-effect="none" points="91,372 634,372 " />
<polyline fill="none" vector-effect="none" points="91,32 634,32 " />
<polyline fill="none" vector-effect="none" points="91,372 91,366.57 " />
<polyline fill="none" vector-effect="none" points="91,37.43 91,32 " />
<polyline fill="none" vector-effect="none" points="168.571,372 168.571,366.57 " />
<polyline fill="none" vector-effect="none" points="168.571,37.43 168.571,32 " />
<polyline fill="none" vector-effect="none" points="246.143,372 246.143,366.57 " />
<polyline fill="none" vector-effect="none" points="246.143,37.43 246.143,32 " />
<polyline fill="none" vector-effect="none" points="323.714,372 323.714,366.57 " />
<polyline fill="none" vector-effect="none" points="323.714,37.43 323.714,32 " />
<polyline fill="none" vector-effect="none" points="401.286,372 401.286,366.57 " />
<polyline fill="none" vector-effect="none" points="401.286,37.43 401.286,32 " />
<polyline fill="none" vector-effect="none" points="478.857,372 478.857,366.57 " />
<polyline fill="none" vector-effect="none" points="478.857,37.43 478.857,32 " />
<polyline fill="none" vector-effect="none" points="556.429,372 556.429,366.57 " />
<polyline fill="none" vector-effect="none" points="556.429,37.43 556.429,32 " />
<polyline fill="none" vector-effect="none" points="634,372 634,366.57 " />
<polyline fill="none" vector-effect="none" points="634,37.43 634,32 " />
</g>

<g fill="#212121" fill-opacity="1" stroke="#212121" stroke-opacity="1" stroke-width="1" stroke-linecap="square" stroke-linejoin="bevel" transform="matrix(0.6,0,0,0.6,31,221.8)"
font-family="Helvetica" font-size="16" font-weight="400" font-style="normal" 
>
<text fill="#212121" fill-opacity="1" stroke="none" xml:space="preserve" x="0" y="0" font-family="Helvetica" font-size="16" font-weight="400" font-style="normal" 
 >0</text>
</g>

<g fill="#212121" fill-opacity="1" stroke="#212121" stroke-opacity="1" stroke-width="1" stroke-linecap="square" stroke-linejoin="bevel" transform="matrix(0.6,0,0,0.6,74.8429,221.8)"
font-family="Helvetica" font-size="16" font-weight="400" font-style="normal" 
>
<text fill="#212121" fill-opacity="1" stroke="none" xml:space="preserve" x="0" y="0" font-family="Helvetica" font-size="16" font-weight="400" font-style="normal" 
 >10</text>
</g>

<g fill="#212121" fill-opacity="1" stroke="#212121" stroke-opacity="1" stroke-width="1" stroke-linecap="square" stroke-linejoin="bevel" transform="matrix(0.6,0,0,0.6,121.386,221.8)"
font-family="Helvetica" font-size="16" font-weight="400" font-style="normal" 
>
<text fill="#212121" fill-opacity="1" stroke="none" xml:space="preserve" x="0" y="0" font-family="Helvetica" font-size="16" font-weight="400" font-style="normal" 
 >20</text>
</g>

<g fill="#212121" fill-opacity="1" stroke="#212121" stroke-opacity="1" stroke-width="1" stroke-linecap="square" stroke-linejoin="bevel" transform="matrix(0.6,0,0,0.6,167.929,221.8)"
font-family="Helvetica" font-size="16" font-weight="400" font-style="normal" 
>
<text fill="#212121" fill-opacity="1" stroke="none" xml:space="preserve" x="0" y="0" font-family="Helvetica" font-size="16" font-weight="400" font-style="normal" 
 >30</text>
</g>

<g fill="#212121" fill-opacity="1" stroke="#212121" stroke-opacity="1" stroke-width="1" stroke-linecap="square" stroke-linejoin="bevel" transform="matrix(0.6,0,0,0.6,214.471,221.8)"
font-family="Helvetica" font-size="16" font-weight="400" font-style="normal" 
>
<text fill="#212121" fill-opacity="1" stroke="none" xml:space="preserve" x="0" y="0" font-family="Helvetica" font-size="16" font-weight="400" font-style="normal" 
 >40</text>
</g>

<g fill="#212121" fill-opacity="1" stroke="#212121" stroke-opacity="1" stroke-width="1" stroke-linecap="square" stroke-linejoin="bevel" transform="matrix(0.6,0,0,0.6,261.014,221.8)"
font-family="Helvetica" font-size="16" font-weight="400" font-style="normal" 
>
<text fill="#212121" fill-opacity="1" stroke="none" xml:space="preserve" x="0" y="0" font-family="Helvetica" font-size="16" font-weight="400" font-style="normal" 
 >50</text>
</g>

<g fill="#212121" fill-opacity="1" stroke="#212121" stroke-opacity="1" stroke-width="1" stroke-linecap="square" stroke-linejoin="bevel" transform="matrix(0.6,0,0,0.6,307.557,221.8)"
font-family="Helvetica" font-size="16" font-weight="400" font-style="normal" 
>
<text fill="#212121" fill-opacity="1" stroke="none" xml:space="preserve" x="0" y="0" font-family="Helvetica" font-size="16" font-weight="400" font-style="normal" 
 >60</text>
</g>

<g fill="#212121" fill-opacity="1" stroke="#212121" stroke-opacity="1" stroke-width="1" stroke-linecap="square" stroke-linejoin="bevel" transform="matrix(0.6,0,0,0.6,354.1,221.8)"
font-family="Helvetica" font-size="16" font-weight="400" font-style="normal" 
>
<text fill="#212121" fill-opacity="1" stroke="none" xml:space="preserve" x="0" y="0" font-family="Helvetica" font-size="16" font-weight="400" font-style="normal" 
 >70</text>
</g>

<g fill="#212121" fill-opacity="1" stroke="#212121" stroke-opacity="1" stroke-width="1" stroke-linecap="square" stroke-linejoin="bevel" transform="matrix(0,-0.6,0.6,0,9.3,139.2)"
font-family="Helvetica" font-size="18" font-weight="400" font-style="normal" 
>
<text fill="#212121" fill-opacity="1" stroke="none" xml:space="preserve" x="0" y="0" font-family="Helvetica" font-size="18" font-weight="400" font-style="normal" 
 >Moment [Nm]</text>
</g>

<g fill="#212121" fill-opacity="1" stroke="#212121" stroke-opacity="1" stroke-width="0.833333" stroke-linecap="square" stroke-linejoin="round" transform="matrix(0.6,0,0,0.6,-20.9,-14.4)"
font-family="Helvetica" font-size="18" font-weight="400" font-style="normal" 
>
<polyline fill="none" vector-effect="none" points="91,372 91,32 " />
<polyline fill="none" vector-effect="none" points="634,372 634,32 " />
<polyline fill="none" vector-effect="none" points="91,372 96.43,372 " />
<polyline fill="none" vector-effect="none" points="628.57,372 634,372 " />
<polyline fill="none" vector-effect="none" points="91,323.429 96.43,323.429 " />
<polyline fill="none" vector-effect="none" points="628.57,323.429 634,323.429 " />
<polyline fill="none" vector-effect="none" points="91,274.857 96.43,274.857 " />
<polyline fill="none" vector-effect="none" points="628.57,274.857 634,274.857 " />
<polyline fill="none" vector-effect="none" points="91,226.286 96.43,226.286 " />
<polyline fill="none" vector-effect="none" points="628.57,226.286 634,226.286 " />
<polyline fill="none" vector-effect="none" points="91,177.714 96.43,177.714 " />
<polyline fill="none" vector-effect="none" points="628.57,177.714 634,177.714 " />
<polyline fill="none" vector-effect="none" points="91,129.143 96.43,129.143 " />
<polyline fill="none" vector-effect="none" points="628.57,129.143 634,129.143 " />
<polyline fill="none" vector-effect="none" points="91,80.5714 96.43,80.5714 " />
<polyline fill="none" vector-effect="none" points="628.57,80.5714 634,80.5714 " />
<polyline fill="none" vector-effect="none" points="91,32 96.43,32 " />
<polyline fill="none" vector-effect="none" points="628.57,32 634,32 " />
</g>

<g fill="#212121" fill-opacity="1" stroke="#212121" stroke-opacity="1" stroke-width="1" stroke-linecap="square" stroke-linejoin="bevel" transform="matrix(0.6,0,0,0.6,15.9,212.1)"
font-family="Helvetica" font-size="16" font-weight="400" font-style="normal" 
>
<text fill="#212121" fill-opacity="1" stroke="none" xml:space="preserve" x="0" y="0" font-family="Helvetica" font-size="16" font-weight="400" font-style="normal" 
 >-40</text>
</g>

<g fill="#212121" fill-opacity="1" stroke="#212121" stroke-opacity="1" stroke-width="1" stroke-linecap="square" stroke-linejoin="bevel" transform="matrix(0.6,0,0,0.6,15.9,182.957)"
font-family="Helvetica" font-size="16" font-weight="400" font-style="normal" 
>
<text fill="#212121" fill-opacity="1" stroke="none" xml:space="preserve" x="0" y="0" font-family="Helvetica" font-size="16" font-weight="400" font-style="normal" 
 >-30</text>
</g>

<g fill="#212121" fill-opacity="1" stroke="#212121" stroke-opacity="1" stroke-width="1" stroke-linecap="square" stroke-linejoin="bevel" transform="matrix(0.6,0,0,0.6,15.9,153.814)"
font-family="Helvetica" font-size="16" font-weight="400" font-style="normal" 
>
<text fill="#212121" fill-opacity="1" stroke="none" xml:space="preserve" x="0" y="0" font-family="Helvetica" font-size="16" font-weight="400" font-style="normal" 
 >-20</text>
</g>

<g fill="#212121" fill-opacity="1" stroke="#212121" stroke-opacity="1" stroke-width="1" stroke-linecap="square" stroke-linejoin="bevel" transform="matrix(0.6,0,0,0.6,15.9,124.671)"
font-family="Helvetica" font-size="16" font-weight="400" font-style="normal" 
>
<text fill="#212121" fill-opacity="1" stroke="none" xml:space="preserve" x="0" y="0" font-family="Helvetica" font-size="16" font-weight="400" font-style="normal" 
 >-10</text>
</g>

<g fill="#212121" fill-opacity="1" stroke="#212121" stroke-opacity="1" stroke-width="1" stroke-linecap="square" stroke-linejoin="bevel" transform="matrix(0.6,0,0,0.6,24.3,95.5286)"
font-family="Helvetica" font-size="16" font-weight="400" font-style="normal" 
>
<text fill="#212121" fill-opacity="1" stroke="none" xml:space="preserve" x="0" y="0" font-family="Helvetica" font-size="16" font-weight="400" font-style="normal" 
 >0</text>
</g>

<g fill="#212121" fill-opacity="1" stroke="#212121" stroke-opacity="1" stroke-width="1" stroke-linecap="square" stroke-linejoin="bevel" transform="matrix(0.6,0,0,0.6,18.9,66.3857)"
font-family="Helvetica" font-size="16" font-weight="400" font-style="normal" 
>
<text fill="#212121" fill-opacity="1" stroke="none" xml:space="preserve" x="0" y="0" font-family="Helvetica" font-size="16" font-weight="400" font-style="normal" 
 >10</text>
</g>

<g fill="#212121" fill-opacity="1" stroke="#212121" stroke-opacity="1" stroke-width="1" stroke-linecap="square" stroke-linejoin="bevel" transform="matrix(0.6,0,0,0.6,18.9,37.2429)"
font-family="Helvetica" font-size="16" font-weight="400" font-style="normal" 
>
<text fill="#212121" fill-opacity="1" stroke="none" xml:space="preserve" x="0" y="0" font-family="Helvetica" font-size="16" font-weight="400" font-style="normal" 
 >20</text>
</g>

<g fill="#212121" fill-opacity="1" stroke="#212121" stroke-opacity="1" stroke-width="1" stroke-linecap="square" stroke-linejoin="bevel" transform="matrix(0.6,0,0,0.6,18.9,8.1)"
font-family="Helvetica" font-size="16" font-weight="400" font-style="normal" 
>
<text fill="#212121" fill-opacity="1" stroke="none" xml:space="preserve" x="0" y="0" font-family="Helvetica" font-size="16" font-weight="400" font-style="normal" 
 >30</text>
</g>

<g fill="none" stroke="#1171be" stroke-opacity="1" stroke-width="0.833333" stroke-linecap="butt" stroke-linejoin="round" transform="matrix(0.6,0,0,0.6,-20.9,-14.4)"
font-family="Helvetica" font-size="16" font-weight="400" font-style="normal" 
>
<polyline fill="none" vector-effect="none" points="91,177.714 91.7757,177.714 92.5514,177.714 93.3271,177.714 94.1029,177.714 94.8786,177.714 95.6543,177.714 96.43,177.714 97.2057,177.714 97.9814,177.714 98.7571,177.714 99.5329,177.714 100.309,177.714 101.084,177.714 101.86,177.714 102.636,177.714 103.411,177.714 104.187,177.714 104.963,177.714 105.739,177.714 106.514,177.714 107.29,177.714 108.066,177.714 108.841,177.714 109.617,177.714 110.393,177.714 111.169,177.714 111.944,177.714 112.72,177.714 113.496,177.714 114.271,177.714 115.047,177.714 115.823,177.714 116.599,177.714 117.374,177.714 118.15,177.714 118.926,177.714 119.701,177.714 120.477,177.714 121.253,177.714 122.029,177.714 122.804,177.714 123.58,177.714 124.356,177.714 125.131,177.714 125.907,177.714 126.683,177.714 127.459,177.714 128.234,177.714 129.01,177.714 129.786,177.714 130.561,177.714 131.337,177.714 132.113,177.714 132.889,177.714 133.664,177.714 134.44,177.714 135.216,177.714 135.991,177.714 136.767,177.714 137.543,177.714 138.319,177.714 139.094,177.714 139.87,177.714 140.646,177.714 141.421,177.714 142.197,177.714 142.973,177.714 143.749,177.714 144.524,177.714 145.3,177.714 146.076,177.714 146.851,177.714 147.627,177.714 148.403,177.714 149.179,177.714 149.954,177.714 150.73,177.714 151.506,177.714 152.281,177.714 153.057,177.714 153.833,177.714 154.609,177.714 155.384,177.714 156.16,177.714 156.936,177.714 157.711,177.714 158.487,177.714 159.263,177.714 160.039,177.714 160.814,177.714 161.59,177.714 162.366,177.714 163.141,177.714 163.917,177.714 164.693,177.714 165.469,177.714 166.244,177.714 167.02,177.714 167.796,177.714 168.571,177.714 169.347,173.074 170.123,169.514 170.899,166.582 171.674,164.146 172.45,161.827 173.226,159.594 174.001,157.266 174.777,154.761 175.553,152.04 176.329,149.051 177.104,145.793 177.88,142.214 178.656,138.324 179.431,134.141 180.207,129.668 180.983,124.914 181.759,119.946 182.534,114.797 183.31,109.343 184.086,103.793 184.861,102.551 185.637,100.306 186.413,97.1419 187.189,93.48 187.964,89.49 188.74,85.3872 189.516,81.2455 190.291,77.3273 191.067,73.5164 191.843,69.9245 192.619,66.626 193.394,63.5642 194.17,60.7893 194.946,58.279 195.721,56.0259 196.497,54.0738 197.273,52.3682 198.049,50.8396 198.824,49.5814 199.6,48.459 200.376,47.5718 201.151,46.8065 201.927,46.21 202.703,45.7304 203.479,45.3869 204.254,45.1488 205.03,44.9702 205.806,44.9124 206.581,44.8645 207.357,44.9275 208.133,47.3496 208.909,49.1959 209.684,50.8164 210.46,52.2513 211.236,53.6038 212.011,55.1377 212.787,56.4605 213.563,57.9986 214.339,59.6553 215.114,61.4371 215.89,63.5403 216.666,65.6836 217.441,67.9795 218.217,70.4268 218.993,73.0175 219.769,75.7422 220.544,78.5892 221.32,81.535 222.096,84.5671 222.871,87.8761 223.647,88.8066 224.423,90.1927 225.199,92.2354 225.974,94.3871 226.75,96.8173 227.526,99.2237 228.301,101.631 229.077,103.989 229.853,106.256 230.629,108.412 231.404,110.436 232.18,112.31 232.956,114.073 233.731,115.669 234.507,117.113 235.283,118.471 236.059,119.692 236.834,120.77 237.61,121.783 238.386,122.688 239.161,123.486 239.937,124.2 240.713,124.857 241.489,125.44 242.264,125.972 243.04,126.442 243.816,126.866 244.591,127.253 245.367,127.603 246.143,128.01 246.919,128.22 247.694,128.476 248.47,128.719 249.246,128.945 250.021,129.16 250.797,129.356 251.573,129.547 252.349,129.722 253.124,129.893 253.9,130.056 254.676,130.201 255.451,130.348 256.227,130.485 257.003,130.646 257.779,130.789 258.554,130.926 259.33,131.05 260.106,131.201 260.881,131.327 261.657,131.456 262.433,131.588 263.209,131.709 263.984,131.838 264.76,131.963 265.536,132.089 266.311,132.216 267.087,132.246 267.863,132.48 268.639,132.621 269.414,132.752 270.19,132.834 270.966,132.8 271.741,133.079 272.517,133.199 273.293,133.323 274.069,133.443 274.844,133.562 275.62,133.689 276.396,133.805 277.171,133.925 277.947,134.044 278.723,134.162 279.499,134.282 280.274,134.377 281.05,134.515 281.826,134.637 282.601,134.753 283.377,134.868 284.153,135.018 284.929,135.127 285.704,135.258 286.48,135.333 287.256,135.447 288.031,135.561 288.807,135.646 289.583,135.761 290.359,135.866 291.134,135.975 291.91,136.104 292.686,136.248 293.461,136.357 294.237,136.43 295.013,136.549 295.789,136.693 296.564,136.803 297.34,136.904 298.116,137.014 298.891,137.125 299.667,137.232 300.443,137.338 301.219,137.375 301.994,137.55 302.77,137.66 303.546,137.856 304.321,137.85 305.097,137.98 305.873,138.081 306.649,138.185 307.424,138.293 308.2,138.398 308.976,138.504 309.751,138.611 310.527,138.713 311.303,138.818 312.079,138.919 312.854,139.023 313.63,139.125 314.406,139.227 315.181,139.326 315.957,139.429 316.733,139.643 317.509,139.648 318.284,139.764 319.06,139.872 319.836,139.93 320.611,139.864 321.387,140.129 322.163,140.258 322.939,140.345 323.714,140.412 324.49,140.513 325.266,140.498 326.041,140.691 326.817,140.773 327.593,140.877 328.369,140.972 329.144,141.1 329.92,141.167 330.696,141.24 331.471,141.386 332.247,141.482 333.023,141.574 333.799,141.668 334.574,141.76 335.35,141.851 336.126,141.945 336.901,142.038 337.677,142.157 338.453,142.223 339.229,142.315 340.004,142.404 340.78,142.495 341.556,142.583 342.331,142.675 343.107,142.753 343.883,142.866 344.659,142.961 345.434,143.038 346.21,143.215 346.986,143.205 347.761,143.296 348.537,143.386 349.313,143.47 350.089,143.508 350.864,143.623 351.64,143.694 352.416,143.789 353.191,143.873 353.967,143.991 354.743,144.109 355.519,144.21 356.294,144.255 357.07,144.334 357.846,144.415 358.621,144.498 359.397,144.583 360.173,144.667 360.949,144.747 361.724,144.83 362.5,144.914 363.276,144.996 364.051,145.08 364.827,145.161 365.603,145.241 366.379,145.324 367.154,145.404 367.93,145.483 368.706,145.567 369.481,145.645 370.257,145.723 371.033,145.804 371.809,145.886 372.584,145.963 373.36,146.042 374.136,146.12 374.911,146.201 375.687,146.275 376.463,146.356 377.239,146.431 378.014,146.431 378.79,146.598 379.566,146.686 380.341,146.765 381.117,146.838 381.893,146.911 382.669,146.971 383.444,147.042 384.22,147.12 384.996,147.193 385.771,147.295 386.547,147.382 387.323,147.445 388.099,147.521 388.874,147.563 389.65,147.574 390.426,147.71 391.201,147.78 391.977,147.854 392.753,147.906 393.529,148.007 394.304,148.074 395.08,148.141 395.856,148.212 396.631,148.285 397.407,148.347 398.183,148.425 398.959,148.533 399.734,148.618 400.51,148.636 401.286,148.705 402.061,153.594 402.837,157.13 403.613,160.054 404.389,162.529 405.164,164.91 405.94,167.214 406.716,169.626 407.491,172.177 408.267,174.971 409.043,178.079 409.819,181.435 410.594,185.073 411.37,188.999 412.146,193.251 412.921,197.812 413.697,202.601 414.473,207.633 415.249,212.923 416.024,218.364 416.8,224.02 417.576,229.836 418.351,235.875 419.127,241.924 419.903,248.139 420.679,254.491 421.454,260.918 422.23,267.34 423.006,273.885 423.781,280.479 424.557,287.124 425.333,289.205 426.109,292.276 426.884,296.174 427.66,300.395 428.436,304.819 429.211,309.369 429.987,313.797 430.763,318.061 431.539,322.088 432.314,325.842 433.09,329.313 433.866,332.367 434.641,335.241 435.417,337.758 436.193,339.987 436.969,341.88 437.744,343.568 438.52,344.999 439.296,346.225 440.071,347.186 440.847,348.035 441.623,348.692 442.399,349.185 443.174,349.551 443.95,350.05 444.726,349.94 445.501,349.983 446.277,349.953 447.053,349.855 447.829,349.683 448.604,349.459 449.38,349.188 450.156,348.877 450.931,348.535 451.707,348.163 452.483,347.767 453.259,347.35 454.034,346.922 454.81,346.473 455.586,346.017 456.361,345.547 457.137,345.076 457.913,344.594 458.689,344.116 459.464,343.614 460.24,343.123 461.016,342.63 461.791,342.134 462.567,341.64 463.343,341.148 464.119,340.65 464.894,340.156 465.67,339.66 466.446,339.169 467.221,338.557 467.997,338.204 468.773,337.731 469.549,337.247 470.324,336.759 471.1,336.28 471.876,331.017 472.651,326.99 473.427,323.7 474.203,320.727 474.979,318.043 475.754,315.346 476.53,312.458 477.306,309.497 478.081,306.3 478.857,302.785 479.633,299.034 480.409,295.005 481.184,290.656 481.96,286.088 482.736,281.104 483.511,275.974 484.287,270.511 485.063,264.904 485.839,259.012 486.614,253.003 487.39,251.546 488.166,248.723 488.941,245.069 489.717,240.889 490.493,236.473 491.269,231.933 492.044,227.411 492.82,222.987 493.596,218.74 494.371,214.743 495.147,210.948 495.923,207.494 496.699,204.25 497.474,201.373 498.25,198.717 499.026,196.321 499.801,194.154 500.577,192.261 501.353,190.543 502.129,189.1 502.904,187.706 503.68,186.53 504.456,185.533 505.231,184.632 506.007,183.845 506.783,183.168 507.559,182.595 508.334,182.098 509.11,181.672 509.886,181.31 510.661,180.99 511.437,180.718 512.213,180.486 512.989,180.3 513.764,180.143 514.54,180.012 515.316,179.897 516.091,179.807 516.867,179.725 517.643,179.664 518.419,179.664 519.194,179.616 519.97,179.566 520.746,179.492 521.521,179.474 522.297,179.46 523.073,179.444 523.849,179.45 524.624,179.438 525.4,179.41 526.176,179.307 526.951,179.407 527.727,179.398 528.503,179.382 529.279,179.377 530.054,179.376 530.83,179.371 531.606,179.371 532.381,179.361 533.157,179.359 533.933,179.357 534.709,179.356 535.484,179.234 536.26,179.363 537.036,179.378 537.811,179.386 538.587,179.365 539.363,179.372 540.139,179.322 540.914,179.322 541.69,179.316 542.466,179.307 543.241,179.309 544.017,179.297 544.793,179.292 545.569,179.277 546.344,179.27 547.12,179.267 547.896,179.275 548.671,179.267 549.447,179.263 550.223,179.256 550.999,179.253 551.774,179.245 552.55,179.32 553.326,179.249 554.101,179.248 554.877,179.236 555.653,179.221 556.429,179.209 557.204,179.208 557.98,179.2 558.756,179.198 559.531,179 560.307,179.028 561.083,179.195 561.859,179.198 562.634,179.182 563.41,179.171 564.186,179.165 564.961,179.159 565.737,179.161 566.513,179.156 567.289,179.156 568.064,179.145 568.84,179.148 569.616,179.136 570.391,179.125 571.167,179.117 571.943,179.111 572.719,179.114 573.494,179.107 574.27,179.105 575.046,178.993 575.821,179.112 576.597,179.124 577.373,179.127 578.149,179.131 578.924,179.108 579.7,179.118 580.476,179.068 581.251,179.063 582.027,179.062 582.803,179.054 583.579,179.046 584.354,179.044 585.13,179.042 585.906,179.036 586.681,179.03 587.457,179.012 588.233,179.007 589.009,179.001 589.784,178.84 590.56,178.918 591.336,179.019 592.111,178.988 592.887,178.986 593.663,178.991 594.439,178.985 595.214,178.982 595.99,178.979 596.766,178.974 597.541,178.976 598.317,178.966 599.093,178.96 599.869,178.937 600.644,178.94 601.42,178.952 602.196,178.946 602.971,178.938 603.747,178.935 604.523,178.931 605.299,178.924 606.074,178.923 606.85,178.917 607.626,178.914 608.401,178.91 609.177,178.905 609.953,178.907 610.729,178.904 611.504,178.896 612.28,178.891 613.056,178.885 613.831,178.878 614.607,178.873 615.383,178.871 616.159,178.867 616.934,178.865 617.71,178.804 618.486,178.856 619.261,178.854 620.037,178.848 620.813,178.847 621.589,178.84 622.364,178.908 623.14,178.828 623.916,178.828 624.691,178.83 625.467,178.824 626.243,178.823 627.019,178.825 627.794,178.813 628.57,178.806 629.346,178.825 630.121,178.803 630.897,178.798 631.673,178.794 632.449,178.793 633.224,178.782 634,178.782 " />
</g>
</g>
</svg>
