<?xml version="1.0" encoding="UTF-8" standalone="no"?>
<svg width="129.117mm" height="84.6667mm"
 viewBox="0 0 366 240"
 xmlns="http://www.w3.org/2000/svg" xmlns:xlink="http://www.w3.org/1999/xlink"  version="1.2" baseProfile="tiny">
<title>Qt SVG Document</title>
<desc>MATLAB, The MathWorks, Inc. Version 25.1.0.2973910 R2025a Update 1</desc>
<defs>
</defs>
<g fill="none" stroke="black" stroke-width="1" fill-rule="evenodd" stroke-linecap="square" stroke-linejoin="bevel" >

<g fill="#ffffff" fill-opacity="1" stroke="none" transform="matrix(0.6,0,0,0.6,-20.9,-14.4)"
font-family="MS Shell Dlg 2" font-size="7.8" font-weight="400" font-style="normal" 
>
<path vector-effect="none" fill-rule="evenodd" d="M34,23 L645,23 L645,423 L34,423 L34,23"/>
</g>

<g fill="#ffffff" fill-opacity="1" stroke="none" transform="matrix(6e-05,0,0,6e-05,-20.9,-14.4)"
font-family="MS Shell Dlg 2" font-size="7.8" font-weight="400" font-style="normal" 
>
<path vector-effect="none" fill-rule="evenodd" d="M910000,320000 L910000,3.72e+06 L6.34e+06,3.72e+06 L6.34e+06,320000 L910000,320000"/>
</g>

<g fill="#212121" fill-opacity="0.14902" stroke="#212121" stroke-opacity="0.14902" stroke-width="0.833333" stroke-linecap="butt" stroke-linejoin="round" transform="matrix(0.6,0,0,0.6,-20.9,-14.4)"
font-family="MS Shell Dlg 2" font-size="7.8" font-weight="400" font-style="normal" 
>
<polyline fill="none" vector-effect="none" points="91,32 91,372 " />
<polyline fill="none" vector-effect="none" points="168.571,32 168.571,372 " />
<polyline fill="none" vector-effect="none" points="246.143,32 246.143,372 " />
<polyline fill="none" vector-effect="none" points="323.714,32 323.714,372 " />
<polyline fill="none" vector-effect="none" points="401.286,32 401.286,372 " />
<polyline fill="none" vector-effect="none" points="478.857,32 478.857,372 " />
<polyline fill="none" vector-effect="none" points="556.429,32 556.429,372 " />
<polyline fill="none" vector-effect="none" points="634,32 634,372 " />
<polyline fill="none" vector-effect="none" points="91,372 634,372 " />
<polyline fill="none" vector-effect="none" points="91,329.5 634,329.5 " />
<polyline fill="none" vector-effect="none" points="91,287 634,287 " />
<polyline fill="none" vector-effect="none" points="91,244.5 634,244.5 " />
<polyline fill="none" vector-effect="none" points="91,202 634,202 " />
<polyline fill="none" vector-effect="none" points="91,159.5 634,159.5 " />
<polyline fill="none" vector-effect="none" points="91,117 634,117 " />
<polyline fill="none" vector-effect="none" points="91,74.5 634,74.5 " />
<polyline fill="none" vector-effect="none" points="91,32 634,32 " />
</g>

<g fill="#212121" fill-opacity="1" stroke="#212121" stroke-opacity="1" stroke-width="1" stroke-linecap="square" stroke-linejoin="bevel" transform="matrix(0.6,0,0,0.6,180.4,235.4)"
font-family="Helvetica" font-size="18" font-weight="400" font-style="normal" 
>
<text fill="#212121" fill-opacity="1" stroke="none" xml:space="preserve" x="0" y="0" font-family="Helvetica" font-size="18" font-weight="400" font-style="normal" 
 >Zeit [s]</text>
</g>

<g fill="#212121" fill-opacity="1" stroke="#212121" stroke-opacity="1" stroke-width="0.833333" stroke-linecap="square" stroke-linejoin="round" transform="matrix(0.6,0,0,0.6,-20.9,-14.4)"
font-family="Helvetica" font-size="18" font-weight="400" font-style="normal" 
>
<polyline fill="none" vector-effect="none" points="91,372 634,372 " />
<polyline fill="none" vector-effect="none" points="91,32 634,32 " />
<polyline fill="none" vector-effect="none" points="91,372 91,366.57 " />
<polyline fill="none" vector-effect="none" points="91,37.43 91,32 " />
<polyline fill="none" vector-effect="none" points="168.571,372 168.571,366.57 " />
<polyline fill="none" vector-effect="none" points="168.571,37.43 168.571,32 " />
<polyline fill="none" vector-effect="none" points="246.143,372 246.143,366.57 " />
<polyline fill="none" vector-effect="none" points="246.143,37.43 246.143,32 " />
<polyline fill="none" vector-effect="none" points="323.714,372 323.714,366.57 " />
<polyline fill="none" vector-effect="none" points="323.714,37.43 323.714,32 " />
<polyline fill="none" vector-effect="none" points="401.286,372 401.286,366.57 " />
<polyline fill="none" vector-effect="none" points="401.286,37.43 401.286,32 " />
<polyline fill="none" vector-effect="none" points="478.857,372 478.857,366.57 " />
<polyline fill="none" vector-effect="none" points="478.857,37.43 478.857,32 " />
<polyline fill="none" vector-effect="none" points="556.429,372 556.429,366.57 " />
<polyline fill="none" vector-effect="none" points="556.429,37.43 556.429,32 " />
<polyline fill="none" vector-effect="none" points="634,372 634,366.57 " />
<polyline fill="none" vector-effect="none" points="634,37.43 634,32 " />
</g>

<g fill="#212121" fill-opacity="1" stroke="#212121" stroke-opacity="1" stroke-width="1" stroke-linecap="square" stroke-linejoin="bevel" transform="matrix(0.6,0,0,0.6,31,221.8)"
font-family="Helvetica" font-size="16" font-weight="400" font-style="normal" 
>
<text fill="#212121" fill-opacity="1" stroke="none" xml:space="preserve" x="0" y="0" font-family="Helvetica" font-size="16" font-weight="400" font-style="normal" 
 >0</text>
</g>

<g fill="#212121" fill-opacity="1" stroke="#212121" stroke-opacity="1" stroke-width="1" stroke-linecap="square" stroke-linejoin="bevel" transform="matrix(0.6,0,0,0.6,74.8429,221.8)"
font-family="Helvetica" font-size="16" font-weight="400" font-style="normal" 
>
<text fill="#212121" fill-opacity="1" stroke="none" xml:space="preserve" x="0" y="0" font-family="Helvetica" font-size="16" font-weight="400" font-style="normal" 
 >10</text>
</g>

<g fill="#212121" fill-opacity="1" stroke="#212121" stroke-opacity="1" stroke-width="1" stroke-linecap="square" stroke-linejoin="bevel" transform="matrix(0.6,0,0,0.6,121.386,221.8)"
font-family="Helvetica" font-size="16" font-weight="400" font-style="normal" 
>
<text fill="#212121" fill-opacity="1" stroke="none" xml:space="preserve" x="0" y="0" font-family="Helvetica" font-size="16" font-weight="400" font-style="normal" 
 >20</text>
</g>

<g fill="#212121" fill-opacity="1" stroke="#212121" stroke-opacity="1" stroke-width="1" stroke-linecap="square" stroke-linejoin="bevel" transform="matrix(0.6,0,0,0.6,167.929,221.8)"
font-family="Helvetica" font-size="16" font-weight="400" font-style="normal" 
>
<text fill="#212121" fill-opacity="1" stroke="none" xml:space="preserve" x="0" y="0" font-family="Helvetica" font-size="16" font-weight="400" font-style="normal" 
 >30</text>
</g>

<g fill="#212121" fill-opacity="1" stroke="#212121" stroke-opacity="1" stroke-width="1" stroke-linecap="square" stroke-linejoin="bevel" transform="matrix(0.6,0,0,0.6,214.471,221.8)"
font-family="Helvetica" font-size="16" font-weight="400" font-style="normal" 
>
<text fill="#212121" fill-opacity="1" stroke="none" xml:space="preserve" x="0" y="0" font-family="Helvetica" font-size="16" font-weight="400" font-style="normal" 
 >40</text>
</g>

<g fill="#212121" fill-opacity="1" stroke="#212121" stroke-opacity="1" stroke-width="1" stroke-linecap="square" stroke-linejoin="bevel" transform="matrix(0.6,0,0,0.6,261.014,221.8)"
font-family="Helvetica" font-size="16" font-weight="400" font-style="normal" 
>
<text fill="#212121" fill-opacity="1" stroke="none" xml:space="preserve" x="0" y="0" font-family="Helvetica" font-size="16" font-weight="400" font-style="normal" 
 >50</text>
</g>

<g fill="#212121" fill-opacity="1" stroke="#212121" stroke-opacity="1" stroke-width="1" stroke-linecap="square" stroke-linejoin="bevel" transform="matrix(0.6,0,0,0.6,307.557,221.8)"
font-family="Helvetica" font-size="16" font-weight="400" font-style="normal" 
>
<text fill="#212121" fill-opacity="1" stroke="none" xml:space="preserve" x="0" y="0" font-family="Helvetica" font-size="16" font-weight="400" font-style="normal" 
 >60</text>
</g>

<g fill="#212121" fill-opacity="1" stroke="#212121" stroke-opacity="1" stroke-width="1" stroke-linecap="square" stroke-linejoin="bevel" transform="matrix(0.6,0,0,0.6,354.1,221.8)"
font-family="Helvetica" font-size="16" font-weight="400" font-style="normal" 
>
<text fill="#212121" fill-opacity="1" stroke="none" xml:space="preserve" x="0" y="0" font-family="Helvetica" font-size="16" font-weight="400" font-style="normal" 
 >70</text>
</g>

<g fill="#212121" fill-opacity="1" stroke="#212121" stroke-opacity="1" stroke-width="1" stroke-linecap="square" stroke-linejoin="bevel" transform="matrix(0,-0.6,0.6,0,9.3,139.5)"
font-family="Helvetica" font-size="18" font-weight="400" font-style="normal" 
>
<text fill="#212121" fill-opacity="1" stroke="none" xml:space="preserve" x="0" y="0" font-family="Helvetica" font-size="18" font-weight="400" font-style="normal" 
 >Spannung [V]</text>
</g>

<g fill="#212121" fill-opacity="1" stroke="#212121" stroke-opacity="1" stroke-width="0.833333" stroke-linecap="square" stroke-linejoin="round" transform="matrix(0.6,0,0,0.6,-20.9,-14.4)"
font-family="Helvetica" font-size="18" font-weight="400" font-style="normal" 
>
<polyline fill="none" vector-effect="none" points="91,372 91,32 " />
<polyline fill="none" vector-effect="none" points="634,372 634,32 " />
<polyline fill="none" vector-effect="none" points="91,372 96.43,372 " />
<polyline fill="none" vector-effect="none" points="628.57,372 634,372 " />
<polyline fill="none" vector-effect="none" points="91,329.5 96.43,329.5 " />
<polyline fill="none" vector-effect="none" points="628.57,329.5 634,329.5 " />
<polyline fill="none" vector-effect="none" points="91,287 96.43,287 " />
<polyline fill="none" vector-effect="none" points="628.57,287 634,287 " />
<polyline fill="none" vector-effect="none" points="91,244.5 96.43,244.5 " />
<polyline fill="none" vector-effect="none" points="628.57,244.5 634,244.5 " />
<polyline fill="none" vector-effect="none" points="91,202 96.43,202 " />
<polyline fill="none" vector-effect="none" points="628.57,202 634,202 " />
<polyline fill="none" vector-effect="none" points="91,159.5 96.43,159.5 " />
<polyline fill="none" vector-effect="none" points="628.57,159.5 634,159.5 " />
<polyline fill="none" vector-effect="none" points="91,117 96.43,117 " />
<polyline fill="none" vector-effect="none" points="628.57,117 634,117 " />
<polyline fill="none" vector-effect="none" points="91,74.5 96.43,74.5 " />
<polyline fill="none" vector-effect="none" points="628.57,74.5 634,74.5 " />
<polyline fill="none" vector-effect="none" points="91,32 96.43,32 " />
<polyline fill="none" vector-effect="none" points="628.57,32 634,32 " />
</g>

<g fill="#212121" fill-opacity="1" stroke="#212121" stroke-opacity="1" stroke-width="1" stroke-linecap="square" stroke-linejoin="bevel" transform="matrix(0.6,0,0,0.6,15.9,212.1)"
font-family="Helvetica" font-size="16" font-weight="400" font-style="normal" 
>
<text fill="#212121" fill-opacity="1" stroke="none" xml:space="preserve" x="0" y="0" font-family="Helvetica" font-size="16" font-weight="400" font-style="normal" 
 >-20</text>
</g>

<g fill="#212121" fill-opacity="1" stroke="#212121" stroke-opacity="1" stroke-width="1" stroke-linecap="square" stroke-linejoin="bevel" transform="matrix(0.6,0,0,0.6,15.9,186.6)"
font-family="Helvetica" font-size="16" font-weight="400" font-style="normal" 
>
<text fill="#212121" fill-opacity="1" stroke="none" xml:space="preserve" x="0" y="0" font-family="Helvetica" font-size="16" font-weight="400" font-style="normal" 
 >-15</text>
</g>

<g fill="#212121" fill-opacity="1" stroke="#212121" stroke-opacity="1" stroke-width="1" stroke-linecap="square" stroke-linejoin="bevel" transform="matrix(0.6,0,0,0.6,15.9,161.1)"
font-family="Helvetica" font-size="16" font-weight="400" font-style="normal" 
>
<text fill="#212121" fill-opacity="1" stroke="none" xml:space="preserve" x="0" y="0" font-family="Helvetica" font-size="16" font-weight="400" font-style="normal" 
 >-10</text>
</g>

<g fill="#212121" fill-opacity="1" stroke="#212121" stroke-opacity="1" stroke-width="1" stroke-linecap="square" stroke-linejoin="bevel" transform="matrix(0.6,0,0,0.6,21.3,135.6)"
font-family="Helvetica" font-size="16" font-weight="400" font-style="normal" 
>
<text fill="#212121" fill-opacity="1" stroke="none" xml:space="preserve" x="0" y="0" font-family="Helvetica" font-size="16" font-weight="400" font-style="normal" 
 >-5</text>
</g>

<g fill="#212121" fill-opacity="1" stroke="#212121" stroke-opacity="1" stroke-width="1" stroke-linecap="square" stroke-linejoin="bevel" transform="matrix(0.6,0,0,0.6,24.3,110.1)"
font-family="Helvetica" font-size="16" font-weight="400" font-style="normal" 
>
<text fill="#212121" fill-opacity="1" stroke="none" xml:space="preserve" x="0" y="0" font-family="Helvetica" font-size="16" font-weight="400" font-style="normal" 
 >0</text>
</g>

<g fill="#212121" fill-opacity="1" stroke="#212121" stroke-opacity="1" stroke-width="1" stroke-linecap="square" stroke-linejoin="bevel" transform="matrix(0.6,0,0,0.6,24.3,84.6)"
font-family="Helvetica" font-size="16" font-weight="400" font-style="normal" 
>
<text fill="#212121" fill-opacity="1" stroke="none" xml:space="preserve" x="0" y="0" font-family="Helvetica" font-size="16" font-weight="400" font-style="normal" 
 >5</text>
</g>

<g fill="#212121" fill-opacity="1" stroke="#212121" stroke-opacity="1" stroke-width="1" stroke-linecap="square" stroke-linejoin="bevel" transform="matrix(0.6,0,0,0.6,18.9,59.1)"
font-family="Helvetica" font-size="16" font-weight="400" font-style="normal" 
>
<text fill="#212121" fill-opacity="1" stroke="none" xml:space="preserve" x="0" y="0" font-family="Helvetica" font-size="16" font-weight="400" font-style="normal" 
 >10</text>
</g>

<g fill="#212121" fill-opacity="1" stroke="#212121" stroke-opacity="1" stroke-width="1" stroke-linecap="square" stroke-linejoin="bevel" transform="matrix(0.6,0,0,0.6,18.9,33.6)"
font-family="Helvetica" font-size="16" font-weight="400" font-style="normal" 
>
<text fill="#212121" fill-opacity="1" stroke="none" xml:space="preserve" x="0" y="0" font-family="Helvetica" font-size="16" font-weight="400" font-style="normal" 
 >15</text>
</g>

<g fill="#212121" fill-opacity="1" stroke="#212121" stroke-opacity="1" stroke-width="1" stroke-linecap="square" stroke-linejoin="bevel" transform="matrix(0.6,0,0,0.6,18.9,8.1)"
font-family="Helvetica" font-size="16" font-weight="400" font-style="normal" 
>
<text fill="#212121" fill-opacity="1" stroke="none" xml:space="preserve" x="0" y="0" font-family="Helvetica" font-size="16" font-weight="400" font-style="normal" 
 >20</text>
</g>

<g fill="none" stroke="#1171be" stroke-opacity="1" stroke-width="0.833333" stroke-linecap="butt" stroke-linejoin="round" transform="matrix(0.6,0,0,0.6,-20.9,-14.4)"
font-family="Helvetica" font-size="16" font-weight="400" font-style="normal" 
>
<polyline fill="none" vector-effect="none" points="91,202 91.7757,202 92.5514,202 93.3271,202 94.1029,202 94.8786,202 95.6543,202 96.43,202 97.2057,202 97.9814,202 98.7571,202 99.5329,202 100.309,202 101.084,202 101.86,202 102.636,202 103.411,202 104.187,202 104.963,202 105.739,202 106.514,202 107.29,202 108.066,202 108.841,202 109.617,202 110.393,202 111.169,202 111.944,202 112.72,202 113.496,202 114.271,202 115.047,202 115.823,202 116.599,202 117.374,202 118.15,202 118.926,202 119.701,202 120.477,202 121.253,202 122.029,202 122.804,202 123.58,202 124.356,202 125.131,202 125.907,202 126.683,202 127.459,202 128.234,202 129.01,202 129.786,202 130.561,202 131.337,202 132.113,202 132.889,202 133.664,202 134.44,202 135.216,202 135.991,202 136.767,202 137.543,202 138.319,202 139.094,202 139.87,202 140.646,202 141.421,202 142.197,202 142.973,202 143.749,202 144.524,202 145.3,202 146.076,202 146.851,202 147.627,202 148.403,202 149.179,202 149.954,202 150.73,202 151.506,202 152.281,202 153.057,202 153.833,202 154.609,202 155.384,202 156.16,202 156.936,202 157.711,202 158.487,202 159.263,202 160.039,202 160.814,202 161.59,202 162.366,202 163.141,202 163.917,202 164.693,202 165.469,202 166.244,202 167.02,202 167.796,202 168.571,202 169.347,196.82 170.123,193.399 170.899,190.127 171.674,187.562 172.45,185.051 173.226,182.616 174.001,180.041 174.777,177.29 175.553,174.239 176.329,171.014 177.104,167.423 177.88,163.491 178.656,159.224 179.431,154.637 180.207,149.735 180.983,144.471 181.759,139.028 182.534,133.383 183.31,127.357 184.086,121.134 184.861,119.886 185.637,117.124 186.413,113.154 187.189,109.154 187.964,104.586 188.74,99.8943 189.516,95.1726 190.291,90.6313 191.067,86.1963 191.843,81.9775 192.619,78.0333 193.394,74.3656 194.17,70.9348 194.946,67.8256 195.721,64.8207 196.497,62.1927 197.273,59.8237 198.049,57.5744 198.824,55.6603 199.6,53.7984 200.376,52.2595 201.151,50.7331 201.927,49.423 202.703,48.2352 203.479,47.1743 204.254,46.2079 205.03,45.3121 205.806,44.5417 206.581,43.7839 207.357,43.0674 208.133,45.1307 208.909,46.3109 209.684,47.2638 210.46,48.0957 211.236,48.8517 212.011,49.7163 212.787,50.4971 213.563,51.4649 214.339,52.5767 215.114,53.8338 215.89,55.359 216.666,56.9842 217.441,58.7805 218.217,60.743 218.993,62.8653 219.769,65.1384 220.544,67.5517 221.32,70.0655 222.096,72.7268 222.871,75.5486 223.647,75.968 224.423,76.949 225.199,78.5884 225.974,80.3641 226.75,82.4389 227.526,84.4613 228.301,86.5034 229.077,88.5066 229.853,90.4258 230.629,92.24 231.404,93.9376 232.18,95.4652 232.956,96.9342 233.731,98.2195 234.507,99.3732 235.283,100.404 236.059,101.345 236.834,102.153 237.61,102.856 238.386,103.492 239.161,104.012 239.937,104.458 240.713,104.839 241.489,105.154 242.264,105.436 243.04,105.656 243.816,105.811 244.591,105.938 245.367,106.035 246.143,106.154 246.919,106.15 247.694,106.158 248.47,106.151 249.246,106.131 250.021,106.1 250.797,106.053 251.573,105.999 252.349,105.932 253.124,105.861 253.9,105.785 254.676,105.69 255.451,105.596 256.227,105.49 257.003,105.418 257.779,105.328 258.554,105.232 259.33,105.111 260.106,105.041 260.881,104.936 261.657,104.831 262.433,104.73 263.209,104.623 263.984,104.522 264.76,104.419 265.536,104.309 266.311,104.217 267.087,104.048 267.863,104.022 268.639,103.945 269.414,103.843 270.19,103.712 270.966,103.581 271.741,103.522 272.517,103.411 273.293,103.318 274.069,103.217 274.844,103.113 275.62,103.028 276.396,102.927 277.171,102.828 277.947,102.732 278.723,102.635 279.499,102.54 280.274,102.522 281.05,102.347 281.826,102.26 282.601,102.166 283.377,102.067 284.153,102.008 284.929,101.906 285.704,101.821 286.48,101.689 287.256,101.606 288.031,101.511 288.807,101.388 289.583,101.299 290.359,101.203 291.134,101.117 291.91,101.038 292.686,100.97 293.461,100.892 294.237,100.774 295.013,100.678 295.789,100.613 296.564,100.538 297.34,100.434 298.116,100.344 298.891,100.258 299.667,100.171 300.443,100.081 301.219,99.9355 301.994,99.9038 302.77,99.8188 303.546,99.7937 304.321,99.6281 305.097,99.5632 305.873,99.4739 306.649,99.3813 307.424,99.302 308.2,99.217 308.976,99.138 309.751,99.0569 310.527,98.976 311.303,98.8916 312.079,98.8074 312.854,98.728 313.63,98.6433 314.406,98.561 315.181,98.4776 315.957,98.3975 316.733,98.3404 317.509,98.2466 318.284,98.1882 319.06,98.1057 319.836,97.9953 320.611,97.882 321.387,97.8407 322.163,97.7673 322.939,97.6928 323.714,97.5928 324.49,97.5039 325.266,97.4 326.041,97.3502 326.817,97.2544 327.593,97.1905 328.369,97.1087 329.144,97.0573 329.92,96.9751 330.696,96.8683 331.471,96.8272 332.247,96.7554 333.023,96.6808 333.799,96.6032 334.574,96.5273 335.35,96.4506 336.126,96.3726 336.901,96.3039 337.677,96.15 338.453,96.1574 339.229,96.0846 340.004,96.0069 340.78,95.9356 341.556,95.8618 342.331,95.789 343.107,95.7012 343.883,95.6502 344.659,95.5993 345.434,95.5151 346.21,95.4613 346.986,95.3576 347.761,95.2875 348.537,95.2194 349.313,95.1464 350.089,95.0305 350.864,94.9908 351.64,94.9049 352.416,94.8495 353.191,94.775 353.967,94.7315 354.743,94.6697 355.519,94.6279 356.294,94.5329 357.07,94.4713 357.846,94.3906 358.621,94.3222 359.397,94.2536 360.173,94.1889 360.949,94.1199 361.724,94.0506 362.5,93.9863 363.276,93.9226 364.051,93.8577 364.827,93.789 365.603,93.7255 366.379,93.6615 367.154,93.5956 367.93,93.5298 368.706,93.4683 369.481,93.4013 370.257,93.332 371.033,93.272 371.809,93.2113 372.584,93.1506 373.36,93.0836 374.136,93.0205 374.911,92.9654 375.687,92.8942 376.463,92.8343 377.239,92.7698 378.014,92.6797 378.79,92.6558 379.566,92.6138 380.341,92.5547 381.117,92.49 381.893,92.4294 382.669,92.3497 383.444,92.2832 384.22,92.2237 384.996,92.1623 385.771,92.1298 386.547,92.0769 387.323,92.0011 388.099,91.948 388.874,91.8633 389.65,91.7919 390.426,91.7464 391.201,91.6865 391.977,91.6289 392.753,91.5669 393.529,91.5177 394.304,91.4687 395.08,91.3971 395.856,91.3395 396.631,91.2836 397.407,91.2145 398.183,91.1685 398.959,91.1191 399.734,91.0901 400.51,91.0003 401.286,90.9432 402.061,96.228 402.837,99.7334 403.613,102.655 404.389,105.134 405.164,107.59 405.94,109.982 406.716,112.526 407.491,115.174 408.267,118.124 409.043,121.43 409.819,124.985 410.594,128.938 411.37,133.021 412.146,137.569 412.921,142.457 413.697,147.59 414.473,152.984 415.249,158.652 416.024,164.556 416.8,170.689 417.576,176.984 418.351,183.509 419.127,190.193 419.903,196.99 420.679,203.956 421.454,211.047 422.23,218.204 423.006,225.493 423.781,232.866 424.557,240.385 425.333,243.146 426.109,246.582 426.884,251.285 427.66,256.323 428.436,261.569 429.211,267 429.987,272.215 430.763,277.327 431.539,282.218 432.314,286.855 433.09,291.201 433.866,295.118 434.641,298.937 435.417,302.366 436.193,305.515 436.969,308.317 437.744,310.964 438.52,313.312 439.296,315.512 440.071,317.461 440.847,319.218 441.623,320.813 442.399,322.272 443.174,323.586 443.95,324.916 444.726,325.902 445.501,326.91 446.277,327.834 447.053,328.683 447.829,329.463 448.604,330.19 449.38,330.867 450.156,331.503 450.931,332.106 451.707,332.676 452.483,333.219 453.259,333.738 454.034,334.245 454.81,334.727 455.586,335.197 456.361,335.655 457.137,336.106 457.913,336.544 458.689,336.978 459.464,337.391 460.24,337.816 461.016,338.228 461.791,338.636 462.567,339.044 463.343,339.449 464.119,339.85 464.894,340.246 465.67,340.64 466.446,341.036 467.221,341.404 467.997,341.826 468.773,342.243 469.549,342.633 470.324,343.017 471.1,343.314 471.876,338.471 472.651,335.227 473.427,332.665 474.203,330.366 474.979,328.386 475.754,326.318 476.53,324.091 477.306,321.727 478.081,319.092 478.857,316.142 479.633,312.909 480.409,309.302 481.184,305.398 481.96,301.273 482.736,296.633 483.511,291.91 484.287,286.728 485.063,281.461 485.839,275.783 486.614,269.938 487.39,269.32 488.166,266.729 488.941,263.324 489.717,259.377 490.493,255.18 491.269,250.854 492.044,246.536 492.82,242.29 493.596,238.215 494.371,234.418 495.147,230.731 495.923,227.477 496.699,224.287 497.474,221.54 498.25,218.965 499.026,216.675 499.801,214.557 500.577,212.704 501.353,211.049 502.129,209.639 502.904,208.381 503.68,207.22 504.456,206.243 505.231,205.373 506.007,204.655 506.783,204.006 507.559,203.458 508.334,202.984 509.11,202.58 509.886,202.245 510.661,201.942 511.437,201.679 512.213,201.465 512.989,201.293 513.764,201.152 514.54,201.034 515.316,200.933 516.091,200.855 516.867,200.787 517.643,200.738 518.419,200.746 519.194,200.699 519.97,200.666 520.746,200.617 521.521,200.592 522.297,200.603 523.073,200.597 523.849,200.641 524.624,200.612 525.4,200.593 526.176,200.507 526.951,200.613 527.727,200.612 528.503,200.608 529.279,200.614 530.054,200.626 530.83,200.63 531.606,200.643 532.381,200.639 533.157,200.644 533.933,200.654 534.709,200.667 535.484,200.616 536.26,200.685 537.036,200.718 537.811,200.726 538.587,200.71 539.363,200.731 540.139,200.696 540.914,200.71 541.69,200.713 542.466,200.709 543.241,200.734 544.017,200.723 544.793,200.728 545.569,200.724 546.344,200.722 547.12,200.716 547.896,200.75 548.671,200.754 549.447,200.756 550.223,200.759 550.999,200.765 551.774,200.768 552.55,200.835 553.326,200.783 554.101,200.809 554.877,200.8 555.653,200.788 556.429,200.782 557.204,200.792 557.98,200.797 558.756,200.803 559.531,200.767 560.307,200.727 561.083,200.822 561.859,200.849 562.634,200.835 563.41,200.835 564.186,200.835 564.961,200.83 565.737,200.847 566.513,200.851 567.289,200.859 568.064,200.858 568.84,200.866 569.616,200.865 570.391,200.864 571.167,200.864 571.943,200.868 572.719,200.878 573.494,200.88 574.27,200.887 575.046,200.87 575.821,200.904 576.597,200.936 577.373,200.943 578.149,200.946 578.924,200.929 579.7,200.951 580.476,200.91 581.251,200.921 582.027,200.928 582.803,200.928 583.579,200.926 584.354,200.933 585.13,200.94 585.906,200.946 586.681,200.945 587.457,200.927 588.233,200.933 589.009,200.924 589.784,200.906 590.56,200.911 591.336,200.977 592.111,200.961 592.887,200.963 593.663,200.976 594.439,200.978 595.214,200.983 595.99,200.99 596.766,200.992 597.541,201.006 598.317,201.002 599.093,201.002 599.869,200.979 600.644,200.98 601.42,201.018 602.196,201.017 602.971,201.016 603.747,201.016 604.523,201.023 605.299,201.02 606.074,201.03 606.85,201.032 607.626,201.037 608.401,201.039 609.177,201.042 609.953,201.049 610.729,201.063 611.504,201.058 612.28,201.06 613.056,201.059 613.831,201.059 614.607,201.059 615.383,201.062 616.159,201.063 616.934,201.073 617.71,201.034 618.486,201.086 619.261,201.082 620.037,201.086 620.813,201.091 621.589,201.091 622.364,201.118 623.14,201.094 623.916,201.098 624.691,201.108 625.467,201.109 626.243,201.114 627.019,201.118 627.794,201.118 628.57,201.119 629.346,201.145 630.121,201.119 630.897,201.133 631.673,201.133 632.449,201.143 633.224,201.134 634,201.139 " />
</g>
</g>
</svg>
